<?xml version="1.0" encoding="utf-8"?>
<!-- Generator: Adobe Illustrator 20.1.0, SVG Export Plug-In . SVG Version: 6.00 Build 0)  -->
<svg version="1.1" id="Layer_1" xmlns="http://www.w3.org/2000/svg" xmlns:xlink="http://www.w3.org/1999/xlink" x="0px" y="0px"
	 viewBox="0 0 35.5 41" style="enable-background:new 0 0 35.5 41;" xml:space="preserve">
<style type="text/css">
	.st0{clip-path:url(#SVGID_2_);fill:none;stroke:#020242;stroke-width:0.5;stroke-miterlimit:10;}
	.st1{clip-path:url(#SVGID_2_);fill:#020242;}
</style>
<g>
	<defs>
		<rect id="SVGID_1_" y="0" width="35.5" height="41"/>
	</defs>
	<clipPath id="SVGID_2_">
		<use xlink:href="#SVGID_1_"  style="overflow:visible;"/>
	</clipPath>
	<path class="st0" d="M1,31l16.8,9.7L34.5,31c0.5-0.3,0.7-0.8,0.7-1.3V11.2c0-0.5-0.3-1-0.7-1.3L17.7,0.3L1,10
		c-0.5,0.3-0.7,0.8-0.7,1.3v18.5C0.3,30.3,0.5,30.8,1,31z"/>
	<path class="st1" d="M13.7,29.1v-2.7l4.4-7.7c0.4-0.6,0.6-1.6,0.6-2.8c0-0.8-0.4-1.2-1-1.2c-0.6,0-1,0.4-1,1.2v1h-3.2V16
		c0-1.5,0.4-2.3,1.2-3.1c0.8-0.7,1.9-1.1,3.1-1.1c1.1,0,2.1,0.3,2.9,1c0.7,0.7,1.3,1.7,1.3,3.2c0,1.2-0.4,2.6-0.9,3.6l-3.9,6.6H22
		v2.9H13.7z"/>
</g>
</svg>
