<?xml version="1.0" encoding="utf-8"?>
<!-- Generator: Adobe Illustrator 20.1.0, SVG Export Plug-In . SVG Version: 6.00 Build 0)  -->
<svg version="1.1" id="Layer_1" xmlns="http://www.w3.org/2000/svg" xmlns:xlink="http://www.w3.org/1999/xlink" x="0px" y="0px"
	 viewBox="0 0 35.5 41" style="enable-background:new 0 0 35.5 41;" xml:space="preserve">
<style type="text/css">
	.st0{clip-path:url(#SVGID_2_);fill:none;stroke:#020242;stroke-width:0.5;stroke-miterlimit:10;}
	.st1{clip-path:url(#SVGID_2_);fill:#020242;}
</style>
<g>
	<defs>
		<rect id="SVGID_1_" y="0" width="35.5" height="41"/>
	</defs>
	<clipPath id="SVGID_2_">
		<use xlink:href="#SVGID_1_"  style="overflow:visible;"/>
	</clipPath>
	<path class="st0" d="M1,31l16.8,9.7L34.5,31c0.5-0.3,0.7-0.8,0.7-1.3V11.2c0-0.5-0.3-1-0.7-1.3L17.7,0.3L1,10
		c-0.5,0.3-0.7,0.8-0.7,1.3v18.5C0.3,30.3,0.5,30.8,1,31z"/>
	<path class="st1" d="M12.7,14.6H9.3c-0.2,0-0.3,0.1-0.3,0.3v3.5c0,0.2,0.1,0.3,0.3,0.3h3.5c0.2,0,0.3-0.1,0.3-0.3v-3.5
		C13,14.8,12.9,14.6,12.7,14.6"/>
	<path class="st1" d="M12.7,20.1H9.3c-0.2,0-0.3,0.1-0.3,0.3v3.5c0,0.2,0.1,0.3,0.3,0.3h3.5c0.2,0,0.3-0.1,0.3-0.3v-3.5
		C13,20.2,12.9,20.1,12.7,20.1"/>
	<path class="st1" d="M12.7,25.6H9.3c-0.2,0-0.3,0.1-0.3,0.3v3.5c0,0.2,0.1,0.3,0.3,0.3h3.5c0.2,0,0.3-0.1,0.3-0.3v-3.5
		C13,25.7,12.9,25.6,12.7,25.6"/>
	<path class="st1" d="M17.9,16.8c0.1,0.1,0.3,0.1,0.4-0.1l2.1-2.8c0.1-0.1,0.1-0.3-0.1-0.4l-2.8-2.1c-0.1-0.1-0.3-0.1-0.4,0.1
		l-2.1,2.8c-0.1,0.1-0.1,0.3,0.1,0.4L17.9,16.8z"/>
	<path class="st1" d="M24.5,17.2c-0.1-0.2-0.2-0.2-0.4-0.2l-3.3,1.1c-0.2,0-0.2,0.2-0.2,0.4l1.1,3.3c0,0.2,0.2,0.2,0.4,0.2l3.3-1.1
		c0.2,0,0.2-0.2,0.2-0.4L24.5,17.2z"/>
	<path class="st1" d="M18.2,20.1h-3.5c-0.2,0-0.3,0.1-0.3,0.3v3.5c0,0.2,0.1,0.3,0.3,0.3h3.5c0.2,0,0.3-0.1,0.3-0.3v-3.5
		C18.5,20.2,18.4,20.1,18.2,20.1"/>
	<path class="st1" d="M18.2,25.6h-3.5c-0.2,0-0.3,0.1-0.3,0.3v3.5c0,0.2,0.1,0.3,0.3,0.3h3.5c0.2,0,0.3-0.1,0.3-0.3v-3.5
		C18.5,25.7,18.4,25.6,18.2,25.6"/>
	<path class="st1" d="M26.2,11.3h-3.5c-0.2,0-0.3,0.1-0.3,0.3v3.5c0,0.2,0.1,0.3,0.3,0.3h3.5c0.2,0,0.3-0.1,0.3-0.3v-3.5
		C26.5,11.5,26.4,11.3,26.2,11.3"/>
	<path class="st1" d="M23.7,25.6h-3.5c-0.2,0-0.3,0.1-0.3,0.3v3.5c0,0.2,0.1,0.3,0.3,0.3h3.5c0.2,0,0.3-0.1,0.3-0.3v-3.5
		C24,25.7,23.9,25.6,23.7,25.6"/>
</g>
</svg>
