<?xml version="1.0" encoding="utf-8"?>
<!-- Generator: Adobe Illustrator 20.1.0, SVG Export Plug-In . SVG Version: 6.00 Build 0)  -->
<svg version="1.1" id="Layer_1" xmlns="http://www.w3.org/2000/svg" xmlns:xlink="http://www.w3.org/1999/xlink" x="0px" y="0px"
	 viewBox="0 0 35.5 40.7" style="enable-background:new 0 0 35.5 40.7;" xml:space="preserve">
<style type="text/css">
	.st0{clip-path:url(#SVGID_2_);fill:none;stroke:#FFFFFF;stroke-width:0.5;stroke-miterlimit:10;}
	.st1{clip-path:url(#SVGID_2_);fill:#FFFFFF;}
</style>
<g>
	<defs>
		<rect id="SVGID_1_" y="0" width="35.5" height="40.7"/>
	</defs>
	<clipPath id="SVGID_2_">
		<use xlink:href="#SVGID_1_"  style="overflow:visible;"/>
	</clipPath>
	<path class="st0" d="M1,30.8l16.8,9.7l16.8-9.7c0.5-0.3,0.7-0.8,0.7-1.3V11c0-0.5-0.3-1-0.7-1.3l-16-9.3c-0.4-0.3-1-0.3-1.4,0
		L1,9.7C0.5,10,0.3,10.5,0.3,11v18.5C0.3,30,0.5,30.5,1,30.8z"/>
	<path class="st1" d="M17.7,11.1c-5.1,0-9.1,4.1-9.2,9.2c0,5.1,4.1,9.2,9.2,9.2c5.1,0,9.2-4.1,9.2-9.2
		C26.9,15.2,22.8,11.1,17.7,11.1 M18.9,24.8c0,0.2-0.2,0.4-0.3,0.4H17c-0.2,0-0.3-0.2-0.3-0.4v-5.9c0-0.2,0.2-0.4,0.3-0.4h1.5
		c0.2,0,0.3,0.2,0.3,0.4V24.8z M17.7,17.5c-0.6,0-1.1-0.5-1.1-1.1c0-0.6,0.5-1.1,1.1-1.1c0.6,0,1.1,0.5,1.1,1.1
		C18.9,17,18.4,17.5,17.7,17.5"/>
</g>
</svg>
