<?xml version="1.0" encoding="utf-8"?>
<!-- Generator: Adobe Illustrator 20.1.0, SVG Export Plug-In . SVG Version: 6.00 Build 0)  -->
<svg version="1.1" id="Layer_1" xmlns="http://www.w3.org/2000/svg" xmlns:xlink="http://www.w3.org/1999/xlink" x="0px" y="0px"
	 viewBox="0 0 35.5 40.7" style="enable-background:new 0 0 35.5 40.7;" xml:space="preserve">
<style type="text/css">
	.st0{clip-path:url(#SVGID_2_);fill:none;stroke:#FFFFFF;stroke-width:0.5;stroke-miterlimit:10;}
	.st1{clip-path:url(#SVGID_2_);fill:#FFFFFF;}
</style>
<g>
	<defs>
		<rect id="SVGID_1_" y="0" width="35.5" height="40.7"/>
	</defs>
	<clipPath id="SVGID_2_">
		<use xlink:href="#SVGID_1_"  style="overflow:visible;"/>
	</clipPath>
	<path class="st0" d="M1,30.8l16.8,9.7l16.8-9.7c0.5-0.3,0.7-0.8,0.7-1.3V11c0-0.5-0.3-1-0.7-1.3l-16-9.3c-0.4-0.3-1-0.3-1.4,0
		L1,9.7C0.5,10,0.3,10.5,0.3,11v18.5C0.3,30,0.5,30.5,1,30.8z"/>
	<polygon class="st1" points="17.4,28.9 17.4,15.6 14.8,17.4 14.8,13.8 17.4,11.8 20.7,11.8 20.7,28.9 	"/>
</g>
</svg>
