<?xml version="1.0" encoding="utf-8"?>
<!-- Generator: Adobe Illustrator 20.1.0, SVG Export Plug-In . SVG Version: 6.00 Build 0)  -->
<svg version="1.1" id="Layer_1" xmlns="http://www.w3.org/2000/svg" xmlns:xlink="http://www.w3.org/1999/xlink" x="0px" y="0px"
	 viewBox="0 0 35.5 40.7" style="enable-background:new 0 0 35.5 40.7;" xml:space="preserve">
<style type="text/css">
	.st0{clip-path:url(#SVGID_2_);fill:none;stroke:#FFFFFF;stroke-width:0.5;stroke-miterlimit:10;}
	.st1{clip-path:url(#SVGID_2_);fill:#FFFFFF;}
</style>
<g>
	<defs>
		<rect id="SVGID_1_" y="0" width="35.5" height="40.7"/>
	</defs>
	<clipPath id="SVGID_2_">
		<use xlink:href="#SVGID_1_"  style="overflow:visible;"/>
	</clipPath>
	<path class="st0" d="M1,31l16,9.2c0.5,0.3,1,0.3,1.5,0l16-9.2c0.5-0.3,0.7-0.8,0.7-1.3V11.2c0-0.5-0.3-1-0.7-1.3L17.7,0.3L1,10
		c-0.5,0.3-0.7,0.8-0.7,1.3v18.5C0.3,30.3,0.5,30.8,1,31z"/>
	<path class="st1" d="M20.8,28c-0.8,0.7-1.9,1.1-3,1.1s-2.3-0.4-3.1-1.1c-0.8-0.7-1.2-1.6-1.2-3.1V24h3.2v1c0,0.8,0.5,1.2,1,1.2
		c0.4,0,0.6-0.2,0.8-0.4c0.3-0.4,0.3-1.6,0.3-2.1s0-1.6-0.3-2c-0.2-0.2-0.4-0.4-0.8-0.4h-0.8v-2.7h0.8c0.3,0,0.5-0.1,0.7-0.3
		c0.3-0.4,0.3-1.3,0.3-1.8c0-0.5,0-1.2-0.2-1.7c-0.1-0.2-0.3-0.3-0.7-0.3c-0.5,0-0.9,0.3-0.9,1v1.2h-3.2v-1c0-1.4,0.4-2.3,1.2-3
		c0.8-0.7,1.8-1.1,2.9-1.1c1.3,0,2.3,0.4,2.9,1.1c0.8,0.8,1.2,2.1,1.2,3.6c0,0.9,0,1.8-0.4,2.6c-0.2,0.4-0.5,0.8-0.9,1.1
		c0.4,0.3,0.8,0.7,1,1.2C22,22,22,23,22,23.9C22,25.5,22,26.8,20.8,28"/>
</g>
</svg>
