<?xml version="1.0" encoding="utf-8"?>
<!-- Generator: Adobe Illustrator 20.1.0, SVG Export Plug-In . SVG Version: 6.00 Build 0)  -->
<svg version="1.1" id="Layer_1" xmlns="http://www.w3.org/2000/svg" xmlns:xlink="http://www.w3.org/1999/xlink" x="0px" y="0px"
	 viewBox="0 0 35.5 41" style="enable-background:new 0 0 35.5 41;" xml:space="preserve">
<style type="text/css">
	.st0{clip-path:url(#SVGID_2_);fill:none;stroke:#FFFFFF;stroke-width:0.5;stroke-miterlimit:10;}
	.st1{clip-path:url(#SVGID_2_);fill:#FFFFFF;}
</style>
<g>
	<defs>
		<rect id="SVGID_1_" y="0" width="35.5" height="41"/>
	</defs>
	<clipPath id="SVGID_2_">
		<use xlink:href="#SVGID_1_"  style="overflow:visible;"/>
	</clipPath>
	<path class="st0" d="M1,31l16.8,9.7L34.5,31c0.5-0.3,0.7-0.8,0.7-1.3V11.2c0-0.5-0.3-1-0.7-1.3L17.7,0.3L1,10
		c-0.5,0.3-0.7,0.8-0.7,1.3v18.5C0.3,30.3,0.5,30.8,1,31z"/>
	<path class="st1" d="M20.1,16.9L20.1,16.9c0-0.4-0.3-0.7-0.7-0.7c-0.3,0-0.5,0.2-0.5,0.5c0,0.1,0,0.2,0.1,0.3
		c-0.1,0.1-0.4,0.1-0.6,0.1c0-0.1,0-0.1,0-0.2c0-0.4-0.3-0.7-0.7-0.7c-0.4,0-0.7,0.3-0.7,0.7c0,0.1,0,0.1,0,0.2
		c-0.2,0-0.4,0-0.6-0.1c0.1-0.1,0.1-0.2,0.1-0.3c0-0.3-0.2-0.5-0.5-0.5c-0.4,0-0.7,0.3-0.7,0.7v0v0c0,2.1,1.6,3.2,2.3,5.9
		C18.4,20.2,20.1,19,20.1,16.9L20.1,16.9z M14.8,25.5v2.4c0,0.6,0.5,1.1,1.1,1.2c0.2,0.8,0.9,1,1.9,1c0.9,0,1.7-0.2,1.9-1
		c0.6-0.1,1.1-0.6,1.1-1.2v-2.4H14.8z M14.4,20.9c-0.8-1.1-1.6-2.2-1.6-3.9c0-2.6,2.2-4.8,5-4.8s5,2.1,5,4.8c0,1.7-0.8,2.7-1.6,3.9
		c-0.8,1.1-1.7,2.3-1.7,3.9h1.3c0-2.6,3.3-4,3.3-7.8c0-3.4-2.8-6.1-6.3-6.1s-6.3,2.7-6.3,6.1c0,3.8,3.3,5.2,3.3,7.8h1.3
		C16.1,23.2,15.2,22,14.4,20.9 M17.7,20c-0.3-0.6-0.8-1.4-1-1.9c0.3,0,0.7,0,1-0.2c0.3,0.2,0.7,0.2,1,0.2C18.5,18.7,18,19.5,17.7,20
		"/>
</g>
</svg>
