<?xml version="1.0" encoding="utf-8"?>
<!-- Generator: Adobe Illustrator 20.1.0, SVG Export Plug-In . SVG Version: 6.00 Build 0)  -->
<svg version="1.1" id="Layer_1" xmlns="http://www.w3.org/2000/svg" xmlns:xlink="http://www.w3.org/1999/xlink" x="0px" y="0px"
	 viewBox="0 0 35.5 40.7" style="enable-background:new 0 0 35.5 40.7;" xml:space="preserve">
<style type="text/css">
	.st0{clip-path:url(#SVGID_2_);fill:none;stroke:#FFFFFF;stroke-width:0.5;stroke-miterlimit:10;}
	.st1{clip-path:url(#SVGID_2_);fill:#FFFFFF;}
</style>
<g>
	<defs>
		<rect id="SVGID_1_" y="0" width="35.5" height="40.7"/>
	</defs>
	<clipPath id="SVGID_2_">
		<use xlink:href="#SVGID_1_"  style="overflow:visible;"/>
	</clipPath>
	<path class="st0" d="M1,31l16,9.2c0.5,0.3,1,0.3,1.5,0l16-9.2c0.5-0.3,0.7-0.8,0.7-1.3V11.2c0-0.5-0.3-1-0.7-1.3L17.7,0.3L1,10
		c-0.5,0.3-0.7,0.8-0.7,1.3v18.5C0.3,30.3,0.5,30.8,1,31z"/>
	<path class="st1" d="M18.3,21.1c0.1-0.1,0.2-0.2,0.2-0.4v-6.4c0-1-0.7-1.8-1.6-2c-0.3-0.6-0.9-0.9-1.6-0.8c-0.5,0.1-1,0.5-1.1,1.1
		c-0.2,0.9,0.5,1.7,1.4,1.7c0.5,0,0.9-0.2,1.1-0.6c0.2,0.1,0.3,0.3,0.3,0.6v5.8c0,0.1-0.1,0.3-0.2,0.4c-0.5,0.5-1.8,1.6-3.4,1.6
		c-1.5,0-2.9-1.1-3.4-1.6c-0.1-0.1-0.2-0.2-0.2-0.4v-5.8c0-0.2,0.1-0.4,0.3-0.6c0.3,0.4,0.8,0.7,1.4,0.5c0.5-0.1,1-0.5,1.1-1.1
		c0.2-0.9-0.5-1.7-1.4-1.7c-0.6,0-1,0.3-1.3,0.8c-0.9,0.2-1.6,1.1-1.6,2v6.4c0,0.1,0.1,0.3,0.2,0.4c0.6,0.6,2.5,2.2,4.8,2.2
		C15.7,23.4,17.7,21.7,18.3,21.1"/>
	<path class="st1" d="M25.5,21.8v-0.1c0-1.5-1.3-2.8-2.8-2.8c-1.5,0-2.8,1.3-2.8,2.8v3.5c0,1.6-1.3,2.8-2.8,2.8s-2.8-1.3-2.8-2.8
		v-1.3C14,24,13.8,24,13.5,24c-0.2,0-0.5,0-0.7-0.1v1.3c0,2.3,1.9,4.2,4.2,4.2c2.3,0,4.2-1.9,4.2-4.2v-3.5c0-0.8,0.6-1.4,1.4-1.4
		c0.8,0,1.4,0.6,1.4,1.4v0.1c-0.8,0.3-1.4,1.1-1.4,2c0,1.2,1,2.1,2.1,2.1c1.2,0,2.1-1,2.1-2.1C26.9,22.9,26.3,22.1,25.5,21.8
		 M24.8,24.5c-0.4,0-0.7-0.3-0.7-0.7c0-0.4,0.3-0.7,0.7-0.7c0.4,0,0.7,0.3,0.7,0.7C25.5,24.2,25.2,24.5,24.8,24.5"/>
</g>
</svg>
