<?xml version="1.0" standalone="no"?>
<!DOCTYPE svg PUBLIC "-//W3C//DTD SVG 1.1//EN" "http://www.w3.org/Graphics/SVG/1.1/DTD/svg11.dtd" >
<svg>
<metadata>
Created by FontForge 20120731 at Mon Jul  1 17:27:14 2019
 By www
(c) 2013-2015 Typodermic Fonts Inc. See attached license agreement. If agreement is missing visit typodermicfonts.com for more info.
</metadata>
<defs>
<font id="BuiltTitlingRg-Regular" horiz-adv-x="334" >
  <font-face 
    font-family="Built Titling Rg"
    font-weight="400"
    font-stretch="normal"
    units-per-em="1000"
    panose-1="2 11 2 6 3 2 2 8 2 4"
    ascent="762"
    descent="-238"
    cap-height="757"
    bbox="-122 -238 774 962"
    underline-thickness="20"
    underline-position="-123"
    unicode-range="U+0017-25CA"
  />
<missing-glyph horiz-adv-x="807" 
d="M404 -169q-85 0 -146 4t-102 20.5t-65.5 50.5t-37.5 95t-16.5 153t-3.5 225t3.5 225t16.5 153t37.5 95t65.5 51t101.5 20.5t146.5 3.5t146.5 -3.5t101.5 -20.5t65.5 -51t37 -95t16 -153t3.5 -225q0 -132 -3.5 -224.5t-16 -153.5t-37 -95t-65.5 -50.5t-101.5 -20.5
t-146.5 -4zM402 212q9 34 15.5 54t11 31.5t9.5 16t11 8.5q19 11 38.5 17t41.5 20q15 10 25.5 22t20 30t18 44t18.5 65q7 28 11 51.5t4 43.5q0 54 -33.5 86t-112.5 53q-54 14 -89 14q-53 0 -83.5 -30.5t-48.5 -99.5q-8 -29 -10.5 -46.5t-2.5 -33.5l127 -33q4 42 16.5 62.5
t29.5 20.5q29 0 42 -11.5t13 -27.5q0 -8 -1.5 -16t-4.5 -20q-5 -23 -10 -36.5t-12.5 -21.5t-19 -14t-30.5 -14q-22 -10 -38.5 -19.5t-28 -21t-19.5 -26t-13 -33.5q-8 -31 -15 -57t-9 -43zM393 136l-151 40l-39 -146l151 -41z" />
    <glyph glyph-name="copyright" unicode="&#x28;C&#x29;" horiz-adv-x="458" 
d="M397 49q-11 -17 -24 -28.5t-32 -19t-46 -11t-66 -3.5t-66 3.5t-46 11t-32 19t-24 28.5t-18 37t-11.5 55.5t-6 91.5t-1.5 146t1.5 146t6 91t11.5 55t18 37t24 28.5t32 19t46 11t66 3.5t66 -3.5t46 -11t32 -19t24 -28.5t18 -37t11.5 -55t6 -91t1.5 -146t-1.5 -146t-6 -91.5
t-11.5 -55.5t-18 -37zM354 79q8 13 13.5 30t8.5 49t4 84.5t1 136.5t-1 136t-4 84t-8.5 49t-13.5 30q-6 9 -14.5 16.5t-22.5 12.5t-35.5 7.5t-52.5 2.5q-32 0 -53 -2.5t-35 -7.5t-22.5 -12.5t-14.5 -16.5q-8 -13 -13.5 -30t-8.5 -49t-4 -84t-1 -136t1 -136.5t4 -84.5t8.5 -49
t13.5 -30q6 -9 14.5 -16.5t22.5 -12.5t35 -7.5t53 -2.5q31 0 52.5 2.5t35.5 7.5t22.5 12.5t14.5 16.5zM303 331q1 -10 1 -19v-20q0 -19 -0.5 -32.5t-2 -23.5t-3 -17.5t-4.5 -15.5q-3 -10 -7.5 -16.5t-11.5 -10.5t-18 -5.5t-28 -1.5t-28 1.5t-18 5.5t-12 10.5t-9 16.5
q-3 7 -5.5 16.5t-4 28.5t-2 50.5t-0.5 84.5q0 52 0.5 84t2 51t4 28t5.5 17q4 10 9 16.5t12 10.5t18 5.5t28 1.5q34 0 46 -7.5t19 -26.5q3 -8 4.5 -15.5t3 -17.5t2 -23.5t0.5 -32.5v-20t-1 -19h-48q1 10 1 17.5v19.5q0 19 -0.5 30.5t-1.5 18t-2.5 10.5t-3.5 7q-6 9 -19 9
q-10 0 -14 -2t-7 -7t-4 -10.5t-2 -20.5t-1 -44v-80v-80t1 -44t2 -21t4 -10q3 -5 7 -7t14 -2q13 0 19 9q2 3 3.5 7t2.5 10.5t1.5 18t0.5 30.5v19.5t-1 17.5h48z" />
    <glyph glyph-name="registered" unicode="&#x28;R&#x29;" horiz-adv-x="458" 
d="M397 49q-11 -17 -24 -28.5t-32 -19t-46 -11t-66 -3.5t-66 3.5t-46 11t-32 19t-24 28.5t-18 37t-11.5 55.5t-6 91.5t-1.5 146t1.5 146t6 91t11.5 55t18 37t24 28.5t32 19t46 11t66 3.5t66 -3.5t46 -11t32 -19t24 -28.5t18 -37t11.5 -55t6 -91t1.5 -146t-1.5 -146t-6 -91.5
t-11.5 -55.5t-18 -37zM354 79q8 13 13.5 30t8.5 49t4 84.5t1 136.5t-1 136t-4 84t-8.5 49t-13.5 30q-6 9 -14.5 16.5t-22.5 12.5t-35.5 7.5t-52.5 2.5q-32 0 -53 -2.5t-35 -7.5t-22.5 -12.5t-14.5 -16.5q-8 -13 -13.5 -30t-8.5 -49t-4 -84t-1 -136t1 -136.5t4 -84.5t8.5 -49
t13.5 -30q6 -9 14.5 -16.5t22.5 -12.5t35 -7.5t53 -2.5q31 0 52.5 2.5t35.5 7.5t22.5 12.5t14.5 16.5zM263 172q-2 4 -3.5 9t-3.5 16t-3.5 30t-3.5 51q-2 25 -3.5 39t-4 21t-6 8.5t-9.5 1.5h-21v-176h-51v418h88q39 0 52 -24t13 -89q0 -29 -1.5 -47.5t-4.5 -29.5t-8 -17
t-12 -10v-7q4 -4 7 -9t5 -15t4 -28t4 -48q2 -28 3.5 -44.5t3 -26t2.5 -13t3 -6.5v-4h-50zM231 394q8 0 13 2t8 9.5t4 23t1 41.5q0 24 -1 38t-4 21t-7.5 9t-10.5 2h-29v-146h26z" />
    <glyph glyph-name="uni2117" unicode="&#x28;P&#x29;" horiz-adv-x="458" 
d="M158 172v418h85q19 0 32 -5t20.5 -20t11 -42t3.5 -72t-3 -73t-10.5 -43.5t-20.5 -21.5t-33 -6h-35v-135h-50zM236 356q6 0 10.5 3t7.5 13t4.5 29t1.5 51q0 30 -1.5 47.5t-5 26.5t-8 11.5t-10.5 2.5h-27v-184h28zM397 49q-11 -17 -24 -28.5t-32 -19t-46 -11t-66 -3.5
t-66 3.5t-46 11t-32 19t-24 28.5t-18 37t-11.5 55.5t-6 91.5t-1.5 146t1.5 146t6 91t11.5 55t18 37t24 28.5t32 19t46 11t66 3.5t66 -3.5t46 -11t32 -19t24 -28.5t18 -37t11.5 -55t6 -91t1.5 -146t-1.5 -146t-6 -91.5t-11.5 -55.5t-18 -37zM354 79q8 13 13.5 30t8.5 49
t4 84.5t1 136.5t-1 136t-4 84t-8.5 49t-13.5 30q-6 9 -14.5 16.5t-22.5 12.5t-35.5 7.5t-52.5 2.5q-32 0 -53 -2.5t-35 -7.5t-22.5 -12.5t-14.5 -16.5q-8 -13 -13.5 -30t-8.5 -49t-4 -84t-1 -136t1 -136.5t4 -84.5t8.5 -49t13.5 -30q6 -9 14.5 -16.5t22.5 -12.5t35 -7.5
t53 -2.5q31 0 52.5 2.5t35.5 7.5t22.5 12.5t14.5 16.5z" />
    <glyph glyph-name=".notdef" horiz-adv-x="807" 
d="M404 -169q-85 0 -146 4t-102 20.5t-65.5 50.5t-37.5 95t-16.5 153t-3.5 225t3.5 225t16.5 153t37.5 95t65.5 51t101.5 20.5t146.5 3.5t146.5 -3.5t101.5 -20.5t65.5 -51t37 -95t16 -153t3.5 -225q0 -132 -3.5 -224.5t-16 -153.5t-37 -95t-65.5 -50.5t-101.5 -20.5
t-146.5 -4zM402 212q9 34 15.5 54t11 31.5t9.5 16t11 8.5q19 11 38.5 17t41.5 20q15 10 25.5 22t20 30t18 44t18.5 65q7 28 11 51.5t4 43.5q0 54 -33.5 86t-112.5 53q-54 14 -89 14q-53 0 -83.5 -30.5t-48.5 -99.5q-8 -29 -10.5 -46.5t-2.5 -33.5l127 -33q4 42 16.5 62.5
t29.5 20.5q29 0 42 -11.5t13 -27.5q0 -8 -1.5 -16t-4.5 -20q-5 -23 -10 -36.5t-12.5 -21.5t-19 -14t-30.5 -14q-22 -10 -38.5 -19.5t-28 -21t-19.5 -26t-13 -33.5q-8 -31 -15 -57t-9 -43zM393 136l-151 40l-39 -146l151 -41z" />
    <glyph glyph-name="uni0017" horiz-adv-x="148" 
 />
    <glyph glyph-name="space" unicode=" " horiz-adv-x="148" 
 />
    <glyph glyph-name="exclam" unicode="!" horiz-adv-x="166" 
d="M49 227l-16 561h100l-16 -561h-68zM39 0v151h88v-151h-88z" />
    <glyph glyph-name="quotedbl" unicode="&#x22;" horiz-adv-x="283" 
d="M29 514zM43 514l-14 274h86l-14 -274h-58zM181 514l-14 274h86l-14 -274h-58z" />
    <glyph glyph-name="numbersign" unicode="#" 
d="M199 0v228h-65v-228h-57v228h-58v57h58v188h-58v58h58v226h57v-226h65v226h58v-226h58v-58h-58v-188h58v-57h-58v-228h-58zM199 473h-65v-188h65v188z" />
    <glyph glyph-name="dollar" unicode="$" 
d="M133 -43v124q-26 2 -42.5 9.5t-28.5 24.5q-14 17 -19.5 39.5t-5.5 72.5q0 20 1.5 35.5t3.5 26.5h79q-3 -17 -3 -46q0 -33 2 -46.5t8 -24.5q6 -8 13.5 -11t23.5 -3q19 0 27 3.5t15 12.5q6 11 8 28t2 52q0 27 -0.5 38.5t-4.5 22.5q-3 9 -10 14.5t-21 13.5q-13 6 -28 13.5
l-30 15t-28.5 15t-23.5 15.5q-10 7 -16.5 18t-11 28.5t-6.5 43.5t-2 64q0 49 8 73.5t25 40.5q13 11 26 16t39 7v108h62v-108q29 -2 45.5 -7.5t29.5 -19.5q14 -15 18.5 -37.5t4.5 -61.5q0 -25 -1.5 -40.5t-3.5 -26.5h-76q2 8 2 19v28q0 29 -2.5 43t-11.5 22q-5 7 -12 9t-24 2
q-16 0 -22 -2t-13 -10q-6 -9 -8.5 -23t-2.5 -43v-29.5t1 -18.5t1.5 -11.5t2.5 -8.5q3 -9 8 -14t21 -14q19 -11 44 -21.5t48 -22.5q18 -11 26.5 -17.5t16.5 -18.5q4 -7 6.5 -15t4 -21t2.5 -32.5t1 -48.5q0 -31 -1.5 -53t-6 -38.5t-11.5 -29t-17 -22.5q-13 -13 -28.5 -19.5
t-41.5 -8.5v-124h-62z" />
    <glyph glyph-name="percent" unicode="%" horiz-adv-x="454" 
d="M16 0zM168 366q-4 -7 -8 -12t-11 -8t-19 -4t-31 -1q-20 0 -31.5 1t-19 4t-11.5 8t-7 12q-4 8 -7 20.5t-4.5 34t-2 54.5t-0.5 83t0.5 83t2 54t4.5 33t7 21q7 16 19 21t50 5q19 0 31 -1.5t19 -4.5t11 -8t8 -12q4 -9 6.5 -21t4 -33t2 -54t0.5 -83t-0.5 -83t-2 -54.5t-4 -34
t-6.5 -20.5zM117 413q1 4 2.5 10.5t2 21.5t1 41.5t0.5 71.5q0 46 -0.5 73.5t-1 42t-2 20.5t-2.5 11q-5 10 -18 10q-10 0 -13 -1.5t-5 -8.5q-2 -5 -2.5 -10.5t-1.5 -20t-1 -41.5v-75v-71.5t1 -41.5t1.5 -21.5t2.5 -10.5q2 -6 5.5 -7.5t12.5 -1.5q8 0 12 1.5t6 7.5zM42 0v4
l312 753h58v-5l-313 -752h-57zM424 8q-4 -7 -8 -12t-11 -8t-19 -4t-31 -1q-20 0 -31.5 1t-19 4t-11.5 8t-7 12q-4 8 -7 20.5t-4.5 34t-2 54.5t-0.5 83t0.5 83t2 54t4.5 33t7 21q7 16 19 21t50 5q19 0 31 -1.5t19 -4.5t11 -8t8 -12q4 -9 6.5 -21t4 -33t2 -54t0.5 -83
t-0.5 -83t-2 -54.5t-4 -34t-6.5 -20.5zM373 55q1 4 2.5 10.5t2 21.5t1 41.5t0.5 71.5q0 46 -0.5 73.5t-1 42t-2 20.5t-2.5 11q-5 10 -18 10q-10 0 -13 -1.5t-5 -8.5q-2 -5 -2.5 -10.5t-1.5 -20t-1 -41.5v-75v-71.5t1 -41.5t1.5 -21.5t2.5 -10.5q2 -6 5.5 -7.5t12.5 -1.5
q8 0 12 1.5t6 7.5z" />
    <glyph glyph-name="ampersand" unicode="&#x26;" horiz-adv-x="396" 
d="M308 0q-8 18 -13 29.5t-8.5 19.5t-5.5 13t-3 10h-4q-3 -15 -6 -22.5t-6 -13.5q-14 -26 -39 -37.5t-69 -11.5q-42 0 -67.5 7t-39.5 30t-18.5 67t-4.5 119q0 52 2 84t9.5 53t23 36t42.5 33l18 12l-16 38q-10 23 -16 39.5t-9 32.5t-4 34.5t-1 45.5q0 49 5 78.5t18.5 46
t37.5 22t62 5.5q33 0 54.5 -5.5t34 -23t17 -51t4.5 -88.5q0 -44 -2 -72t-9.5 -47.5t-21 -33.5t-35.5 -31l-27 -18q16 -35 25 -57t14.5 -35.5t7.5 -21t4 -13.5h4q1 6 3 13.5t5.5 19.5t9.5 30.5t16 47.5h82v-5l-71 -206l75 -169v-4h-78zM229 178l-79 180l-13 -9
q-8 -5 -13 -10.5t-7.5 -18t-3.5 -35t-1 -61.5q0 -51 2 -79.5t7.5 -43t15.5 -17.5t26 -3q20 0 29.5 9t20.5 41zM200 482q12 8 18.5 14t10 17t4.5 30t1 52q0 34 -1.5 53t-6 28.5t-12.5 11.5t-22 2q-15 0 -23.5 -2.5t-13 -11.5t-6 -27t-1.5 -49q0 -20 0.5 -32.5t3 -23
t6.5 -21.5t11 -27l12 -27z" />
    <glyph glyph-name="quotesingle" unicode="'" horiz-adv-x="145" 
d="M43 514l-14 274h86l-14 -274h-58z" />
    <glyph glyph-name="parenleft" unicode="(" 
d="M233 -238q-25 32 -47.5 78t-40 116t-27.5 169t-10 237t10 237t27.5 169t40 116t47.5 78h68v-5q-26 -33 -48.5 -78.5t-39.5 -114t-27 -166.5t-10 -237q0 -138 10 -234t27 -163.5t39.5 -113.5t48.5 -83v-5h-68z" />
    <glyph glyph-name="parenright" unicode=")" 
d="M32 -238v5q25 37 48 83t40 113.5t27 163.5t10 234t-10 234.5t-27.5 164t-40 113.5t-47.5 84v5h68q25 -32 47.5 -78t40 -116t27.5 -169t10 -237t-10 -237t-27.5 -169t-40 -116t-47.5 -78h-68z" />
    <glyph glyph-name="asterisk" unicode="*" horiz-adv-x="487" 
d="M316 359l-65 157h-7l-57 -159l-47 20l81 151l-5 6l-159 -58l-14 49l167 32l2 7l-144 88l29 42l130 -111l8 4l-12 170h50l-14 -170l7 -4l124 117l32 -39l-141 -97l2 -7l168 -23l-10 -49l-164 49l-4 -6l88 -145z" />
    <glyph glyph-name="plus" unicode="+" 
d="M132 231v114h-113v68h113v114h69v-114h114v-68h-114v-114h-69z" />
    <glyph glyph-name="comma" unicode="," horiz-adv-x="156" 
d="M36 -142v5l29 141l-2 6h-30v116h90v-122l-45 -146h-42z" />
    <glyph glyph-name="hyphen" unicode="-" horiz-adv-x="272" 
d="M22 345v72h227v-72h-227z" />
    <glyph glyph-name="period" unicode="." horiz-adv-x="154" 
d="M33 0v126h88v-126h-88z" />
    <glyph glyph-name="slash" unicode="/" 
d="M8 -153l251 1001h67l-251 -1001h-67z" />
    <glyph glyph-name="zero" unicode="0" 
d="M285 28q-6 -12 -13 -20t-19 -12.5t-32.5 -6.5t-53.5 -2t-53.5 2t-32.5 6.5t-19 12.5t-13 20q-8 15 -12.5 37.5t-7.5 61.5t-4 99.5t-1 152.5t1 152.5t4 99.5t7.5 61t12.5 37q6 12 13 20t19 12.5t32.5 6.5t53.5 2t53.5 -2t32.5 -6.5t19 -12.5t13 -20q7 -15 12 -37t8 -61
t4 -99.5t1 -152.5t-1 -152.5t-4 -99.5t-8 -61.5t-12 -37.5zM211 106q3 9 5 21t3.5 40t2 78t0.5 134q0 90 -0.5 141t-2 78.5t-3.5 38t-5 19.5q-6 17 -14.5 21.5t-29.5 4.5t-29.5 -4.5t-14.5 -21.5q-3 -9 -5 -19.5t-3.5 -38t-2 -78.5t-0.5 -141q0 -84 0.5 -134t2 -78t3.5 -40
t5 -21q6 -17 14.5 -21t29.5 -4t29.5 4t14.5 21z" />
    <glyph glyph-name="one" unicode="1" 
d="M36 0v94h88v463h-89v80h48q14 0 24 2t16 8t9 16.5t4 27.5l3 66h76v-663h84v-94h-263z" />
    <glyph glyph-name="two" unicode="2" 
d="M30 0v100l112 164q29 43 43.5 70.5t22.5 52.5q8 26 10.5 57t2.5 79q0 42 -0.5 67.5t-2 40t-4 21.5t-6.5 13q-6 10 -14.5 13.5t-27.5 3.5q-20 0 -28 -3.5t-14 -13.5q-3 -6 -5.5 -12.5t-4 -19t-2 -33t-0.5 -53.5v-49.5t1 -26.5h-84q-2 16 -2 31.5v44.5q0 37 1 65t3 49
t6.5 36t12.5 26q9 13 17.5 22t21.5 14.5t31.5 8t45.5 2.5q57 0 83 -11.5t40 -42.5q7 -14 11 -28.5t6 -35.5t3 -51.5t1 -76.5q0 -37 -0.5 -61.5t-2 -41.5t-4.5 -30t-8 -26q-5 -15 -11 -28.5t-14.5 -29t-20 -34.5t-27.5 -44l-87 -132q2 -4 2 -6h168v-91h-275z" />
    <glyph glyph-name="three" unicode="3" 
d="M261 388q13 -8 22.5 -16t15.5 -26.5t9 -51.5t3 -90q0 -43 -0.5 -70.5t-3 -46t-7 -30.5t-11.5 -25q-8 -13 -17 -21.5t-23 -14t-34 -7.5t-50 -2q-28 0 -47 3t-32.5 9t-22.5 15t-16 22q-8 14 -13 29t-7.5 35t-3 47.5t-0.5 67.5q0 20 0.5 30t1.5 17h83q-1 -8 -1 -17.5v-29.5
q0 -29 0.5 -48t1.5 -31t3 -19.5t5 -13.5q6 -14 15.5 -18t32.5 -4q26 0 35.5 4t16.5 19q3 6 4.5 12.5t2.5 18t1.5 30.5t0.5 51q0 34 -0.5 54.5t-1.5 32t-3 17.5t-6 11q-6 8 -16 10.5t-34 2.5h-61v89h61q26 0 34 3t13 15q3 6 4.5 13t2 17.5t1 26.5t0.5 42q0 31 -0.5 51
t-1.5 32t-2.5 19t-4.5 13q-6 13 -15.5 16t-30.5 3q-22 0 -30 -2.5t-16 -16.5q-4 -6 -6 -12.5t-3 -17t-1 -26.5v-40v-32.5t1 -21.5h-84q-1 8 -1 18.5v35.5q0 32 0.5 55.5t3 41.5t6.5 31.5t11 25.5q13 25 38.5 36t80.5 11q27 0 46.5 -2t33 -7t22.5 -14t17 -24q6 -12 10 -26
t6.5 -32t3 -43t0.5 -60q0 -45 -2 -74t-6.5 -47t-13 -28.5t-21.5 -18.5v-6z" />
    <glyph glyph-name="four" unicode="4" 
d="M188 0v153h-171v87l167 517h92v-524h40v-80h-40v-153h-88zM191 422q0 32 0.5 53.5t2.5 39.5h-8q-2 -9 -5 -21t-12 -40t-25 -78.5t-43 -136.5l3 -6h87v189z" />
    <glyph glyph-name="five" unicode="5" 
d="M111 290q-1 -10 -1.5 -22t-0.5 -29q0 -34 0.5 -55.5t2 -36t4 -24.5t7.5 -20q5 -12 14.5 -17t31.5 -5q21 0 28.5 5.5t12.5 16.5q4 10 6.5 21t3.5 31.5t1 55v92.5q0 37 -0.5 59.5t-2 36t-4 20t-6.5 11.5q-6 8 -13.5 11t-23.5 3q-15 0 -22.5 -2t-14.5 -7q-15 -11 -23 -28
l-73 22l17 328h246v-91h-167l-10 -166l5 -2q10 11 26.5 17.5t45.5 6.5t44 -6t29 -23q10 -12 17 -25.5t11 -34.5t5.5 -51.5t1.5 -75.5q0 -55 -1.5 -95.5t-4.5 -71t-8 -52.5t-12 -38q-14 -35 -41.5 -48.5t-80.5 -13.5q-39 0 -65 11t-41.5 38t-22.5 72.5t-7 113.5
q0 26 0.5 39.5t2.5 28.5h83z" />
    <glyph glyph-name="six" unicode="6" 
d="M220 549q1 7 1 14v17q0 34 -1 49t-4 26q-4 16 -13.5 21.5t-35.5 5.5q-21 0 -29.5 -5t-13.5 -19q-3 -9 -5.5 -20t-4 -32.5t-2 -58t-0.5 -96.5l4 -3q9 8 28 14.5t43 6.5q33 0 51 -5.5t34 -23.5q10 -11 17 -25t11.5 -35.5t6.5 -52t2 -74.5q0 -89 -5.5 -140t-22.5 -80
q-8 -14 -17.5 -22.5t-23 -14t-31 -7.5t-42.5 -2q-26 0 -44 1.5t-31 7t-22 14.5t-17 24q-10 19 -15.5 40t-8.5 57.5t-4 95t-1 152.5q0 138 3 216.5t17.5 117t43 48t79.5 9.5q38 0 64 -4t42 -22.5t23 -56.5t7 -106q0 -8 -0.5 -16t-0.5 -16h-82zM112 281q0 -50 0.5 -80.5
t1.5 -48.5t3.5 -27.5t5.5 -18.5q5 -14 16 -19.5t31 -5.5q19 0 27.5 5t13.5 20q3 9 5 18.5t3.5 26t2 44t0.5 71.5q0 30 -0.5 48.5t-2 30t-4 18.5t-5.5 14q-5 11 -14 14.5t-28 3.5q-16 0 -31 -5.5t-25 -19.5v-89z" />
    <glyph glyph-name="seven" unicode="7" 
d="M64 0l148 659l-3 7h-184v91h283v-65l-149 -692h-95z" />
    <glyph glyph-name="eight" unicode="8" 
d="M263 388q15 -6 25 -14t15 -27t7 -52.5t2 -90.5q0 -44 -0.5 -71.5t-2 -46t-6 -30t-11.5 -23.5q-8 -12 -17 -21t-23 -14.5t-34.5 -8t-50.5 -2.5t-50.5 2.5t-34.5 8t-23.5 14.5t-17.5 21t-12 23.5t-5.5 30t-2 46t-0.5 71.5q0 57 2 90.5t7 52.5t15 27t25 14v6q-15 10 -24 21
t-13 29.5t-5 46.5t-1 71q0 41 1 69.5t4 48.5t8 33.5t13 24.5q8 10 16.5 16.5t21 10t30.5 4.5t46 1t46 -1t30.5 -4.5t20.5 -10t16 -16.5q8 -11 13 -24.5t8 -33.5t4 -48.5t1 -69.5q0 -43 -1 -71t-5 -46.5t-13 -29.5t-24 -21v-6zM216 100q4 7 6 14t3 19t1.5 31t0.5 50
q0 33 -0.5 53.5t-1 33t-2 19.5t-3.5 12q-5 12 -15.5 15.5t-37.5 3.5t-38 -3.5t-16 -15.5q-2 -5 -3.5 -12t-2.5 -19.5t-1 -33v-53.5q0 -31 0.5 -50t1.5 -31t3 -19t6 -14q7 -12 17 -16t33 -4t32.5 4t16.5 16zM211 438q3 6 5 11.5t3 17t1.5 31.5t0.5 55q0 34 -0.5 54t-1.5 31.5
t-3.5 17.5t-5.5 13q-4 8 -11.5 12t-31.5 4t-32 -4t-12 -12q-3 -7 -5.5 -13t-3.5 -17.5t-1.5 -31.5t-0.5 -54q0 -35 0.5 -55t1.5 -31.5t3 -17t5 -11.5q4 -8 13 -9.5t32 -1.5t31.5 1.5t12.5 9.5z" />
    <glyph glyph-name="nine" unicode="9" 
d="M90 0v5q38 73 66.5 154t44.5 149l-7 4q-7 -8 -24.5 -15t-43.5 -7q-34 0 -52 8t-29 31q-7 15 -11 29.5t-6.5 35.5t-3 53t-0.5 82q0 49 0.5 81.5t3 55t6.5 36.5t10 26q7 14 16.5 22t23.5 12.5t34 6t48 1.5q30 0 50.5 -1.5t34.5 -6t23 -12.5t17 -22q6 -12 10 -26t6 -37
t2.5 -57t0.5 -85q0 -73 -8 -140t-23 -131t-37.5 -126.5t-51.5 -125.5h-100zM212 394q3 11 4.5 22t2.5 26t1.5 36t0.5 51q0 38 -1 62t-2.5 38.5t-4 22.5t-5.5 14q-7 11 -15 14t-28 3q-23 0 -30.5 -3t-13.5 -14q-3 -5 -5 -13t-2.5 -22t-1 -37.5t-0.5 -59.5q0 -42 0.5 -67
t1.5 -39.5t3 -22t5 -14.5q6 -12 13.5 -16t25.5 -4q19 0 31.5 7.5t19.5 15.5z" />
    <glyph glyph-name="colon" unicode=":" horiz-adv-x="173" 
d="M42 0v126h89v-126h-89zM42 409v126h89v-126h-89z" />
    <glyph glyph-name="semicolon" unicode=";" horiz-adv-x="175" 
d="M42 409v126h89v-126h-89zM45 -142v5l29 141l-2 6h-30v116h90v-122l-45 -146h-42z" />
    <glyph glyph-name="less" unicode="&#x3c;" 
d="M310 162l-291 184v67l291 184h5v-81l-227 -133v-8l227 -132v-81h-5z" />
    <glyph glyph-name="equal" unicode="=" 
d="M19 230v68h296v-68h-296zM19 460v68h296v-68h-296z" />
    <glyph glyph-name="greater" unicode="&#x3e;" 
d="M24 162h-5v81l227 132v8l-227 133v81h5l291 -184v-67z" />
    <glyph glyph-name="question" unicode="?" horiz-adv-x="308" 
d="M113 227q-2 9 -3 29.5t-1 62.5q0 27 3.5 43.5t13.5 30.5q11 17 26 34t29 35q8 10 12.5 17.5t7 18t3 26.5t0.5 43q0 30 -0.5 48t-1 29t-2 16t-3.5 9q-5 9 -12.5 11.5t-28.5 2.5q-22 0 -29 -3t-13 -11q-6 -9 -8 -24t-2 -56v-43t2 -24h-76q-2 11 -3 24t-1 43q0 38 1.5 63.5
t5 42.5t10 28.5t16.5 21.5q7 8 14.5 13t17.5 7.5t25.5 3.5t39.5 1q22 0 36.5 -1t24.5 -3.5t17 -7t15 -11.5q11 -11 18 -24t11 -32t5.5 -46t1.5 -66q0 -40 -1 -64.5t-4 -41t-9 -28.5t-16 -26q-11 -14 -28 -33t-25 -32q-9 -14 -12 -24t-3 -27q0 -31 0.5 -49.5t1.5 -26.5h-76z
M105 0v151h89v-151h-89z" />
    <glyph glyph-name="at" unicode="@" horiz-adv-x="489" 
d="M465 -13q1 -6 1.5 -12t0.5 -18q0 -39 -4 -62.5t-22 -46.5q-11 -14 -26 -25t-37 -18.5t-53.5 -11.5t-74.5 -4q-44 0 -75.5 3.5t-53.5 12.5t-36.5 24t-25.5 38q-5 10 -9 21.5t-7.5 28.5t-5.5 43t-3.5 65t-2.5 94.5t-1 131.5q0 106 2 171t6.5 103.5t11.5 58t16 34.5
q23 37 66.5 50t115.5 13q33 0 58 -2.5t43.5 -7t32 -12.5t24.5 -18q14 -14 23.5 -31.5t15.5 -52.5t9 -94.5t3 -155.5q0 -77 -0.5 -121t-2 -68t-4 -34.5t-7.5 -19.5q-10 -18 -24 -24t-48 -6q-19 0 -31.5 3t-20 7t-11.5 9t-7 9h-8q-9 -11 -22.5 -19.5t-39.5 -8.5q-18 0 -30.5 4
t-21.5 17q-6 9 -9.5 17.5t-5.5 28t-2.5 54.5t-0.5 96q0 60 0.5 95.5t2.5 56t5.5 29.5t9.5 17q11 14 21.5 18t30.5 4q15 0 26 -9t17 -22h5l4 21h56v-342q0 -11 1 -16.5t5 -10.5q3 -4 7.5 -5.5t13.5 -1.5q16 0 20 7q2 4 3.5 9.5t2 26.5t0.5 63.5v119.5q0 83 -1.5 131.5
t-4.5 75t-8.5 37.5t-12.5 20q-8 9 -16.5 14.5t-21 9.5t-32 5.5t-47.5 1.5q-27 0 -45.5 -1.5t-30.5 -5.5t-19.5 -9.5t-14.5 -14.5q-8 -11 -13 -25t-7.5 -47t-3.5 -92t-1 -160q0 -95 0.5 -152t2.5 -91t5.5 -50.5t9.5 -30.5t14.5 -24t23 -16.5t36 -9.5t54.5 -3q25 0 42 0.5
t29.5 3t21.5 7t18 12.5q18 17 18 66v13t-1 11h78zM278 381q-5 14 -10.5 19t-18.5 5q-6 0 -10.5 -2t-7.5 -10q-2 -4 -3 -9.5t-1.5 -20t-1 -41t-0.5 -71.5q0 -72 2 -103.5t5 -43.5q2 -9 7 -11.5t13 -2.5q17 0 26 16v275z" />
    <glyph glyph-name="A" unicode="A" horiz-adv-x="327" 
d="M220 0l-17 206h-81l-17 -206h-89l75 757h150l70 -757h-91zM175 577q-2 23 -4 45t-4 45h-7q-2 -23 -4 -45t-4 -45l-26 -284h73z" />
    <glyph glyph-name="B" unicode="B" horiz-adv-x="339" 
d="M33 0v757h157q34 0 58 -9t38 -31.5t20.5 -62.5t6.5 -101q0 -45 -2.5 -73.5t-7.5 -45t-13 -25.5t-19 -15v-6q15 -9 25 -18t15 -27t7 -50.5t2 -88.5q0 -61 -6.5 -100.5t-21 -62.5t-37.5 -32t-55 -9h-167zM184 86q13 0 22 4.5t14.5 18.5t7.5 39t2 66q0 47 -2.5 74t-8.5 41
t-15.5 18t-24.5 4h-58v-265h63zM175 423q15 0 25 4.5t15 17.5t7 36.5t2 61.5q0 28 -0.5 45t-1.5 28t-2.5 18t-3.5 13q-5 14 -15 19.5t-24 5.5h-56v-249h54z" />
    <glyph glyph-name="C" unicode="C" 
d="M305 290q2 -17 2 -34v-34q0 -59 -6.5 -103t-22 -73.5t-41.5 -44t-66 -14.5q-53 0 -80 13.5t-41 48.5q-7 16 -12 38t-8 59t-4.5 94t-1.5 145q0 101 2.5 160.5t6.5 92.5t9 47t9 24q14 33 38.5 47t77.5 14q37 0 59 -6.5t38 -22.5q20 -20 31 -70t11 -124q0 -20 -0.5 -35
t-1.5 -32h-84q1 16 1 28v37q0 46 -3.5 74t-10.5 42q-6 13 -15 17t-25 4q-20 0 -29 -7t-14 -25q-3 -12 -5.5 -26.5t-4 -42.5t-2 -74.5t-0.5 -120.5q0 -75 0.5 -123t2 -77t4 -45t5.5 -28q5 -17 14.5 -24.5t32.5 -7.5q18 0 27.5 10.5t14.5 30.5t7.5 46.5t2.5 61.5v31t-1 29h83z
" />
    <glyph glyph-name="D" unicode="D" horiz-adv-x="347" 
d="M33 0v757h147q51 0 77 -13t41 -47q7 -17 12 -36.5t8 -53.5t4 -88t1 -140q0 -89 -1.5 -144t-4.5 -88.5t-7.5 -52.5t-11.5 -35q-14 -34 -40 -46.5t-78 -12.5h-147zM178 93q20 0 29.5 6.5t14.5 23.5q3 11 5.5 25t3.5 41t1.5 72t0.5 119q0 72 -0.5 116.5t-1.5 72t-3 42
t-6 25.5q-6 17 -15.5 24t-28.5 7h-57v-574h57z" />
    <glyph glyph-name="E" unicode="E" horiz-adv-x="294" 
d="M33 0v757h234v-90h-146v-238h144v-86h-144v-249h145v-94h-233z" />
    <glyph glyph-name="F" unicode="F" horiz-adv-x="280" 
d="M33 0v757h231v-90h-143v-247h140v-87h-140v-333h-88z" />
    <glyph glyph-name="G" unicode="G" horiz-adv-x="331" 
d="M150 334v86h157q1 -19 1.5 -49t0.5 -75q0 -62 -1.5 -103t-5 -68t-8 -44t-10.5 -32q-14 -35 -40 -48.5t-77 -13.5t-77 13.5t-40 48.5q-7 17 -12 37.5t-8 56.5t-4.5 93t-1.5 149q0 88 1.5 143t4.5 89.5t8 53.5t11 34q15 38 41.5 51.5t76.5 13.5q56 0 82 -17t37 -48
q13 -34 16 -70t3 -70v-23t-1 -16h-84q1 7 1 15.5v23.5q0 19 -1.5 38.5t-6.5 42.5q-4 17 -13.5 26.5t-32.5 9.5q-20 0 -30 -8t-15 -29q-3 -10 -5 -23.5t-3.5 -41.5t-2.5 -74t-1 -120q0 -78 1 -126t3 -76.5t4.5 -43t5.5 -26.5q5 -19 13.5 -26.5t31.5 -7.5q20 0 30 7.5t15 25.5
q3 11 5.5 24.5t4 32t2.5 44.5t1 62v36t-1 22h-76z" />
    <glyph glyph-name="H" unicode="H" horiz-adv-x="357" 
d="M235 0v343h-113v-343h-91v757h91v-328h113v328h90v-757h-90z" />
    <glyph glyph-name="I" unicode="I" horiz-adv-x="159" 
d="M34 0v757h91v-757h-91z" />
    <glyph glyph-name="J" unicode="J" horiz-adv-x="326" 
d="M208 757h91v-367q0 -86 -1.5 -143t-4.5 -94t-8 -59.5t-12 -40.5q-7 -17 -15.5 -29.5t-22 -20.5t-33 -12t-49.5 -4q-58 0 -85 20.5t-40 68.5q-3 13 -5.5 26t-4 29.5t-2 38.5t-0.5 52q0 26 0.5 40t2.5 28h80q-1 -8 -1 -21v-47q0 -32 3 -63.5t9 -49.5q5 -14 12.5 -21
t28.5 -7q23 0 31 7.5t13 24.5q3 12 5.5 29t4 47t2.5 77.5t1 121.5v369z" />
    <glyph glyph-name="K" unicode="K" horiz-adv-x="356" 
d="M246 0q-27 85 -46 144.5t-32 100t-20.5 64.5t-11 37.5t-5 19t-2.5 9.5h-7q1 -12 1 -25v-41v-309h-90v757h90v-264v-40t-1 -24h7q1 5 4.5 14.5t14.5 41.5t33.5 95.5t63.5 176.5h92v-5l-126 -342l132 -406v-4h-97z" />
    <glyph glyph-name="L" unicode="L" horiz-adv-x="268" 
d="M33 0v757h88v-663h135v-94h-223z" />
    <glyph glyph-name="M" unicode="M" horiz-adv-x="482" 
d="M371 0v492v53.5t1 46.5h-5q-1 -7 -2.5 -16.5t-5 -31.5t-10.5 -60t-18.5 -101.5t-28 -157t-40.5 -225.5h-42l-41 225.5t-28.5 157t-18.5 102t-10.5 60t-5 31t-2.5 16.5h-5q1 -20 1 -46.5v-53.5v-492h-79v757h142q20 -130 32 -209t19 -125t9.5 -68t4.5 -39h5q1 17 4 39
t10 68t19.5 125t32.5 209h141v-757h-79z" />
    <glyph glyph-name="N" unicode="N" horiz-adv-x="350" 
d="M273 0q-33 110 -57 189t-40.5 134t-26.5 90t-16.5 57t-10 34.5t-5.5 22.5h-5q1 -32 1 -67v-77v-383h-81v757h102q22 -84 38 -143.5t26.5 -100t17 -65t10 -39t5 -22t2.5 -13.5h5q-1 19 -1 39v54v290h82v-757h-46z" />
    <glyph glyph-name="O" unicode="O" 
d="M50 49q-7 17 -12 37.5t-8 55.5t-4.5 91.5t-1.5 145.5t1.5 145t4.5 91t8 55t12 38q14 35 40 48.5t77 13.5t77 -13.5t40 -48.5q7 -18 12 -38t8 -55t4.5 -91t1.5 -145t-1.5 -145.5t-4.5 -91.5t-8 -55.5t-12 -37.5q-14 -35 -40 -48.5t-77 -13.5t-77 13.5t-40 48.5zM210 113
q3 12 5 26t3.5 41.5t2.5 74.5t1 126t-0.5 126.5t-2 75t-3.5 41t-5 25.5q-5 18 -14.5 25.5t-29.5 7.5t-29 -7.5t-14 -24.5q-3 -12 -5.5 -26t-4 -41.5t-2 -75t-0.5 -126.5t0.5 -126t2 -74.5t4 -41.5t5.5 -26q5 -18 14 -25t29 -7t29 7t14 25z" />
    <glyph glyph-name="P" unicode="P" horiz-adv-x="332" 
d="M33 0v757h157q36 0 59 -12t37 -41t19.5 -77.5t5.5 -121.5q0 -72 -5.5 -121.5t-19 -80t-37.5 -44.5t-60 -14h-68v-245h-88zM175 333q12 0 20.5 8t14.5 27.5t9 53t3 85.5q0 51 -3 83t-9 49t-15 23t-21 6h-53v-335h54z" />
    <glyph glyph-name="Q" unicode="Q" 
d="M197 -91q-7 11 -15 33.5t-23 70.5q-48 1 -72 14.5t-37 45.5q-7 16 -12 36t-8 54t-4.5 88.5t-1.5 140.5t1.5 140.5t4.5 88t8 53t12 36.5q14 34 40 47t77 13t77 -13t40 -47q7 -17 12 -36.5t8 -53t4.5 -88t1.5 -140.5t-1.5 -140.5t-4.5 -88.5t-8 -54t-12 -36
q-15 -34 -42 -48q15 -52 25.5 -75.5t18.5 -35.5v-5h-89zM210 131q3 12 5 25.5t3.5 40t2.5 72t1 122.5q0 76 -0.5 122t-2 72.5t-3.5 39.5t-5 25q-5 17 -14.5 24.5t-29.5 7.5t-29 -7t-14 -24q-3 -12 -5.5 -25t-4 -40t-2 -73t-0.5 -122q0 -77 0.5 -122.5t2 -72.5t4 -40t5.5 -25
q5 -17 14 -24t29 -7t29 7t14 24z" />
    <glyph glyph-name="R" unicode="R" horiz-adv-x="341" 
d="M232 0q-3 6 -5 12.5t-3.5 18.5t-3 32.5t-3.5 54.5q-2 38 -4.5 76.5t-7.5 76.5q-5 31 -13.5 40t-28.5 9h-42v-320h-88v757h160q35 0 54 -8.5t33 -26.5q9 -12 15.5 -26.5t10.5 -34.5t5.5 -46.5t1.5 -61.5q0 -36 -1 -60.5t-3.5 -42t-5.5 -29.5t-7 -22q-7 -17 -16.5 -26
t-20.5 -14v-5q10 -5 19.5 -18.5t13.5 -44.5q7 -52 11.5 -105.5t7.5 -111.5q2 -23 4.5 -39t7.5 -31v-4h-91zM161 401q18 0 30 5t20 22q4 8 6 16t3.5 21.5t2 34t0.5 53.5q0 25 -0.5 41.5t-1.5 27t-3.5 17t-5.5 11.5q-12 19 -35 19h-56v-268h40z" />
    <glyph glyph-name="S" unicode="S" horiz-adv-x="311" 
d="M103 253q-2 -11 -2.5 -25t-0.5 -35q0 -44 2 -63.5t9 -32.5q6 -11 14 -15.5t25 -4.5q20 0 28.5 4.5t15.5 17.5q7 14 9 36t2 72v32t-1 21.5t-2 15t-3 14.5q-4 14 -10.5 21t-21.5 18q-12 9 -27 18.5t-30 19.5t-29 20.5t-24 20.5t-17 22.5t-11 32.5t-6 51t-2 79
q0 63 7.5 94.5t25.5 51.5q16 17 37 24t60 7q46 0 69.5 -10t36.5 -27q14 -19 19 -46.5t5 -78.5q0 -32 -1.5 -52.5t-4.5 -33.5h-75q2 10 2.5 24.5t0.5 37.5q0 38 -3 56.5t-11 29.5q-6 8 -14 10.5t-24 2.5t-23.5 -3t-13.5 -12q-7 -11 -9.5 -29t-2.5 -58v-37.5t0.5 -24t2 -16
t3.5 -13.5q5 -13 10 -19.5t21 -18.5q18 -14 43.5 -28t48.5 -31q18 -13 26.5 -21.5t16.5 -24.5q4 -9 7 -18t4.5 -24t2 -38.5t0.5 -60.5q0 -39 -2 -66.5t-5.5 -47t-8.5 -33t-11 -25.5q-12 -23 -38 -35t-74 -12q-41 0 -64.5 9t-37.5 35q-6 11 -11 23t-8 28t-4.5 38t-1.5 54
q0 26 1.5 45.5t3.5 33.5h76z" />
    <glyph glyph-name="T" unicode="T" horiz-adv-x="300" 
d="M106 0v667h-94v90h276v-90h-93v-667h-89z" />
    <glyph glyph-name="U" unicode="U" horiz-adv-x="341" 
d="M225 757h88v-547q0 -38 -0.5 -64t-2 -45t-5.5 -33t-11 -28q-15 -30 -42.5 -41.5t-80.5 -11.5q-54 0 -81.5 11.5t-42.5 41.5q-7 14 -11 28t-6 33t-2.5 45t-0.5 64v547h91v-547q0 -30 0.5 -48.5t1.5 -30.5t3.5 -19t6.5 -14q6 -10 15.5 -13.5t26.5 -3.5t26 3.5t15 13.5
q4 7 6.5 14t3.5 19t1.5 30.5t0.5 48.5v547z" />
    <glyph glyph-name="V" unicode="V" 
d="M95 0l-79 757h95q11 -136 19.5 -233.5t14 -165.5t9.5 -110.5t6 -69t2.5 -41.5t1.5 -27h7q0 12 1 27t3.5 41.5t6 69t9 110.5t14 165.5t19.5 233.5h93l-82 -757h-140z" />
    <glyph glyph-name="W" unicode="W" horiz-adv-x="522" 
d="M316 0q-11 119 -19 204t-13.5 144t-8.5 96t-5 60t-3 36t-1 24h-7q0 -11 -1 -24t-3 -36t-5.5 -60t-9 -96t-14 -144t-19.5 -204h-129l-60 757h89q9 -137 15 -234.5t10.5 -164.5t7 -108t4 -65.5t2.5 -37.5t1 -23h8q0 10 1 23t3.5 37.5t7 65.5t11 108t17 164t24.5 235h88
q14 -137 24.5 -234.5t17.5 -164.5t11.5 -108t7 -65.5t3 -37.5t1.5 -23h8q0 10 0.5 23t2 37.5t4 65.5t6.5 108t10.5 164t15.5 235h85l-59 -757h-129z" />
    <glyph glyph-name="X" unicode="X" horiz-adv-x="341" 
d="M232 0q-19 101 -30.5 161.5t-17.5 95t-8.5 49.5t-3.5 26h-7q-1 -11 -3.5 -26t-8.5 -49.5t-18 -95t-31 -161.5h-91v5l89 400l-75 347v5h91q16 -87 25.5 -139.5t15 -82t7 -42t2.5 -21.5h7q1 9 3 21.5t7.5 42t16 82t27.5 139.5h86v-5l-77 -345l88 -402v-5h-94z" />
    <glyph glyph-name="Y" unicode="Y" horiz-adv-x="325" 
d="M116 0v330l-107 422v5h89q19 -88 30.5 -141t17.5 -83.5t8.5 -44t4.5 -22.5h7q1 9 4 22.5t9.5 44t18 83.5t31.5 141h87v-5l-105 -421v-331h-95z" />
    <glyph glyph-name="Z" unicode="Z" horiz-adv-x="335" 
d="M23 0v104l186 556l-3 6h-177v91h287v-49l-204 -608l3 -6h196v-94h-288z" />
    <glyph glyph-name="bracketleft" unicode="[" 
d="M102 -238v1200h189v-69h-121v-1062h121v-69h-189z" />
    <glyph glyph-name="backslash" unicode="\" 
d="M259 -153l-251 1001h67l251 -1001h-67z" />
    <glyph glyph-name="bracketright" unicode="]" 
d="M42 -238v69h121v1062h-121v69h189v-1200h-189z" />
    <glyph glyph-name="asciicircum" unicode="^" 
d="M247 334l-76 317h-7l-77 -317h-68v5l115 418h66l115 -418v-5h-68z" />
    <glyph glyph-name="underscore" unicode="_" 
d="M9 -134v72h316v-72h-316z" />
    <glyph glyph-name="grave" unicode="`" horiz-adv-x="228" 
d="M126 592l-96 168v5h81l81 -169v-4h-66z" />
    <glyph glyph-name="a" unicode="a" horiz-adv-x="327" 
d="M16 0zM220 0l-17 206h-81l-17 -206h-89l75 757h150l70 -757h-91zM175 577q-2 23 -4 45t-4 45h-7q-2 -23 -4 -45t-4 -45l-26 -284h73z" />
    <glyph glyph-name="b" unicode="b" horiz-adv-x="339" 
d="M33 0zM33 0v757h157q34 0 58 -9t38 -31.5t20.5 -62.5t6.5 -101q0 -45 -2.5 -73.5t-7.5 -45t-13 -25.5t-19 -15v-6q15 -9 25 -18t15 -27t7 -50.5t2 -88.5q0 -61 -6.5 -100.5t-21 -62.5t-37.5 -32t-55 -9h-167zM184 86q13 0 22 4.5t14.5 18.5t7.5 39t2 66q0 47 -2.5 74
t-8.5 41t-15.5 18t-24.5 4h-58v-265h63zM175 423q15 0 25 4.5t15 17.5t7 36.5t2 61.5q0 28 -0.5 45t-1.5 28t-2.5 18t-3.5 13q-5 14 -15 19.5t-24 5.5h-56v-249h54z" />
    <glyph glyph-name="c" unicode="c" 
d="M24 0zM305 290q2 -17 2 -34v-34q0 -59 -6.5 -103t-22 -73.5t-41.5 -44t-66 -14.5q-53 0 -80 13.5t-41 48.5q-7 16 -12 38t-8 59t-4.5 94t-1.5 145q0 101 2.5 160.5t6.5 92.5t9 47t9 24q14 33 38.5 47t77.5 14q37 0 59 -6.5t38 -22.5q20 -20 31 -70t11 -124
q0 -20 -0.5 -35t-1.5 -32h-84q1 16 1 28v37q0 46 -3.5 74t-10.5 42q-6 13 -15 17t-25 4q-20 0 -29 -7t-14 -25q-3 -12 -5.5 -26.5t-4 -42.5t-2 -74.5t-0.5 -120.5q0 -75 0.5 -123t2 -77t4 -45t5.5 -28q5 -17 14.5 -24.5t32.5 -7.5q18 0 27.5 10.5t14.5 30.5t7.5 46.5
t2.5 61.5v31t-1 29h83z" />
    <glyph glyph-name="d" unicode="d" horiz-adv-x="347" 
d="M33 0zM33 0v757h147q51 0 77 -13t41 -47q7 -17 12 -36.5t8 -53.5t4 -88t1 -140q0 -89 -1.5 -144t-4.5 -88.5t-7.5 -52.5t-11.5 -35q-14 -34 -40 -46.5t-78 -12.5h-147zM178 93q20 0 29.5 6.5t14.5 23.5q3 11 5.5 25t3.5 41t1.5 72t0.5 119q0 72 -0.5 116.5t-1.5 72t-3 42
t-6 25.5q-6 17 -15.5 24t-28.5 7h-57v-574h57z" />
    <glyph glyph-name="e" unicode="e" horiz-adv-x="294" 
d="M33 0zM33 0v757h234v-90h-146v-238h144v-86h-144v-249h145v-94h-233z" />
    <glyph glyph-name="f" unicode="f" horiz-adv-x="280" 
d="M33 0zM33 0v757h231v-90h-143v-247h140v-87h-140v-333h-88z" />
    <glyph glyph-name="g" unicode="g" horiz-adv-x="331" 
d="M24 0zM150 334v86h157q1 -19 1.5 -49t0.5 -75q0 -62 -1.5 -103t-5 -68t-8 -44t-10.5 -32q-14 -35 -40 -48.5t-77 -13.5t-77 13.5t-40 48.5q-7 17 -12 37.5t-8 56.5t-4.5 93t-1.5 149q0 88 1.5 143t4.5 89.5t8 53.5t11 34q15 38 41.5 51.5t76.5 13.5q56 0 82 -17t37 -48
q13 -34 16 -70t3 -70v-23t-1 -16h-84q1 7 1 15.5v23.5q0 19 -1.5 38.5t-6.5 42.5q-4 17 -13.5 26.5t-32.5 9.5q-20 0 -30 -8t-15 -29q-3 -10 -5 -23.5t-3.5 -41.5t-2.5 -74t-1 -120q0 -78 1 -126t3 -76.5t4.5 -43t5.5 -26.5q5 -19 13.5 -26.5t31.5 -7.5q20 0 30 7.5t15 25.5
q3 11 5.5 24.5t4 32t2.5 44.5t1 62v36t-1 22h-76z" />
    <glyph glyph-name="h" unicode="h" horiz-adv-x="357" 
d="M31 0zM235 0v343h-113v-343h-91v757h91v-328h113v328h90v-757h-90z" />
    <glyph glyph-name="i" unicode="i" horiz-adv-x="159" 
d="M34 0zM34 0v757h91v-757h-91z" />
    <glyph glyph-name="j" unicode="j" horiz-adv-x="326" 
d="M16 0zM208 757h91v-367q0 -86 -1.5 -143t-4.5 -94t-8 -59.5t-12 -40.5q-7 -17 -15.5 -29.5t-22 -20.5t-33 -12t-49.5 -4q-58 0 -85 20.5t-40 68.5q-3 13 -5.5 26t-4 29.5t-2 38.5t-0.5 52q0 26 0.5 40t2.5 28h80q-1 -8 -1 -21v-47q0 -32 3 -63.5t9 -49.5q5 -14 12.5 -21
t28.5 -7q23 0 31 7.5t13 24.5q3 12 5.5 29t4 47t2.5 77.5t1 121.5v369z" />
    <glyph glyph-name="k" unicode="k" horiz-adv-x="356" 
d="M33 0zM246 0q-27 85 -46 144.5t-32 100t-20.5 64.5t-11 37.5t-5 19t-2.5 9.5h-7q1 -12 1 -25v-41v-309h-90v757h90v-264v-40t-1 -24h7q1 5 4.5 14.5t14.5 41.5t33.5 95.5t63.5 176.5h92v-5l-126 -342l132 -406v-4h-97z" />
    <glyph glyph-name="l" unicode="l" horiz-adv-x="268" 
d="M33 0zM33 0v757h88v-663h135v-94h-223z" />
    <glyph glyph-name="m" unicode="m" horiz-adv-x="482" 
d="M31 0zM371 0v492v53.5t1 46.5h-5q-1 -7 -2.5 -16.5t-5 -31.5t-10.5 -60t-18.5 -101.5t-28 -157t-40.5 -225.5h-42l-41 225.5t-28.5 157t-18.5 102t-10.5 60t-5 31t-2.5 16.5h-5q1 -20 1 -46.5v-53.5v-492h-79v757h142q20 -130 32 -209t19 -125t9.5 -68t4.5 -39h5
q1 17 4 39t10 68t19.5 125t32.5 209h141v-757h-79z" />
    <glyph glyph-name="n" unicode="n" horiz-adv-x="350" 
d="M32 0zM273 0q-33 110 -57 189t-40.5 134t-26.5 90t-16.5 57t-10 34.5t-5.5 22.5h-5q1 -32 1 -67v-77v-383h-81v757h102q22 -84 38 -143.5t26.5 -100t17 -65t10 -39t5 -22t2.5 -13.5h5q-1 19 -1 39v54v290h82v-757h-46z" />
    <glyph glyph-name="o" unicode="o" 
d="M24 0zM50 49q-7 17 -12 37.5t-8 55.5t-4.5 91.5t-1.5 145.5t1.5 145t4.5 91t8 55t12 38q14 35 40 48.5t77 13.5t77 -13.5t40 -48.5q7 -18 12 -38t8 -55t4.5 -91t1.5 -145t-1.5 -145.5t-4.5 -91.5t-8 -55.5t-12 -37.5q-14 -35 -40 -48.5t-77 -13.5t-77 13.5t-40 48.5z
M210 113q3 12 5 26t3.5 41.5t2.5 74.5t1 126t-0.5 126.5t-2 75t-3.5 41t-5 25.5q-5 18 -14.5 25.5t-29.5 7.5t-29 -7.5t-14 -24.5q-3 -12 -5.5 -26t-4 -41.5t-2 -75t-0.5 -126.5t0.5 -126t2 -74.5t4 -41.5t5.5 -26q5 -18 14 -25t29 -7t29 7t14 25z" />
    <glyph glyph-name="p" unicode="p" horiz-adv-x="332" 
d="M33 0zM33 0v757h157q36 0 59 -12t37 -41t19.5 -77.5t5.5 -121.5q0 -72 -5.5 -121.5t-19 -80t-37.5 -44.5t-60 -14h-68v-245h-88zM175 333q12 0 20.5 8t14.5 27.5t9 53t3 85.5q0 51 -3 83t-9 49t-15 23t-21 6h-53v-335h54z" />
    <glyph glyph-name="q" unicode="q" 
d="M24 0zM197 -91q-7 11 -15 33.5t-23 70.5q-48 1 -72 14.5t-37 45.5q-7 16 -12 36t-8 54t-4.5 88.5t-1.5 140.5t1.5 140.5t4.5 88t8 53t12 36.5q14 34 40 47t77 13t77 -13t40 -47q7 -17 12 -36.5t8 -53t4.5 -88t1.5 -140.5t-1.5 -140.5t-4.5 -88.5t-8 -54t-12 -36
q-15 -34 -42 -48q15 -52 25.5 -75.5t18.5 -35.5v-5h-89zM210 131q3 12 5 25.5t3.5 40t2.5 72t1 122.5q0 76 -0.5 122t-2 72.5t-3.5 39.5t-5 25q-5 17 -14.5 24.5t-29.5 7.5t-29 -7t-14 -24q-3 -12 -5.5 -25t-4 -40t-2 -73t-0.5 -122q0 -77 0.5 -122.5t2 -72.5t4 -40t5.5 -25
q5 -17 14 -24t29 -7t29 7t14 24z" />
    <glyph glyph-name="r" unicode="r" horiz-adv-x="341" 
d="M33 0zM232 0q-3 6 -5 12.5t-3.5 18.5t-3 32.5t-3.5 54.5q-2 38 -4.5 76.5t-7.5 76.5q-5 31 -13.5 40t-28.5 9h-42v-320h-88v757h160q35 0 54 -8.5t33 -26.5q9 -12 15.5 -26.5t10.5 -34.5t5.5 -46.5t1.5 -61.5q0 -36 -1 -60.5t-3.5 -42t-5.5 -29.5t-7 -22
q-7 -17 -16.5 -26t-20.5 -14v-5q10 -5 19.5 -18.5t13.5 -44.5q7 -52 11.5 -105.5t7.5 -111.5q2 -23 4.5 -39t7.5 -31v-4h-91zM161 401q18 0 30 5t20 22q4 8 6 16t3.5 21.5t2 34t0.5 53.5q0 25 -0.5 41.5t-1.5 27t-3.5 17t-5.5 11.5q-12 19 -35 19h-56v-268h40z" />
    <glyph glyph-name="s" unicode="s" horiz-adv-x="311" 
d="M21 0zM103 253q-2 -11 -2.5 -25t-0.5 -35q0 -44 2 -63.5t9 -32.5q6 -11 14 -15.5t25 -4.5q20 0 28.5 4.5t15.5 17.5q7 14 9 36t2 72v32t-1 21.5t-2 15t-3 14.5q-4 14 -10.5 21t-21.5 18q-12 9 -27 18.5t-30 19.5t-29 20.5t-24 20.5t-17 22.5t-11 32.5t-6 51t-2 79
q0 63 7.5 94.5t25.5 51.5q16 17 37 24t60 7q46 0 69.5 -10t36.5 -27q14 -19 19 -46.5t5 -78.5q0 -32 -1.5 -52.5t-4.5 -33.5h-75q2 10 2.5 24.5t0.5 37.5q0 38 -3 56.5t-11 29.5q-6 8 -14 10.5t-24 2.5t-23.5 -3t-13.5 -12q-7 -11 -9.5 -29t-2.5 -58v-37.5t0.5 -24t2 -16
t3.5 -13.5q5 -13 10 -19.5t21 -18.5q18 -14 43.5 -28t48.5 -31q18 -13 26.5 -21.5t16.5 -24.5q4 -9 7 -18t4.5 -24t2 -38.5t0.5 -60.5q0 -39 -2 -66.5t-5.5 -47t-8.5 -33t-11 -25.5q-12 -23 -38 -35t-74 -12q-41 0 -64.5 9t-37.5 35q-6 11 -11 23t-8 28t-4.5 38t-1.5 54
q0 26 1.5 45.5t3.5 33.5h76z" />
    <glyph glyph-name="t" unicode="t" horiz-adv-x="300" 
d="M12 0zM106 0v667h-94v90h276v-90h-93v-667h-89z" />
    <glyph glyph-name="u" unicode="u" horiz-adv-x="341" 
d="M27 0zM225 757h88v-547q0 -38 -0.5 -64t-2 -45t-5.5 -33t-11 -28q-15 -30 -42.5 -41.5t-80.5 -11.5q-54 0 -81.5 11.5t-42.5 41.5q-7 14 -11 28t-6 33t-2.5 45t-0.5 64v547h91v-547q0 -30 0.5 -48.5t1.5 -30.5t3.5 -19t6.5 -14q6 -10 15.5 -13.5t26.5 -3.5t26 3.5
t15 13.5q4 7 6.5 14t3.5 19t1.5 30.5t0.5 48.5v547z" />
    <glyph glyph-name="v" unicode="v" 
d="M16 0zM95 0l-79 757h95q11 -136 19.5 -233.5t14 -165.5t9.5 -110.5t6 -69t2.5 -41.5t1.5 -27h7q0 12 1 27t3.5 41.5t6 69t9 110.5t14 165.5t19.5 233.5h93l-82 -757h-140z" />
    <glyph glyph-name="w" unicode="w" horiz-adv-x="522" 
d="M18 0zM316 0q-11 119 -19 204t-13.5 144t-8.5 96t-5 60t-3 36t-1 24h-7q0 -11 -1 -24t-3 -36t-5.5 -60t-9 -96t-14 -144t-19.5 -204h-129l-60 757h89q9 -137 15 -234.5t10.5 -164.5t7 -108t4 -65.5t2.5 -37.5t1 -23h8q0 10 1 23t3.5 37.5t7 65.5t11 108t17 164t24.5 235
h88q14 -137 24.5 -234.5t17.5 -164.5t11.5 -108t7 -65.5t3 -37.5t1.5 -23h8q0 10 0.5 23t2 37.5t4 65.5t6.5 108t10.5 164t15.5 235h85l-59 -757h-129z" />
    <glyph glyph-name="x" unicode="x" horiz-adv-x="341" 
d="M13 0zM232 0q-19 101 -30.5 161.5t-17.5 95t-8.5 49.5t-3.5 26h-7q-1 -11 -3.5 -26t-8.5 -49.5t-18 -95t-31 -161.5h-91v5l89 400l-75 347v5h91q16 -87 25.5 -139.5t15 -82t7 -42t2.5 -21.5h7q1 9 3 21.5t7.5 42t16 82t27.5 139.5h86v-5l-77 -345l88 -402v-5h-94z" />
    <glyph glyph-name="y" unicode="y" horiz-adv-x="325" 
d="M9 0zM116 0v330l-107 422v5h89q19 -88 30.5 -141t17.5 -83.5t8.5 -44t4.5 -22.5h7q1 9 4 22.5t9.5 44t18 83.5t31.5 141h87v-5l-105 -421v-331h-95z" />
    <glyph glyph-name="z" unicode="z" horiz-adv-x="335" 
d="M23 0zM23 0v104l186 556l-3 6h-177v91h287v-49l-204 -608l3 -6h196v-94h-288z" />
    <glyph glyph-name="braceleft" unicode="{" 
d="M224 -238q-53 0 -75 27t-22 91q0 56 4 109t9 102t9 94t4 85q0 39 -10.5 48.5t-36.5 9.5h-36v68h36q26 0 36.5 9.5t10.5 48.5q0 40 -4 85t-9 94t-9 102t-4 109q0 64 22 91t75 27h79v-69h-70q-20 0 -29 -11.5t-9 -37.5q0 -48 4 -98.5t9.5 -100t9.5 -98t4 -93.5
q0 -37 -11 -57.5t-31 -31.5v-6q20 -11 31 -31.5t11 -57.5q0 -45 -4 -93.5t-9.5 -98t-9.5 -100t-4 -98.5q0 -26 9 -37.5t29 -11.5h70v-69h-79z" />
    <glyph glyph-name="bar" unicode="|" 
d="M132 -238v1200h69v-1200h-69z" />
    <glyph glyph-name="braceright" unicode="}" 
d="M30 -238v69h70q20 0 29 11.5t9 37.5q0 48 -4 98.5t-9.5 100t-9.5 98t-4 93.5q0 37 11 57.5t31 31.5v6q-20 11 -31 31.5t-11 57.5q0 45 4 93.5t9.5 98t9.5 100t4 98.5q0 26 -9 37.5t-29 11.5h-70v69h79q53 0 75 -27t22 -91q0 -56 -4 -109t-9 -102t-9 -94t-4 -85
q0 -39 10.5 -48.5t36.5 -9.5h36v-68h-36q-26 0 -36.5 -9.5t-10.5 -48.5q0 -40 4 -85t9 -94t9 -102t4 -109q0 -64 -22 -91t-75 -27h-79z" />
    <glyph glyph-name="asciitilde" unicode="~" 
d="M315 369q-29 -45 -79 -45q-23 0 -42.5 7t-36.5 18q-20 13 -33 17.5t-30 4.5q-41 0 -69 -47h-6v71q11 19 29 32t43 13t45.5 -7.5t37.5 -18.5q21 -14 34 -18t30 -4q20 0 38.5 11.5t32.5 34.5h6v-69z" />
    <glyph glyph-name="nonbreakingspace" unicode="&#xa0;" horiz-adv-x="148" 
 />
    <glyph glyph-name="exclamdown" unicode="&#xa1;" horiz-adv-x="166" 
d="M33 -228l16 561h68l16 -561h-100zM39 409v151h88v-151h-88z" />
    <glyph glyph-name="cent" unicode="&#xa2;" 
d="M140 -43v124q-35 2 -55.5 12.5t-31.5 33.5q-6 12 -11 29.5t-8 46.5t-4.5 74t-1.5 112q0 66 1.5 110t4.5 73t8 46t11 30q11 22 31.5 32t55.5 13v108h62v-108q35 -3 55 -13t31 -32q14 -27 18 -60.5t4 -71.5v-18t-1 -20h-86q1 7 1 12.5v12.5q0 35 -1.5 55.5t-6.5 37.5
q-5 14 -14 19t-31 5q-35 0 -42 -22q-3 -9 -5.5 -21.5t-4 -35.5t-2 -59t-0.5 -91q0 -56 0.5 -92.5t2 -60t4 -36t5.5 -21.5q7 -21 42 -21q37 0 45 21q3 9 4.5 17t2 18.5t1 25t0.5 35.5v15t-1 15h86q2 -12 2 -23.5v-22.5q-1 -34 -4 -69t-19 -65q-11 -23 -31.5 -33.5
t-54.5 -12.5v-124h-62z" />
    <glyph glyph-name="sterling" unicode="&#xa3;" 
d="M315 13q-11 -11 -26.5 -18.5t-40.5 -7.5q-31 0 -50.5 16t-25.5 45h-7q-11 -26 -33.5 -43.5t-57.5 -17.5q-11 0 -23 4.5t-21 16.5v84q14 -3 22.5 -5t15.5 -2q20 0 32 27t12 80q0 31 -4 49t-14 42h-74v62h43l2 3q-20 35 -30 75.5t-10 100.5q0 55 1 90.5t4 58t7.5 36
t12.5 25.5q7 11 15.5 18t22 11t33 5.5t48.5 1.5q24 0 41 -1.5t29.5 -5.5t21.5 -11t17 -18q9 -12 14.5 -25.5t9 -34t4.5 -51t1 -76.5v-47.5t-1 -28.5h-84q1 9 1 20v31q0 40 -0.5 65.5t-1.5 41.5t-3.5 24.5t-6.5 16.5q-4 7 -12 9.5t-30 2.5t-30.5 -3.5t-13.5 -11.5
q-4 -6 -6.5 -14.5t-3.5 -23t-1.5 -38.5t-0.5 -61t2 -59.5t8 -40.5t16.5 -37t28.5 -48h122v-62h-100l-2 -4q14 -40 14 -82q0 -27 -4 -49t-10 -41q6 -11 18 -17t34 -6q26 0 38 7.5t30 18.5h7v-97z" />
    <glyph glyph-name="currency" unicode="&#xa4;" horiz-adv-x="521" 
d="M373 222q-24 -17 -51.5 -26t-59.5 -9q-65 0 -112 36l-70 -73l-47 46l72 71q-35 49 -35 112q0 61 35 113l-71 68l46 47l69 -72q46 38 113 38q62 0 112 -38l67 72l47 -47l-70 -68q17 -25 26.5 -53t9.5 -60t-9.5 -60.5t-26.5 -51.5l70 -71l-46 -46zM385 379q0 25 -10 47.5
t-26.5 39.5t-39 27t-47.5 10q-26 0 -48.5 -10t-39 -27t-26 -39.5t-9.5 -47.5q0 -26 9.5 -48t26 -39t39 -26.5t48.5 -9.5q25 0 47.5 9.5t39 26.5t26.5 39t10 48z" />
    <glyph glyph-name="yen" unicode="&#xa5;" 
d="M122 0v115h-95v62h95v85h-95v62h95v19l-109 409v5h91l59 -278h8l60 278h89v-5l-107 -409v-19h90v-62h-90v-85h90v-62h-90v-115h-91z" />
    <glyph glyph-name="brokenbar" unicode="&#xa6;" 
d="M132 -238v484h69v-484h-69zM132 508v454h69v-454h-69z" />
    <glyph glyph-name="section" unicode="&#xa7;" horiz-adv-x="360" 
d="M103 95q-2 -9 -2.5 -21t-0.5 -30q0 -19 0.5 -32t1.5 -22t3 -15t5 -12q6 -10 13.5 -13.5t23.5 -3.5q20 0 28 3.5t15 14.5q6 12 8 30.5t2 61.5v27t-0.5 18.5t-1.5 13.5t-3 12q-3 11 -10 17.5t-21 15.5q-24 15 -54.5 33t-50.5 35q-9 9 -15.5 19t-10.5 27.5t-6 43.5t-2 67
q0 34 3.5 57.5t11 39t19 25t27.5 16.5q-3 17 -4 40t-1 57q0 53 7 80t24 44q7 7 14.5 12t18 8t25 4.5t35.5 1.5q43 0 64 -6t36 -24q12 -16 17 -40.5t5 -66.5q0 -27 -1.5 -44.5t-4.5 -29.5h-70q3 16 3 53q0 32 -3 47.5t-11 25.5q-5 7 -13 9t-22 2q-16 0 -23 -2.5t-13 -10.5
q-7 -9 -9.5 -24t-2.5 -49v-32.5t0.5 -20.5t2 -13.5t3.5 -11.5q5 -11 10 -16t20 -16q17 -12 41 -23.5t46 -25.5q17 -12 25 -19t15 -21q4 -8 7 -15.5t4.5 -20t2 -32.5t0.5 -52q0 -43 -3.5 -70t-10.5 -45t-17.5 -30t-24.5 -24q1 -12 1 -28v-39q0 -33 -1.5 -57t-5.5 -42
t-10.5 -31.5t-16.5 -24.5q-15 -17 -35.5 -24t-63.5 -7q-38 0 -59.5 8t-36.5 29q-6 9 -10.5 19.5t-7.5 24t-4.5 32.5t-1.5 46q0 23 1.5 39.5t3.5 27.5h72zM247 199q5 12 7 33.5t2 59.5v27.5t-1 18t-2 13.5t-3 12q-4 11 -10.5 17.5t-20.5 15.5q-23 14 -52 31t-49 33
q-5 -4 -8 -8.5t-5 -13.5t-2.5 -24t-0.5 -39v-32t0.5 -20t1.5 -13.5t3 -11.5q5 -11 10 -16.5t20 -16.5q13 -9 25 -15t24.5 -12.5t27 -15.5t33.5 -23z" />
    <glyph glyph-name="dieresis" unicode="&#xa8;" horiz-adv-x="291" 
d="M181 618v112h77v-112h-77zM33 618v112h77v-112h-77z" />
    <glyph glyph-name="ordfeminine" unicode="&#xaa;" horiz-adv-x="207" 
d="M193 396q-2 -3 -9 -8t-21 -5t-20.5 3.5t-10.5 8.5q-7 -5 -16.5 -8.5t-26.5 -3.5q-21 0 -34 2.5t-20 13.5t-9.5 32t-2.5 59q0 36 3.5 56.5t12 31t23 13.5t36.5 3q12 0 21 -3v17q0 19 -0.5 30t-2.5 16.5t-5.5 6.5t-9.5 1q-12 0 -15.5 -6t-3.5 -33v-9t2 -9h-53q-1 4 -1.5 8
t-0.5 10q0 30 3 47.5t10.5 26t21.5 11t37 2.5q24 0 38 -5t22 -17t10.5 -31t2.5 -47v-168q0 -11 5 -11q1 0 4 1q2 1 10 3v-39zM119 542q-5 5 -14 5t-14.5 -1.5t-8.5 -7t-4 -17t-1 -31.5q0 -31 1 -38t3 -11t5 -5t14 -1q13 0 19 6v101z" />
    <glyph glyph-name="guillemotleft" unicode="&#xab;" horiz-adv-x="332" 
d="M22 208zM163 208l-141 143v58l141 144h4v-84l-91 -86v-7l91 -85v-83h-4zM304 208l-141 143v58l141 144h4v-84l-91 -86v-7l91 -85v-83h-4z" />
    <glyph glyph-name="logicalnot" unicode="&#xac;" 
d="M247 0v369h-228v69h296v-438h-68z" />
    <glyph glyph-name="macron" unicode="&#xaf;" horiz-adv-x="346" 
d="M33 648v63h280v-63h-280z" />
    <glyph glyph-name="degree" unicode="&#xb0;" horiz-adv-x="251" 
d="M208 472q-10 -16 -29 -21.5t-55 -5.5q-35 0 -53.5 5.5t-27.5 21.5q-5 7 -8 16t-5.5 24.5t-3.5 40.5t-1 64t1 63.5t3 39.5t5.5 24t8.5 17q9 14 27.5 20.5t53.5 6.5t55 -6.5t29 -20.5q4 -8 7.5 -16.5t5.5 -24t3 -40t1 -63.5t-1 -64t-3 -40.5t-5.5 -24.5t-7.5 -16zM155 532
q3 4 4.5 8.5t2 13.5t1 24.5t0.5 39.5t-0.5 38.5t-1 23.5t-2 13.5t-4.5 8.5q-3 5 -9.5 7t-21.5 2q-14 0 -20 -2t-9 -7q-3 -4 -4.5 -8.5t-2 -13.5t-1 -23.5t-0.5 -38.5t0.5 -39.5t1 -24.5t2 -13.5t4.5 -8.5q4 -8 29 -8q15 0 22 1.5t9 6.5z" />
    <glyph glyph-name="plusminus" unicode="&#xb1;" 
d="M19 0zM132 231v114h-113v68h113v114h69v-114h114v-68h-114v-114h-69zM19 0v68h296v-68h-296z" />
    <glyph glyph-name="twosuperior" unicode="&#xb2;" horiz-adv-x="214" 
d="M25 348zM26 348v62l61 89q15 21 23.5 36.5t13 30t5.5 30.5t1 40q0 22 -0.5 35.5t-1 20.5t-2 10.5t-3.5 6.5q-2 6 -18 6q-14 0 -18 -6q-2 -5 -3 -15.5t-1 -44.5v-23t1 -24h-58q-1 8 -1 18v29q0 39 3 63.5t12 38.5t24.5 19t40.5 5q26 0 42.5 -4t25.5 -18t12 -41.5t3 -75.5
q0 -38 -1 -59t-5.5 -36t-14.5 -29t-27 -38l-46 -65h92v-61h-160z" />
    <glyph glyph-name="threesuperior" unicode="&#xb3;" horiz-adv-x="214" 
d="M23 341zM66 533v60h39q8 0 12.5 1.5t7 7t3.5 17t1 31.5q0 24 -1 37t-3.5 19.5t-7 8t-12.5 1.5t-12.5 -1.5t-7 -7t-3.5 -16.5t-1 -31v-17t1 -18h-57q-1 9 -1 17.5v17.5q0 33 2.5 55.5t11 35.5t24.5 18.5t43 5.5q25 0 40.5 -4t24.5 -17t12 -36t3 -62q0 -23 -1 -38.5t-3 -26
t-6.5 -17t-10.5 -10.5q6 -4 10.5 -9.5t8 -16t5 -28.5t1.5 -46q0 -44 -3.5 -69t-13 -37t-26 -14.5t-41.5 -2.5q-26 0 -42 5t-25 19t-12 39t-3 65q0 12 0.5 18.5t1.5 13.5h56q-1 -8 -1 -16v-16q0 -23 1 -36t3.5 -19.5t7.5 -8t13 -1.5t13 1.5t8 8t4 20t1 36.5t-1 35.5
t-3.5 18.5t-7.5 7.5t-14 1.5h-39z" />
    <glyph glyph-name="acute" unicode="&#xb4;" horiz-adv-x="228" 
d="M36 592v4l80 169h81v-5l-95 -168h-66z" />
    <glyph glyph-name="paragraph" unicode="&#xb6;" horiz-adv-x="409" 
d="M303 -102v786h-74v-786h-73v502h-35q-30 0 -50 8t-31.5 28.5t-16.5 55.5t-5 89q0 99 24.5 137.5t71.5 38.5h262v-859h-73z" />
    <glyph glyph-name="periodcentered" unicode="&#xb7;" horiz-adv-x="154" 
d="M33 313zM33 313v126h88v-126h-88z" />
    <glyph glyph-name="cedilla" unicode="&#xb8;" horiz-adv-x="201" 
d="M33 -238v5l56 192h79v-5l-71 -192h-64z" />
    <glyph glyph-name="onesuperior" unicode="&#xb9;" horiz-adv-x="214" 
d="M29 348zM30 348v63h47v237h-48v54h32q11 0 17 4.5t6 19.5v41h53v-356h45v-63h-152z" />
    <glyph glyph-name="ordmasculine" unicode="&#xba;" horiz-adv-x="202" 
d="M164 412q-9 -17 -23.5 -23t-40.5 -6q-27 0 -41.5 6.5t-22.5 23.5q-3 7 -5.5 15.5t-4 23t-2.5 37.5t-1 59q0 35 1 57.5t2.5 37t4 23.5t5.5 17q7 15 22 21t42 6t41.5 -6t22.5 -21q4 -8 6.5 -16.5t4 -23t2 -37t0.5 -58.5q0 -37 -0.5 -60t-2 -38t-4 -23t-6.5 -15zM116 445
q1 5 2 11t2 17t1 29v47v46t-1 28.5t-2 16.5t-2 10q-3 8 -16 8t-16 -8q-1 -4 -2 -10t-1.5 -16.5t-1 -28.5t-0.5 -46q0 -29 0.5 -47t1 -29t1.5 -17t2 -11q3 -7 16 -7t16 7z" />
    <glyph glyph-name="guillemotright" unicode="&#xbb;" horiz-adv-x="332" 
d="M22 208zM22 208v84l91 86v7l-91 85v83h4l141 -143v-58l-141 -144h-4zM163 208v84l91 86v7l-91 85v83h4l141 -143v-58l-141 -144h-4z" />
    <glyph glyph-name="onequarter" unicode="&#xbc;" horiz-adv-x="454" 
d="M17 0zM18 348v63h47v237h-48v54h32q11 0 17 4.5t6 19.5v41h53v-356h45v-63h-152zM55 0v4l312 753h58v-5l-313 -752h-57zM355 -10v82h-92v55l91 282h61v-282h21v-55h-21v-82h-60zM357 235h-4l-33 -108h37v108z" />
    <glyph glyph-name="onehalf" unicode="&#xbd;" horiz-adv-x="454" 
d="M12 0zM13 348v63h47v237h-48v54h32q11 0 17 4.5t6 19.5v41h53v-356h45v-63h-152zM45 0v4l312 753h58v-5l-313 -752h-57zM279 -10v62l61 89q15 21 23.5 36.5t13 30t5.5 30.5t1 40q0 22 -0.5 35.5t-1 20.5t-2 10.5t-3.5 6.5q-2 6 -18 6q-14 0 -18 -6q-2 -5 -3 -15.5
t-1 -44.5v-23t1 -24h-58q-1 8 -1 18v29q0 39 3 63.5t12 38.5t24.5 19t40.5 5q26 0 42.5 -4t25.5 -18t12 -41.5t3 -75.5q0 -38 -1 -59t-5.5 -36t-14.5 -29t-27 -38l-46 -65h92v-61h-160z" />
    <glyph glyph-name="threequarters" unicode="&#xbe;" horiz-adv-x="454" 
d="M19 0zM62 533v60h39q8 0 12.5 1.5t7 7t3.5 17t1 31.5q0 24 -1 37t-3.5 19.5t-7 8t-12.5 1.5t-12.5 -1.5t-7 -7t-3.5 -16.5t-1 -31v-17t1 -18h-57q-1 9 -1 17.5v17.5q0 33 2.5 55.5t11 35.5t24.5 18.5t43 5.5q25 0 40.5 -4t24.5 -17t12 -36t3 -62q0 -23 -1 -38.5t-3 -26
t-6.5 -17t-10.5 -10.5q6 -4 10.5 -9.5t8 -16t5 -28.5t1.5 -46q0 -44 -3.5 -69t-13 -37t-26 -14.5t-41.5 -2.5q-26 0 -42 5t-25 19t-12 39t-3 65q0 12 0.5 18.5t1.5 13.5h56q-1 -8 -1 -16v-16q0 -23 1 -36t3.5 -19.5t7.5 -8t13 -1.5t13 1.5t8 8t4 20t1 36.5t-1 35.5
t-3.5 18.5t-7.5 7.5t-14 1.5h-39zM55 0v4l312 753h58v-5l-313 -752h-57zM354 -10v82h-92v55l91 282h61v-282h21v-55h-21v-82h-60zM356 235h-4l-33 -108h37v108z" />
    <glyph glyph-name="questiondown" unicode="&#xbf;" horiz-adv-x="308" 
d="M278 38q2 -11 3 -24t1 -43q0 -38 -1.5 -63.5t-5.5 -42.5t-10 -28.5t-16 -21.5q-8 -8 -15 -13t-17 -7.5t-25.5 -3.5t-39.5 -1q-22 0 -36.5 1t-24.5 3.5t-17.5 7t-14.5 11.5q-11 10 -18 23.5t-11 32.5t-5.5 46t-1.5 66q0 40 0.5 64.5t3.5 41t9 28.5t17 26t28 33t25 32
q9 14 12 24t3 27q0 31 -0.5 49.5t-1.5 26.5h76q2 -9 3 -29.5t1 -62.5q0 -27 -3.5 -43.5t-13.5 -30.5q-11 -17 -26 -34t-29 -35q-8 -10 -12.5 -17.5t-7 -18t-3 -26.5t-0.5 -43v-48t1 -29t2.5 -16t3.5 -9q5 -9 12.5 -11.5t28.5 -2.5q22 0 29 3t13 11q6 9 8 24t2 56v43t-2 24
h76zM114 409v151h89v-151h-89z" />
    <glyph glyph-name="Agrave" unicode="&#xc0;" horiz-adv-x="327" 
d="M16 0zM220 0l-17 206h-81l-17 -206h-89l75 757h150l70 -757h-91zM175 577q-2 23 -4 45t-4 45h-7q-2 -23 -4 -45t-4 -45l-26 -284h73zM138 789l-96 168v5h81l81 -169v-4h-66z" />
    <glyph glyph-name="Aacute" unicode="&#xc1;" horiz-adv-x="327" 
d="M16 0zM220 0l-17 206h-81l-17 -206h-89l75 757h150l70 -757h-91zM175 577q-2 23 -4 45t-4 45h-7q-2 -23 -4 -45t-4 -45l-26 -284h73zM124 789v4l80 169h81v-5l-95 -168h-66z" />
    <glyph glyph-name="Acircumflex" unicode="&#xc2;" horiz-adv-x="327" 
d="M16 0zM220 0l-17 206h-81l-17 -206h-89l75 757h150l70 -757h-91zM175 577q-2 23 -4 45t-4 45h-7q-2 -23 -4 -45t-4 -45l-26 -284h73zM212 789l-46 91h-7l-46 -91h-73v4l92 169h61l93 -169v-4h-74z" />
    <glyph glyph-name="Atilde" unicode="&#xc3;" horiz-adv-x="327" 
d="M16 0zM220 0l-17 206h-81l-17 -206h-89l75 757h150l70 -757h-91zM175 577q-2 23 -4 45t-4 45h-7q-2 -23 -4 -45t-4 -45l-26 -284h73zM304 860q-14 -23 -33.5 -32.5t-44.5 -9.5q-20 0 -39.5 7.5t-36.5 20.5q-14 11 -25.5 14.5t-29.5 3.5q-20 0 -36.5 -12t-30.5 -32h-4v68
q10 18 29 29.5t43 11.5q39 0 71 -21q21 -14 33 -19.5t31 -5.5t36.5 10.5t31.5 33.5h5v-67z" />
    <glyph glyph-name="Adieresis" unicode="&#xc4;" horiz-adv-x="327" 
d="M16 0zM220 0l-17 206h-81l-17 -206h-89l75 757h150l70 -757h-91zM175 577q-2 23 -4 45t-4 45h-7q-2 -23 -4 -45t-4 -45l-26 -284h73zM199 815v112h77v-112h-77zM51 815v112h77v-112h-77z" />
    <glyph glyph-name="Aring" unicode="&#xc5;" horiz-adv-x="327" 
d="M16 0zM220 0l-17 206h-81l-17 -206h-89l75 757h150l70 -757h-91zM175 577q-2 23 -4 45t-4 45h-7q-2 -23 -4 -45t-4 -45l-26 -284h73zM223 790q-8 -9 -21 -12t-39 -3t-39 3t-21 12q-3 4 -5.5 8.5t-4 13t-2.5 22t-1 34.5t0.5 34.5t2 22t4 13.5t6.5 9q7 8 20.5 11.5
t39.5 3.5t39.5 -3.5t20.5 -11.5q4 -4 6.5 -9t4 -13.5t2.5 -22t1 -34.5t-1 -34.5t-2.5 -22t-4.5 -13t-6 -8.5zM187 820q3 3 4.5 10.5t1.5 38.5q0 16 -0.5 25t-1 14t-2 7t-2.5 4q-2 2 -7 3.5t-17 1.5t-17 -1t-8 -4q-2 -2 -2.5 -4t-1.5 -7t-1 -14v-25q0 -31 1 -38.5t4 -10.5
t8 -4t17 -1t17 1t7 4z" />
    <glyph glyph-name="AE" unicode="&#xc6;" horiz-adv-x="467" 
d="M202 0v206h-80l-17 -206h-89l75 757h346v-90h-146v-238h144v-86h-144v-249h145v-94h-234zM202 668h-42l-34 -375h76v375z" />
    <glyph glyph-name="Ccedilla" unicode="&#xc7;" 
d="M24 0zM305 290q2 -17 2 -34v-34q0 -59 -6.5 -103t-22 -73.5t-41.5 -44t-66 -14.5q-53 0 -80 13.5t-41 48.5q-7 16 -12 38t-8 59t-4.5 94t-1.5 145q0 101 2.5 160.5t6.5 92.5t9 47t9 24q14 33 38.5 47t77.5 14q37 0 59 -6.5t38 -22.5q20 -20 31 -70t11 -124
q0 -20 -0.5 -35t-1.5 -32h-84q1 16 1 28v37q0 46 -3.5 74t-10.5 42q-6 13 -15 17t-25 4q-20 0 -29 -7t-14 -25q-3 -12 -5.5 -26.5t-4 -42.5t-2 -74.5t-0.5 -120.5q0 -75 0.5 -123t2 -77t4 -45t5.5 -28q5 -17 14.5 -24.5t32.5 -7.5q18 0 27.5 10.5t14.5 30.5t7.5 46.5
t2.5 61.5v31t-1 29h83zM71 -238v5l56 192h79v-5l-71 -192h-64z" />
    <glyph glyph-name="Egrave" unicode="&#xc8;" horiz-adv-x="294" 
d="M30 0zM33 0v757h234v-90h-146v-238h144v-86h-144v-249h145v-94h-233zM126 789l-96 168v5h81l81 -169v-4h-66z" />
    <glyph glyph-name="Eacute" unicode="&#xc9;" horiz-adv-x="294" 
d="M33 0zM33 0v757h234v-90h-146v-238h144v-86h-144v-249h145v-94h-233zM110 789v4l80 169h81v-5l-95 -168h-66z" />
    <glyph glyph-name="Ecircumflex" unicode="&#xca;" horiz-adv-x="294" 
d="M28 0zM33 0v757h234v-90h-146v-238h144v-86h-144v-249h145v-94h-233zM200 789l-46 91h-7l-46 -91h-73v4l92 169h61l93 -169v-4h-74z" />
    <glyph glyph-name="Edieresis" unicode="&#xcb;" horiz-adv-x="294" 
d="M33 0zM33 0v757h234v-90h-146v-238h144v-86h-144v-249h145v-94h-233zM186 815v112h77v-112h-77zM38 815v112h77v-112h-77z" />
    <glyph glyph-name="Igrave" unicode="&#xcc;" horiz-adv-x="174" 
d="M0 0zM49 0v757h91v-757h-91zM70 789l-96 168v5h81l81 -169v-4h-66z" />
    <glyph glyph-name="Iacute" unicode="&#xcd;" horiz-adv-x="165" 
d="M34 0zM34 0v757h91v-757h-91zM39 789v4l80 169h81v-5l-95 -168h-66z" />
    <glyph glyph-name="Icircumflex" unicode="&#xce;" horiz-adv-x="183" 
d="M0 0zM46 0v757h91v-757h-91zM141 789l-46 91h-7l-46 -91h-73v4l92 169h61l93 -169v-4h-74z" />
    <glyph glyph-name="Idieresis" unicode="&#xcf;" horiz-adv-x="181" 
d="M0 0zM45 0v757h91v-757h-91zM126 815v112h77v-112h-77zM-22 815v112h77v-112h-77z" />
    <glyph glyph-name="Eth" unicode="&#xd0;" horiz-adv-x="346" 
d="M33 0v343h-26v86h26v328h147q51 0 77 -13t41 -47q7 -17 12 -36.5t8 -53.5t4 -88t1 -140q0 -89 -1.5 -144t-4.5 -88.5t-7.5 -52.5t-11.5 -35q-14 -34 -40 -46.5t-78 -12.5h-147zM178 93q20 0 29.5 6.5t14.5 23.5q3 11 5.5 25t3.5 41t1.5 72t0.5 119q0 72 -0.5 116.5
t-1.5 72t-3 42t-6 25.5q-6 17 -15.5 24t-28.5 7h-57v-238h71v-86h-71v-250h57z" />
    <glyph glyph-name="Ntilde" unicode="&#xd1;" horiz-adv-x="350" 
d="M32 0zM273 0q-33 110 -57 189t-40.5 134t-26.5 90t-16.5 57t-10 34.5t-5.5 22.5h-5q1 -32 1 -67v-77v-383h-81v757h102q22 -84 38 -143.5t26.5 -100t17 -65t10 -39t5 -22t2.5 -13.5h5q-1 19 -1 39v54v290h82v-757h-46zM315 860q-14 -23 -33.5 -32.5t-44.5 -9.5
q-20 0 -39.5 7.5t-36.5 20.5q-14 11 -25.5 14.5t-29.5 3.5q-20 0 -36.5 -12t-30.5 -32h-4v68q10 18 29 29.5t43 11.5q39 0 71 -21q21 -14 33 -19.5t31 -5.5t36.5 10.5t31.5 33.5h5v-67z" />
    <glyph glyph-name="Ograve" unicode="&#xd2;" 
d="M24 0zM50 49q-7 17 -12 37.5t-8 55.5t-4.5 91.5t-1.5 145.5t1.5 145t4.5 91t8 55t12 38q14 35 40 48.5t77 13.5t77 -13.5t40 -48.5q7 -18 12 -38t8 -55t4.5 -91t1.5 -145t-1.5 -145.5t-4.5 -91.5t-8 -55.5t-12 -37.5q-14 -35 -40 -48.5t-77 -13.5t-77 13.5t-40 48.5z
M210 113q3 12 5 26t3.5 41.5t2.5 74.5t1 126t-0.5 126.5t-2 75t-3.5 41t-5 25.5q-5 18 -14.5 25.5t-29.5 7.5t-29 -7.5t-14 -24.5q-3 -12 -5.5 -26t-4 -41.5t-2 -75t-0.5 -126.5t0.5 -126t2 -74.5t4 -41.5t5.5 -26q5 -18 14 -25t29 -7t29 7t14 25zM142 789l-96 168v5h81
l81 -169v-4h-66z" />
    <glyph glyph-name="Oacute" unicode="&#xd3;" 
d="M24 0zM50 49q-7 17 -12 37.5t-8 55.5t-4.5 91.5t-1.5 145.5t1.5 145t4.5 91t8 55t12 38q14 35 40 48.5t77 13.5t77 -13.5t40 -48.5q7 -18 12 -38t8 -55t4.5 -91t1.5 -145t-1.5 -145.5t-4.5 -91.5t-8 -55.5t-12 -37.5q-14 -35 -40 -48.5t-77 -13.5t-77 13.5t-40 48.5z
M210 113q3 12 5 26t3.5 41.5t2.5 74.5t1 126t-0.5 126.5t-2 75t-3.5 41t-5 25.5q-5 18 -14.5 25.5t-29.5 7.5t-29 -7.5t-14 -24.5q-3 -12 -5.5 -26t-4 -41.5t-2 -75t-0.5 -126.5t0.5 -126t2 -74.5t4 -41.5t5.5 -26q5 -18 14 -25t29 -7t29 7t14 25zM126 789v4l80 169h81v-5
l-95 -168h-66z" />
    <glyph glyph-name="Ocircumflex" unicode="&#xd4;" 
d="M24 0zM50 49q-7 17 -12 37.5t-8 55.5t-4.5 91.5t-1.5 145.5t1.5 145t4.5 91t8 55t12 38q14 35 40 48.5t77 13.5t77 -13.5t40 -48.5q7 -18 12 -38t8 -55t4.5 -91t1.5 -145t-1.5 -145.5t-4.5 -91.5t-8 -55.5t-12 -37.5q-14 -35 -40 -48.5t-77 -13.5t-77 13.5t-40 48.5z
M210 113q3 12 5 26t3.5 41.5t2.5 74.5t1 126t-0.5 126.5t-2 75t-3.5 41t-5 25.5q-5 18 -14.5 25.5t-29.5 7.5t-29 -7.5t-14 -24.5q-3 -12 -5.5 -26t-4 -41.5t-2 -75t-0.5 -126.5t0.5 -126t2 -74.5t4 -41.5t5.5 -26q5 -18 14 -25t29 -7t29 7t14 25zM216 789l-46 91h-7
l-46 -91h-73v4l92 169h61l93 -169v-4h-74z" />
    <glyph glyph-name="Otilde" unicode="&#xd5;" 
d="M24 0zM50 49q-7 17 -12 37.5t-8 55.5t-4.5 91.5t-1.5 145.5t1.5 145t4.5 91t8 55t12 38q14 35 40 48.5t77 13.5t77 -13.5t40 -48.5q7 -18 12 -38t8 -55t4.5 -91t1.5 -145t-1.5 -145.5t-4.5 -91.5t-8 -55.5t-12 -37.5q-14 -35 -40 -48.5t-77 -13.5t-77 13.5t-40 48.5z
M210 113q3 12 5 26t3.5 41.5t2.5 74.5t1 126t-0.5 126.5t-2 75t-3.5 41t-5 25.5q-5 18 -14.5 25.5t-29.5 7.5t-29 -7.5t-14 -24.5q-3 -12 -5.5 -26t-4 -41.5t-2 -75t-0.5 -126.5t0.5 -126t2 -74.5t4 -41.5t5.5 -26q5 -18 14 -25t29 -7t29 7t14 25zM307 860
q-14 -23 -33.5 -32.5t-44.5 -9.5q-20 0 -39.5 7.5t-36.5 20.5q-14 11 -25.5 14.5t-29.5 3.5q-20 0 -36.5 -12t-30.5 -32h-4v68q10 18 29 29.5t43 11.5q39 0 71 -21q21 -14 33 -19.5t31 -5.5t36.5 10.5t31.5 33.5h5v-67z" />
    <glyph glyph-name="Odieresis" unicode="&#xd6;" 
d="M24 0zM50 49q-7 17 -12 37.5t-8 55.5t-4.5 91.5t-1.5 145.5t1.5 145t4.5 91t8 55t12 38q14 35 40 48.5t77 13.5t77 -13.5t40 -48.5q7 -18 12 -38t8 -55t4.5 -91t1.5 -145t-1.5 -145.5t-4.5 -91.5t-8 -55.5t-12 -37.5q-14 -35 -40 -48.5t-77 -13.5t-77 13.5t-40 48.5z
M210 113q3 12 5 26t3.5 41.5t2.5 74.5t1 126t-0.5 126.5t-2 75t-3.5 41t-5 25.5q-5 18 -14.5 25.5t-29.5 7.5t-29 -7.5t-14 -24.5q-3 -12 -5.5 -26t-4 -41.5t-2 -75t-0.5 -126.5t0.5 -126t2 -74.5t4 -41.5t5.5 -26q5 -18 14 -25t29 -7t29 7t14 25zM202 815v112h77v-112h-77z
M54 815v112h77v-112h-77z" />
    <glyph glyph-name="multiply" unicode="&#xd7;" 
d="M167 330l-88 -88l-49 49l88 88l-87 87l48 49l87 -88l88 88l48 -49l-87 -87l89 -88l-49 -49z" />
    <glyph glyph-name="Oslash" unicode="&#xd8;" 
d="M30 -130l34 153q-5 5 -8 11.5t-6 14.5q-7 17 -12 37.5t-8 55.5t-4.5 91.5t-1.5 145.5t1.5 145t4.5 91t8 55t12 38q14 35 40 48.5t77 13.5q38 0 60 -7l20 90h46l-26 -116q5 -6 9 -13.5t8 -15.5q7 -18 12 -38t8 -55t4.5 -91t1.5 -145t-1.5 -145.5t-4.5 -91.5t-8 -55.5
t-12 -37.5q-14 -35 -40 -48.5t-77 -13.5q-41 0 -64 8l-27 -125h-46zM220 543q-2 -19 -6.5 -42.5t-14 -70t-27 -124.5t-45.5 -204q5 -12 14 -16.5t26 -4.5q20 0 29 7t14 25q3 12 5 26t3.5 41.5t2.5 74.5t1 126v88t2 74h-4zM114 217q2 12 4.5 25t6.5 32.5t10 49.5t15.5 75.5
t22.5 110t32 154.5q-10 18 -38 18q-20 0 -29 -7.5t-14 -24.5q-3 -12 -5.5 -26t-4 -41.5t-2 -75t-0.5 -126.5v-88t-2 -76h4z" />
    <glyph glyph-name="Ugrave" unicode="&#xd9;" horiz-adv-x="341" 
d="M27 0zM225 757h88v-547q0 -38 -0.5 -64t-2 -45t-5.5 -33t-11 -28q-15 -30 -42.5 -41.5t-80.5 -11.5q-54 0 -81.5 11.5t-42.5 41.5q-7 14 -11 28t-6 33t-2.5 45t-0.5 64v547h91v-547q0 -30 0.5 -48.5t1.5 -30.5t3.5 -19t6.5 -14q6 -10 15.5 -13.5t26.5 -3.5t26 3.5
t15 13.5q4 7 6.5 14t3.5 19t1.5 30.5t0.5 48.5v547zM147 789l-96 168v5h81l81 -169v-4h-66z" />
    <glyph glyph-name="Uacute" unicode="&#xda;" horiz-adv-x="341" 
d="M27 0zM225 757h88v-547q0 -38 -0.5 -64t-2 -45t-5.5 -33t-11 -28q-15 -30 -42.5 -41.5t-80.5 -11.5q-54 0 -81.5 11.5t-42.5 41.5q-7 14 -11 28t-6 33t-2.5 45t-0.5 64v547h91v-547q0 -30 0.5 -48.5t1.5 -30.5t3.5 -19t6.5 -14q6 -10 15.5 -13.5t26.5 -3.5t26 3.5
t15 13.5q4 7 6.5 14t3.5 19t1.5 30.5t0.5 48.5v547zM131 789v4l80 169h81v-5l-95 -168h-66z" />
    <glyph glyph-name="Ucircumflex" unicode="&#xdb;" horiz-adv-x="341" 
d="M27 0zM225 757h88v-547q0 -38 -0.5 -64t-2 -45t-5.5 -33t-11 -28q-15 -30 -42.5 -41.5t-80.5 -11.5q-54 0 -81.5 11.5t-42.5 41.5q-7 14 -11 28t-6 33t-2.5 45t-0.5 64v547h91v-547q0 -30 0.5 -48.5t1.5 -30.5t3.5 -19t6.5 -14q6 -10 15.5 -13.5t26.5 -3.5t26 3.5
t15 13.5q4 7 6.5 14t3.5 19t1.5 30.5t0.5 48.5v547zM221 789l-46 91h-7l-46 -91h-73v4l92 169h61l93 -169v-4h-74z" />
    <glyph glyph-name="Udieresis" unicode="&#xdc;" horiz-adv-x="341" 
d="M27 0zM225 757h88v-547q0 -38 -0.5 -64t-2 -45t-5.5 -33t-11 -28q-15 -30 -42.5 -41.5t-80.5 -11.5q-54 0 -81.5 11.5t-42.5 41.5q-7 14 -11 28t-6 33t-2.5 45t-0.5 64v547h91v-547q0 -30 0.5 -48.5t1.5 -30.5t3.5 -19t6.5 -14q6 -10 15.5 -13.5t26.5 -3.5t26 3.5
t15 13.5q4 7 6.5 14t3.5 19t1.5 30.5t0.5 48.5v547zM206 815v112h77v-112h-77zM58 815v112h77v-112h-77z" />
    <glyph glyph-name="Yacute" unicode="&#xdd;" horiz-adv-x="325" 
d="M9 0zM116 0v330l-107 422v5h89q19 -88 30.5 -141t17.5 -83.5t8.5 -44t4.5 -22.5h7q1 9 4 22.5t9.5 44t18 83.5t31.5 141h87v-5l-105 -421v-331h-95zM123 789v4l80 169h81v-5l-95 -168h-66z" />
    <glyph glyph-name="Thorn" unicode="&#xde;" horiz-adv-x="333" 
d="M33 0v757h88v-116h70q36 0 59 -12.5t36.5 -42.5t19 -80t5.5 -126q0 -74 -5.5 -125.5t-19 -83.5t-36.5 -46t-59 -14h-70v-111h-88zM177 199q13 0 21.5 5t13.5 24t7.5 55t2.5 99q0 57 -2.5 91t-7.5 51.5t-14.5 22.5t-22.5 5h-54v-353h56z" />
    <glyph glyph-name="germandbls" unicode="&#xdf;" horiz-adv-x="474" 
d="M54 0v614q0 39 4.5 67.5t19.5 46.5t43 26.5t74 8.5q45 0 71.5 -8.5t40 -26.5t17.5 -46.5t4 -67.5v-80q0 -23 3.5 -31.5t14.5 -17.5q19 -17 38.5 -29.5t35.5 -28.5q11 -11 15 -18t8 -19q2 -8 3.5 -15.5t2 -20t1 -33t0.5 -53.5q0 -65 -1.5 -106t-4.5 -65.5t-7.5 -38
t-10.5 -24.5q-14 -28 -37 -37.5t-72 -9.5q-24 0 -40.5 1t-28 5t-19.5 12t-15 21q-6 11 -9.5 23t-6 28.5t-3 38.5t-0.5 52q0 16 0.5 25.5t2.5 20.5h74q-2 -8 -2 -14.5v-15.5v-36.5t1 -25t2.5 -18.5t4.5 -17q4 -12 11.5 -16t27.5 -4q18 0 26 4t13 16q3 9 5.5 18.5t3.5 27.5
t1.5 49t0.5 84q0 27 -0.5 45.5t-3 30.5t-6.5 19.5t-10 13.5q-14 14 -35.5 27t-39.5 34q-9 11 -14 19t-8 19q-2 5 -2.5 10.5t-1.5 16t-1 27.5v45v32q0 30 -2 44.5t-7 23.5q-6 10 -13.5 12.5t-26.5 2.5t-28 -2.5t-15 -12.5q-6 -9 -8 -23.5t-2 -44.5v-605h-89z" />
    <glyph glyph-name="agrave" unicode="&#xe0;" horiz-adv-x="327" 
d="M16 0zM220 0l-17 206h-81l-17 -206h-89l75 757h150l70 -757h-91zM175 577q-2 23 -4 45t-4 45h-7q-2 -23 -4 -45t-4 -45l-26 -284h73zM138 789l-96 168v5h81l81 -169v-4h-66z" />
    <glyph glyph-name="aacute" unicode="&#xe1;" horiz-adv-x="327" 
d="M16 0zM220 0l-17 206h-81l-17 -206h-89l75 757h150l70 -757h-91zM175 577q-2 23 -4 45t-4 45h-7q-2 -23 -4 -45t-4 -45l-26 -284h73zM124 789v4l80 169h81v-5l-95 -168h-66z" />
    <glyph glyph-name="acircumflex" unicode="&#xe2;" horiz-adv-x="327" 
d="M16 0zM220 0l-17 206h-81l-17 -206h-89l75 757h150l70 -757h-91zM175 577q-2 23 -4 45t-4 45h-7q-2 -23 -4 -45t-4 -45l-26 -284h73zM212 789l-46 91h-7l-46 -91h-73v4l92 169h61l93 -169v-4h-74z" />
    <glyph glyph-name="atilde" unicode="&#xe3;" horiz-adv-x="327" 
d="M16 0zM220 0l-17 206h-81l-17 -206h-89l75 757h150l70 -757h-91zM175 577q-2 23 -4 45t-4 45h-7q-2 -23 -4 -45t-4 -45l-26 -284h73zM304 860q-14 -23 -33.5 -32.5t-44.5 -9.5q-20 0 -39.5 7.5t-36.5 20.5q-14 11 -25.5 14.5t-29.5 3.5q-20 0 -36.5 -12t-30.5 -32h-4v68
q10 18 29 29.5t43 11.5q39 0 71 -21q21 -14 33 -19.5t31 -5.5t36.5 10.5t31.5 33.5h5v-67z" />
    <glyph glyph-name="adieresis" unicode="&#xe4;" horiz-adv-x="327" 
d="M16 0zM220 0l-17 206h-81l-17 -206h-89l75 757h150l70 -757h-91zM175 577q-2 23 -4 45t-4 45h-7q-2 -23 -4 -45t-4 -45l-26 -284h73zM199 815v112h77v-112h-77zM51 815v112h77v-112h-77z" />
    <glyph glyph-name="aring" unicode="&#xe5;" horiz-adv-x="327" 
d="M16 0zM220 0l-17 206h-81l-17 -206h-89l75 757h150l70 -757h-91zM175 577q-2 23 -4 45t-4 45h-7q-2 -23 -4 -45t-4 -45l-26 -284h73zM223 790q-8 -9 -21 -12t-39 -3t-39 3t-21 12q-3 4 -5.5 8.5t-4 13t-2.5 22t-1 34.5t0.5 34.5t2 22t4 13.5t6.5 9q7 8 20.5 11.5
t39.5 3.5t39.5 -3.5t20.5 -11.5q4 -4 6.5 -9t4 -13.5t2.5 -22t1 -34.5t-1 -34.5t-2.5 -22t-4.5 -13t-6 -8.5zM187 820q3 3 4.5 10.5t1.5 38.5q0 16 -0.5 25t-1 14t-2 7t-2.5 4q-2 2 -7 3.5t-17 1.5t-17 -1t-8 -4q-2 -2 -2.5 -4t-1.5 -7t-1 -14v-25q0 -31 1 -38.5t4 -10.5
t8 -4t17 -1t17 1t7 4z" />
    <glyph glyph-name="ae" unicode="&#xe6;" horiz-adv-x="467" 
d="M16 0zM202 0v206h-80l-17 -206h-89l75 757h346v-90h-146v-238h144v-86h-144v-249h145v-94h-234zM202 668h-42l-34 -375h76v375z" />
    <glyph glyph-name="ccedilla" unicode="&#xe7;" 
d="M24 0zM305 290q2 -17 2 -34v-34q0 -59 -6.5 -103t-22 -73.5t-41.5 -44t-66 -14.5q-53 0 -80 13.5t-41 48.5q-7 16 -12 38t-8 59t-4.5 94t-1.5 145q0 101 2.5 160.5t6.5 92.5t9 47t9 24q14 33 38.5 47t77.5 14q37 0 59 -6.5t38 -22.5q20 -20 31 -70t11 -124
q0 -20 -0.5 -35t-1.5 -32h-84q1 16 1 28v37q0 46 -3.5 74t-10.5 42q-6 13 -15 17t-25 4q-20 0 -29 -7t-14 -25q-3 -12 -5.5 -26.5t-4 -42.5t-2 -74.5t-0.5 -120.5q0 -75 0.5 -123t2 -77t4 -45t5.5 -28q5 -17 14.5 -24.5t32.5 -7.5q18 0 27.5 10.5t14.5 30.5t7.5 46.5
t2.5 61.5v31t-1 29h83zM71 -238v5l56 192h79v-5l-71 -192h-64z" />
    <glyph glyph-name="egrave" unicode="&#xe8;" horiz-adv-x="294" 
d="M30 0zM33 0v757h234v-90h-146v-238h144v-86h-144v-249h145v-94h-233zM126 789l-96 168v5h81l81 -169v-4h-66z" />
    <glyph glyph-name="eacute" unicode="&#xe9;" horiz-adv-x="294" 
d="M33 0zM33 0v757h234v-90h-146v-238h144v-86h-144v-249h145v-94h-233zM110 789v4l80 169h81v-5l-95 -168h-66z" />
    <glyph glyph-name="ecircumflex" unicode="&#xea;" horiz-adv-x="294" 
d="M28 0zM33 0v757h234v-90h-146v-238h144v-86h-144v-249h145v-94h-233zM200 789l-46 91h-7l-46 -91h-73v4l92 169h61l93 -169v-4h-74z" />
    <glyph glyph-name="edieresis" unicode="&#xeb;" horiz-adv-x="294" 
d="M33 0zM33 0v757h234v-90h-146v-238h144v-86h-144v-249h145v-94h-233zM186 815v112h77v-112h-77zM38 815v112h77v-112h-77z" />
    <glyph glyph-name="igrave" unicode="&#xec;" horiz-adv-x="174" 
d="M0 0zM49 0v757h91v-757h-91zM70 789l-96 168v5h81l81 -169v-4h-66z" />
    <glyph glyph-name="iacute" unicode="&#xed;" horiz-adv-x="165" 
d="M34 0zM34 0v757h91v-757h-91zM39 789v4l80 169h81v-5l-95 -168h-66z" />
    <glyph glyph-name="icircumflex" unicode="&#xee;" horiz-adv-x="183" 
d="M0 0zM46 0v757h91v-757h-91zM141 789l-46 91h-7l-46 -91h-73v4l92 169h61l93 -169v-4h-74z" />
    <glyph glyph-name="idieresis" unicode="&#xef;" horiz-adv-x="181" 
d="M0 0zM45 0v757h91v-757h-91zM126 815v112h77v-112h-77zM-22 815v112h77v-112h-77z" />
    <glyph glyph-name="eth" unicode="&#xf0;" horiz-adv-x="346" 
d="M7 0zM33 0v343h-26v86h26v328h147q51 0 77 -13t41 -47q7 -17 12 -36.5t8 -53.5t4 -88t1 -140q0 -89 -1.5 -144t-4.5 -88.5t-7.5 -52.5t-11.5 -35q-14 -34 -40 -46.5t-78 -12.5h-147zM178 93q20 0 29.5 6.5t14.5 23.5q3 11 5.5 25t3.5 41t1.5 72t0.5 119q0 72 -0.5 116.5
t-1.5 72t-3 42t-6 25.5q-6 17 -15.5 24t-28.5 7h-57v-238h71v-86h-71v-250h57z" />
    <glyph glyph-name="ntilde" unicode="&#xf1;" horiz-adv-x="350" 
d="M32 0zM273 0q-33 110 -57 189t-40.5 134t-26.5 90t-16.5 57t-10 34.5t-5.5 22.5h-5q1 -32 1 -67v-77v-383h-81v757h102q22 -84 38 -143.5t26.5 -100t17 -65t10 -39t5 -22t2.5 -13.5h5q-1 19 -1 39v54v290h82v-757h-46zM315 860q-14 -23 -33.5 -32.5t-44.5 -9.5
q-20 0 -39.5 7.5t-36.5 20.5q-14 11 -25.5 14.5t-29.5 3.5q-20 0 -36.5 -12t-30.5 -32h-4v68q10 18 29 29.5t43 11.5q39 0 71 -21q21 -14 33 -19.5t31 -5.5t36.5 10.5t31.5 33.5h5v-67z" />
    <glyph glyph-name="ograve" unicode="&#xf2;" 
d="M24 0zM50 49q-7 17 -12 37.5t-8 55.5t-4.5 91.5t-1.5 145.5t1.5 145t4.5 91t8 55t12 38q14 35 40 48.5t77 13.5t77 -13.5t40 -48.5q7 -18 12 -38t8 -55t4.5 -91t1.5 -145t-1.5 -145.5t-4.5 -91.5t-8 -55.5t-12 -37.5q-14 -35 -40 -48.5t-77 -13.5t-77 13.5t-40 48.5z
M210 113q3 12 5 26t3.5 41.5t2.5 74.5t1 126t-0.5 126.5t-2 75t-3.5 41t-5 25.5q-5 18 -14.5 25.5t-29.5 7.5t-29 -7.5t-14 -24.5q-3 -12 -5.5 -26t-4 -41.5t-2 -75t-0.5 -126.5t0.5 -126t2 -74.5t4 -41.5t5.5 -26q5 -18 14 -25t29 -7t29 7t14 25zM142 789l-96 168v5h81
l81 -169v-4h-66z" />
    <glyph glyph-name="oacute" unicode="&#xf3;" 
d="M24 0zM50 49q-7 17 -12 37.5t-8 55.5t-4.5 91.5t-1.5 145.5t1.5 145t4.5 91t8 55t12 38q14 35 40 48.5t77 13.5t77 -13.5t40 -48.5q7 -18 12 -38t8 -55t4.5 -91t1.5 -145t-1.5 -145.5t-4.5 -91.5t-8 -55.5t-12 -37.5q-14 -35 -40 -48.5t-77 -13.5t-77 13.5t-40 48.5z
M210 113q3 12 5 26t3.5 41.5t2.5 74.5t1 126t-0.5 126.5t-2 75t-3.5 41t-5 25.5q-5 18 -14.5 25.5t-29.5 7.5t-29 -7.5t-14 -24.5q-3 -12 -5.5 -26t-4 -41.5t-2 -75t-0.5 -126.5t0.5 -126t2 -74.5t4 -41.5t5.5 -26q5 -18 14 -25t29 -7t29 7t14 25zM126 789v4l80 169h81v-5
l-95 -168h-66z" />
    <glyph glyph-name="ocircumflex" unicode="&#xf4;" 
d="M24 0zM50 49q-7 17 -12 37.5t-8 55.5t-4.5 91.5t-1.5 145.5t1.5 145t4.5 91t8 55t12 38q14 35 40 48.5t77 13.5t77 -13.5t40 -48.5q7 -18 12 -38t8 -55t4.5 -91t1.5 -145t-1.5 -145.5t-4.5 -91.5t-8 -55.5t-12 -37.5q-14 -35 -40 -48.5t-77 -13.5t-77 13.5t-40 48.5z
M210 113q3 12 5 26t3.5 41.5t2.5 74.5t1 126t-0.5 126.5t-2 75t-3.5 41t-5 25.5q-5 18 -14.5 25.5t-29.5 7.5t-29 -7.5t-14 -24.5q-3 -12 -5.5 -26t-4 -41.5t-2 -75t-0.5 -126.5t0.5 -126t2 -74.5t4 -41.5t5.5 -26q5 -18 14 -25t29 -7t29 7t14 25zM216 789l-46 91h-7
l-46 -91h-73v4l92 169h61l93 -169v-4h-74z" />
    <glyph glyph-name="otilde" unicode="&#xf5;" 
d="M24 0zM50 49q-7 17 -12 37.5t-8 55.5t-4.5 91.5t-1.5 145.5t1.5 145t4.5 91t8 55t12 38q14 35 40 48.5t77 13.5t77 -13.5t40 -48.5q7 -18 12 -38t8 -55t4.5 -91t1.5 -145t-1.5 -145.5t-4.5 -91.5t-8 -55.5t-12 -37.5q-14 -35 -40 -48.5t-77 -13.5t-77 13.5t-40 48.5z
M210 113q3 12 5 26t3.5 41.5t2.5 74.5t1 126t-0.5 126.5t-2 75t-3.5 41t-5 25.5q-5 18 -14.5 25.5t-29.5 7.5t-29 -7.5t-14 -24.5q-3 -12 -5.5 -26t-4 -41.5t-2 -75t-0.5 -126.5t0.5 -126t2 -74.5t4 -41.5t5.5 -26q5 -18 14 -25t29 -7t29 7t14 25zM307 860
q-14 -23 -33.5 -32.5t-44.5 -9.5q-20 0 -39.5 7.5t-36.5 20.5q-14 11 -25.5 14.5t-29.5 3.5q-20 0 -36.5 -12t-30.5 -32h-4v68q10 18 29 29.5t43 11.5q39 0 71 -21q21 -14 33 -19.5t31 -5.5t36.5 10.5t31.5 33.5h5v-67z" />
    <glyph glyph-name="odieresis" unicode="&#xf6;" 
d="M24 0zM50 49q-7 17 -12 37.5t-8 55.5t-4.5 91.5t-1.5 145.5t1.5 145t4.5 91t8 55t12 38q14 35 40 48.5t77 13.5t77 -13.5t40 -48.5q7 -18 12 -38t8 -55t4.5 -91t1.5 -145t-1.5 -145.5t-4.5 -91.5t-8 -55.5t-12 -37.5q-14 -35 -40 -48.5t-77 -13.5t-77 13.5t-40 48.5z
M210 113q3 12 5 26t3.5 41.5t2.5 74.5t1 126t-0.5 126.5t-2 75t-3.5 41t-5 25.5q-5 18 -14.5 25.5t-29.5 7.5t-29 -7.5t-14 -24.5q-3 -12 -5.5 -26t-4 -41.5t-2 -75t-0.5 -126.5t0.5 -126t2 -74.5t4 -41.5t5.5 -26q5 -18 14 -25t29 -7t29 7t14 25zM202 815v112h77v-112h-77z
M54 815v112h77v-112h-77z" />
    <glyph glyph-name="divide" unicode="&#xf7;" 
d="M19 119zM19 345v68h296v-68h-296zM123 513v126h88v-126h-88zM123 119v126h88v-126h-88z" />
    <glyph glyph-name="oslash" unicode="&#xf8;" 
d="M24 0zM30 -130l34 153q-5 5 -8 11.5t-6 14.5q-7 17 -12 37.5t-8 55.5t-4.5 91.5t-1.5 145.5t1.5 145t4.5 91t8 55t12 38q14 35 40 48.5t77 13.5q38 0 60 -7l20 90h46l-26 -116q5 -6 9 -13.5t8 -15.5q7 -18 12 -38t8 -55t4.5 -91t1.5 -145t-1.5 -145.5t-4.5 -91.5
t-8 -55.5t-12 -37.5q-14 -35 -40 -48.5t-77 -13.5q-41 0 -64 8l-27 -125h-46zM220 543q-2 -19 -6.5 -42.5t-14 -70t-27 -124.5t-45.5 -204q5 -12 14 -16.5t26 -4.5q20 0 29 7t14 25q3 12 5 26t3.5 41.5t2.5 74.5t1 126v88t2 74h-4zM114 217q2 12 4.5 25t6.5 32.5t10 49.5
t15.5 75.5t22.5 110t32 154.5q-10 18 -38 18q-20 0 -29 -7.5t-14 -24.5q-3 -12 -5.5 -26t-4 -41.5t-2 -75t-0.5 -126.5v-88t-2 -76h4z" />
    <glyph glyph-name="ugrave" unicode="&#xf9;" horiz-adv-x="341" 
d="M27 0zM225 757h88v-547q0 -38 -0.5 -64t-2 -45t-5.5 -33t-11 -28q-15 -30 -42.5 -41.5t-80.5 -11.5q-54 0 -81.5 11.5t-42.5 41.5q-7 14 -11 28t-6 33t-2.5 45t-0.5 64v547h91v-547q0 -30 0.5 -48.5t1.5 -30.5t3.5 -19t6.5 -14q6 -10 15.5 -13.5t26.5 -3.5t26 3.5
t15 13.5q4 7 6.5 14t3.5 19t1.5 30.5t0.5 48.5v547zM147 789l-96 168v5h81l81 -169v-4h-66z" />
    <glyph glyph-name="uacute" unicode="&#xfa;" horiz-adv-x="341" 
d="M27 0zM225 757h88v-547q0 -38 -0.5 -64t-2 -45t-5.5 -33t-11 -28q-15 -30 -42.5 -41.5t-80.5 -11.5q-54 0 -81.5 11.5t-42.5 41.5q-7 14 -11 28t-6 33t-2.5 45t-0.5 64v547h91v-547q0 -30 0.5 -48.5t1.5 -30.5t3.5 -19t6.5 -14q6 -10 15.5 -13.5t26.5 -3.5t26 3.5
t15 13.5q4 7 6.5 14t3.5 19t1.5 30.5t0.5 48.5v547zM131 789v4l80 169h81v-5l-95 -168h-66z" />
    <glyph glyph-name="ucircumflex" unicode="&#xfb;" horiz-adv-x="341" 
d="M27 0zM225 757h88v-547q0 -38 -0.5 -64t-2 -45t-5.5 -33t-11 -28q-15 -30 -42.5 -41.5t-80.5 -11.5q-54 0 -81.5 11.5t-42.5 41.5q-7 14 -11 28t-6 33t-2.5 45t-0.5 64v547h91v-547q0 -30 0.5 -48.5t1.5 -30.5t3.5 -19t6.5 -14q6 -10 15.5 -13.5t26.5 -3.5t26 3.5
t15 13.5q4 7 6.5 14t3.5 19t1.5 30.5t0.5 48.5v547zM221 789l-46 91h-7l-46 -91h-73v4l92 169h61l93 -169v-4h-74z" />
    <glyph glyph-name="udieresis" unicode="&#xfc;" horiz-adv-x="341" 
d="M27 0zM225 757h88v-547q0 -38 -0.5 -64t-2 -45t-5.5 -33t-11 -28q-15 -30 -42.5 -41.5t-80.5 -11.5q-54 0 -81.5 11.5t-42.5 41.5q-7 14 -11 28t-6 33t-2.5 45t-0.5 64v547h91v-547q0 -30 0.5 -48.5t1.5 -30.5t3.5 -19t6.5 -14q6 -10 15.5 -13.5t26.5 -3.5t26 3.5
t15 13.5q4 7 6.5 14t3.5 19t1.5 30.5t0.5 48.5v547zM206 815v112h77v-112h-77zM58 815v112h77v-112h-77z" />
    <glyph glyph-name="yacute" unicode="&#xfd;" horiz-adv-x="325" 
d="M9 0zM116 0v330l-107 422v5h89q19 -88 30.5 -141t17.5 -83.5t8.5 -44t4.5 -22.5h7q1 9 4 22.5t9.5 44t18 83.5t31.5 141h87v-5l-105 -421v-331h-95zM123 789v4l80 169h81v-5l-95 -168h-66z" />
    <glyph glyph-name="thorn" unicode="&#xfe;" horiz-adv-x="333" 
d="M33 0zM33 0v757h88v-116h70q36 0 59 -12.5t36.5 -42.5t19 -80t5.5 -126q0 -74 -5.5 -125.5t-19 -83.5t-36.5 -46t-59 -14h-70v-111h-88zM177 199q13 0 21.5 5t13.5 24t7.5 55t2.5 99q0 57 -2.5 91t-7.5 51.5t-14.5 22.5t-22.5 5h-54v-353h56z" />
    <glyph glyph-name="ydieresis" unicode="&#xff;" horiz-adv-x="325" 
d="M9 0zM116 0v330l-107 422v5h89q19 -88 30.5 -141t17.5 -83.5t8.5 -44t4.5 -22.5h7q1 9 4 22.5t9.5 44t18 83.5t31.5 141h87v-5l-105 -421v-331h-95zM198 815v112h77v-112h-77zM50 815v112h77v-112h-77z" />
    <glyph glyph-name="Amacron" unicode="&#x100;" horiz-adv-x="327" 
d="M16 0zM220 0l-17 206h-81l-17 -206h-89l75 757h150l70 -757h-91zM175 577q-2 23 -4 45t-4 45h-7q-2 -23 -4 -45t-4 -45l-26 -284h73zM24 845v63h280v-63h-280z" />
    <glyph glyph-name="amacron" unicode="&#x101;" horiz-adv-x="327" 
d="M16 0zM220 0l-17 206h-81l-17 -206h-89l75 757h150l70 -757h-91zM175 577q-2 23 -4 45t-4 45h-7q-2 -23 -4 -45t-4 -45l-26 -284h73zM24 845v63h280v-63h-280z" />
    <glyph glyph-name="Abreve" unicode="&#x102;" horiz-adv-x="327" 
d="M16 0zM220 0l-17 206h-81l-17 -206h-89l75 757h150l70 -757h-91zM175 577q-2 23 -4 45t-4 45h-7q-2 -23 -4 -45t-4 -45l-26 -284h73zM278 962q0 -38 -1 -62t-4 -39t-7.5 -25t-11.5 -19q-12 -16 -31 -21.5t-60 -6.5q-41 1 -60 6.5t-31 21.5q-7 9 -11.5 19t-7.5 25t-4 39
t-1 62h61q0 -31 0.5 -49.5t1.5 -29t3 -15.5t5 -9q6 -9 13.5 -11.5t30.5 -2.5t30.5 2.5t13.5 11.5q3 4 5 9t3 15.5t1.5 29t0.5 49.5h61z" />
    <glyph glyph-name="abreve" unicode="&#x103;" horiz-adv-x="327" 
d="M16 0zM220 0l-17 206h-81l-17 -206h-89l75 757h150l70 -757h-91zM175 577q-2 23 -4 45t-4 45h-7q-2 -23 -4 -45t-4 -45l-26 -284h73zM278 962q0 -38 -1 -62t-4 -39t-7.5 -25t-11.5 -19q-12 -16 -31 -21.5t-60 -6.5q-41 1 -60 6.5t-31 21.5q-7 9 -11.5 19t-7.5 25t-4 39
t-1 62h61q0 -31 0.5 -49.5t1.5 -29t3 -15.5t5 -9q6 -9 13.5 -11.5t30.5 -2.5t30.5 2.5t13.5 11.5q3 4 5 9t3 15.5t1.5 29t0.5 49.5h61z" />
    <glyph glyph-name="Aogonek" unicode="&#x104;" horiz-adv-x="327" 
d="M310 -212q-6 -8 -27 -17t-56 -9q-49 0 -73 25t-24 83q0 40 20.5 70.5t70.5 47.5l-18 218h-81l-17 -206h-89l75 757h150l70 -757q-26 -10 -45 -19t-31.5 -20t-19 -25.5t-6.5 -35.5q0 -67 55 -67q15 0 24.5 2.5t17.5 7.5h4v-55zM175 577q-2 23 -4 45t-4 45h-7
q-2 -23 -4 -45t-4 -45l-26 -284h73z" />
    <glyph glyph-name="aogonek" unicode="&#x105;" horiz-adv-x="327" 
d="M16 0zM310 -212q-6 -8 -27 -17t-56 -9q-49 0 -73 25t-24 83q0 40 20.5 70.5t70.5 47.5l-18 218h-81l-17 -206h-89l75 757h150l70 -757q-26 -10 -45 -19t-31.5 -20t-19 -25.5t-6.5 -35.5q0 -67 55 -67q15 0 24.5 2.5t17.5 7.5h4v-55zM175 577q-2 23 -4 45t-4 45h-7
q-2 -23 -4 -45t-4 -45l-26 -284h73z" />
    <glyph glyph-name="Cacute" unicode="&#x106;" 
d="M24 0zM305 290q2 -17 2 -34v-34q0 -59 -6.5 -103t-22 -73.5t-41.5 -44t-66 -14.5q-53 0 -80 13.5t-41 48.5q-7 16 -12 38t-8 59t-4.5 94t-1.5 145q0 101 2.5 160.5t6.5 92.5t9 47t9 24q14 33 38.5 47t77.5 14q37 0 59 -6.5t38 -22.5q20 -20 31 -70t11 -124
q0 -20 -0.5 -35t-1.5 -32h-84q1 16 1 28v37q0 46 -3.5 74t-10.5 42q-6 13 -15 17t-25 4q-20 0 -29 -7t-14 -25q-3 -12 -5.5 -26.5t-4 -42.5t-2 -74.5t-0.5 -120.5q0 -75 0.5 -123t2 -77t4 -45t5.5 -28q5 -17 14.5 -24.5t32.5 -7.5q18 0 27.5 10.5t14.5 30.5t7.5 46.5
t2.5 61.5v31t-1 29h83zM128 789v4l80 169h81v-5l-95 -168h-66z" />
    <glyph glyph-name="cacute" unicode="&#x107;" 
d="M24 0zM305 290q2 -17 2 -34v-34q0 -59 -6.5 -103t-22 -73.5t-41.5 -44t-66 -14.5q-53 0 -80 13.5t-41 48.5q-7 16 -12 38t-8 59t-4.5 94t-1.5 145q0 101 2.5 160.5t6.5 92.5t9 47t9 24q14 33 38.5 47t77.5 14q37 0 59 -6.5t38 -22.5q20 -20 31 -70t11 -124
q0 -20 -0.5 -35t-1.5 -32h-84q1 16 1 28v37q0 46 -3.5 74t-10.5 42q-6 13 -15 17t-25 4q-20 0 -29 -7t-14 -25q-3 -12 -5.5 -26.5t-4 -42.5t-2 -74.5t-0.5 -120.5q0 -75 0.5 -123t2 -77t4 -45t5.5 -28q5 -17 14.5 -24.5t32.5 -7.5q18 0 27.5 10.5t14.5 30.5t7.5 46.5
t2.5 61.5v31t-1 29h83zM128 789v4l80 169h81v-5l-95 -168h-66z" />
    <glyph glyph-name="Cdotaccent" unicode="&#x10a;" 
d="M24 0zM305 290q2 -17 2 -34v-34q0 -59 -6.5 -103t-22 -73.5t-41.5 -44t-66 -14.5q-53 0 -80 13.5t-41 48.5q-7 16 -12 38t-8 59t-4.5 94t-1.5 145q0 101 2.5 160.5t6.5 92.5t9 47t9 24q14 33 38.5 47t77.5 14q37 0 59 -6.5t38 -22.5q20 -20 31 -70t11 -124
q0 -20 -0.5 -35t-1.5 -32h-84q1 16 1 28v37q0 46 -3.5 74t-10.5 42q-6 13 -15 17t-25 4q-20 0 -29 -7t-14 -25q-3 -12 -5.5 -26.5t-4 -42.5t-2 -74.5t-0.5 -120.5q0 -75 0.5 -123t2 -77t4 -45t5.5 -28q5 -17 14.5 -24.5t32.5 -7.5q18 0 27.5 10.5t14.5 30.5t7.5 46.5
t2.5 61.5v31t-1 29h83zM130 815v112h77v-112h-77z" />
    <glyph glyph-name="cdotaccent" unicode="&#x10b;" 
d="M24 0zM305 290q2 -17 2 -34v-34q0 -59 -6.5 -103t-22 -73.5t-41.5 -44t-66 -14.5q-53 0 -80 13.5t-41 48.5q-7 16 -12 38t-8 59t-4.5 94t-1.5 145q0 101 2.5 160.5t6.5 92.5t9 47t9 24q14 33 38.5 47t77.5 14q37 0 59 -6.5t38 -22.5q20 -20 31 -70t11 -124
q0 -20 -0.5 -35t-1.5 -32h-84q1 16 1 28v37q0 46 -3.5 74t-10.5 42q-6 13 -15 17t-25 4q-20 0 -29 -7t-14 -25q-3 -12 -5.5 -26.5t-4 -42.5t-2 -74.5t-0.5 -120.5q0 -75 0.5 -123t2 -77t4 -45t5.5 -28q5 -17 14.5 -24.5t32.5 -7.5q18 0 27.5 10.5t14.5 30.5t7.5 46.5
t2.5 61.5v31t-1 29h83zM130 815v112h77v-112h-77z" />
    <glyph glyph-name="Ccaron" unicode="&#x10c;" 
d="M24 0zM305 290q2 -17 2 -34v-34q0 -59 -6.5 -103t-22 -73.5t-41.5 -44t-66 -14.5q-53 0 -80 13.5t-41 48.5q-7 16 -12 38t-8 59t-4.5 94t-1.5 145q0 101 2.5 160.5t6.5 92.5t9 47t9 24q14 33 38.5 47t77.5 14q37 0 59 -6.5t38 -22.5q20 -20 31 -70t11 -124
q0 -20 -0.5 -35t-1.5 -32h-84q1 16 1 28v37q0 46 -3.5 74t-10.5 42q-6 13 -15 17t-25 4q-20 0 -29 -7t-14 -25q-3 -12 -5.5 -26.5t-4 -42.5t-2 -74.5t-0.5 -120.5q0 -75 0.5 -123t2 -77t4 -45t5.5 -28q5 -17 14.5 -24.5t32.5 -7.5q18 0 27.5 10.5t14.5 30.5t7.5 46.5
t2.5 61.5v31t-1 29h83zM139 789l-93 169v4h74l46 -91h7l46 91h73v-4l-92 -169h-61z" />
    <glyph glyph-name="ccaron" unicode="&#x10d;" 
d="M24 0zM305 290q2 -17 2 -34v-34q0 -59 -6.5 -103t-22 -73.5t-41.5 -44t-66 -14.5q-53 0 -80 13.5t-41 48.5q-7 16 -12 38t-8 59t-4.5 94t-1.5 145q0 101 2.5 160.5t6.5 92.5t9 47t9 24q14 33 38.5 47t77.5 14q37 0 59 -6.5t38 -22.5q20 -20 31 -70t11 -124
q0 -20 -0.5 -35t-1.5 -32h-84q1 16 1 28v37q0 46 -3.5 74t-10.5 42q-6 13 -15 17t-25 4q-20 0 -29 -7t-14 -25q-3 -12 -5.5 -26.5t-4 -42.5t-2 -74.5t-0.5 -120.5q0 -75 0.5 -123t2 -77t4 -45t5.5 -28q5 -17 14.5 -24.5t32.5 -7.5q18 0 27.5 10.5t14.5 30.5t7.5 46.5
t2.5 61.5v31t-1 29h83zM139 789l-93 169v4h74l46 -91h7l46 91h73v-4l-92 -169h-61z" />
    <glyph glyph-name="Dcaron" unicode="&#x10e;" horiz-adv-x="347" 
d="M33 0zM33 0v757h147q51 0 77 -13t41 -47q7 -17 12 -36.5t8 -53.5t4 -88t1 -140q0 -89 -1.5 -144t-4.5 -88.5t-7.5 -52.5t-11.5 -35q-14 -34 -40 -46.5t-78 -12.5h-147zM178 93q20 0 29.5 6.5t14.5 23.5q3 11 5.5 25t3.5 41t1.5 72t0.5 119q0 72 -0.5 116.5t-1.5 72t-3 42
t-6 25.5q-6 17 -15.5 24t-28.5 7h-57v-574h57zM136 789l-93 169v4h74l46 -91h7l46 91h73v-4l-92 -169h-61z" />
    <glyph glyph-name="dcaron" unicode="&#x10f;" horiz-adv-x="347" 
d="M33 0zM33 0v757h147q51 0 77 -13t41 -47q7 -17 12 -36.5t8 -53.5t4 -88t1 -140q0 -89 -1.5 -144t-4.5 -88.5t-7.5 -52.5t-11.5 -35q-14 -34 -40 -46.5t-78 -12.5h-147zM178 93q20 0 29.5 6.5t14.5 23.5q3 11 5.5 25t3.5 41t1.5 72t0.5 119q0 72 -0.5 116.5t-1.5 72t-3 42
t-6 25.5q-6 17 -15.5 24t-28.5 7h-57v-574h57zM136 789l-93 169v4h74l46 -91h7l46 91h73v-4l-92 -169h-61z" />
    <glyph glyph-name="Dcroat" unicode="&#x110;" horiz-adv-x="346" 
d="M7 0zM33 0v343h-26v86h26v328h147q51 0 77 -13t41 -47q7 -17 12 -36.5t8 -53.5t4 -88t1 -140q0 -89 -1.5 -144t-4.5 -88.5t-7.5 -52.5t-11.5 -35q-14 -34 -40 -46.5t-78 -12.5h-147zM178 93q20 0 29.5 6.5t14.5 23.5q3 11 5.5 25t3.5 41t1.5 72t0.5 119q0 72 -0.5 116.5
t-1.5 72t-3 42t-6 25.5q-6 17 -15.5 24t-28.5 7h-57v-238h71v-86h-71v-250h57z" />
    <glyph glyph-name="dcroat" unicode="&#x111;" horiz-adv-x="346" 
d="M7 0zM33 0v343h-26v86h26v328h147q51 0 77 -13t41 -47q7 -17 12 -36.5t8 -53.5t4 -88t1 -140q0 -89 -1.5 -144t-4.5 -88.5t-7.5 -52.5t-11.5 -35q-14 -34 -40 -46.5t-78 -12.5h-147zM178 93q20 0 29.5 6.5t14.5 23.5q3 11 5.5 25t3.5 41t1.5 72t0.5 119q0 72 -0.5 116.5
t-1.5 72t-3 42t-6 25.5q-6 17 -15.5 24t-28.5 7h-57v-238h71v-86h-71v-250h57z" />
    <glyph glyph-name="Emacron" unicode="&#x112;" horiz-adv-x="294" 
d="M12 0zM33 0v757h234v-90h-146v-238h144v-86h-144v-249h145v-94h-233zM12 845v63h280v-63h-280z" />
    <glyph glyph-name="emacron" unicode="&#x113;" horiz-adv-x="294" 
d="M12 0zM33 0v757h234v-90h-146v-238h144v-86h-144v-249h145v-94h-233zM12 845v63h280v-63h-280z" />
    <glyph glyph-name="Ebreve" unicode="&#x114;" horiz-adv-x="294" 
d="M33 0zM33 0v757h234v-90h-146v-238h144v-86h-144v-249h145v-94h-233zM267 962q0 -38 -1 -62t-4 -39t-7.5 -25t-11.5 -19q-12 -16 -31 -21.5t-60 -6.5q-41 1 -60 6.5t-31 21.5q-7 9 -11.5 19t-7.5 25t-4 39t-1 62h61q0 -31 0.5 -49.5t1.5 -29t3 -15.5t5 -9
q6 -9 13.5 -11.5t30.5 -2.5t30.5 2.5t13.5 11.5q3 4 5 9t3 15.5t1.5 29t0.5 49.5h61z" />
    <glyph glyph-name="ebreve" unicode="&#x115;" horiz-adv-x="294" 
d="M33 0zM33 0v757h234v-90h-146v-238h144v-86h-144v-249h145v-94h-233zM267 962q0 -38 -1 -62t-4 -39t-7.5 -25t-11.5 -19q-12 -16 -31 -21.5t-60 -6.5q-41 1 -60 6.5t-31 21.5q-7 9 -11.5 19t-7.5 25t-4 39t-1 62h61q0 -31 0.5 -49.5t1.5 -29t3 -15.5t5 -9
q6 -9 13.5 -11.5t30.5 -2.5t30.5 2.5t13.5 11.5q3 4 5 9t3 15.5t1.5 29t0.5 49.5h61z" />
    <glyph glyph-name="Edotaccent" unicode="&#x116;" horiz-adv-x="294" 
d="M33 0zM33 0v757h234v-90h-146v-238h144v-86h-144v-249h145v-94h-233zM113 815v112h77v-112h-77z" />
    <glyph glyph-name="edotaccent" unicode="&#x117;" horiz-adv-x="294" 
d="M33 0zM33 0v757h234v-90h-146v-238h144v-86h-144v-249h145v-94h-233zM113 815v112h77v-112h-77z" />
    <glyph glyph-name="Eogonek" unicode="&#x118;" horiz-adv-x="294" 
d="M265 -212q-6 -8 -27 -17t-56 -9q-49 0 -73 25t-24 83q0 49 32 83t109 47h-193v757h234v-90h-146v-238h144v-86h-144v-249h145v-94q-26 -10 -45 -19t-31.5 -20t-19 -25.5t-6.5 -35.5q0 -67 55 -67q15 0 24.5 2.5t17.5 7.5h4v-55z" />
    <glyph glyph-name="eogonek" unicode="&#x119;" horiz-adv-x="294" 
d="M33 0zM265 -212q-6 -8 -27 -17t-56 -9q-49 0 -73 25t-24 83q0 49 32 83t109 47h-193v757h234v-90h-146v-238h144v-86h-144v-249h145v-94q-26 -10 -45 -19t-31.5 -20t-19 -25.5t-6.5 -35.5q0 -67 55 -67q15 0 24.5 2.5t17.5 7.5h4v-55z" />
    <glyph glyph-name="Ecaron" unicode="&#x11a;" horiz-adv-x="294" 
d="M29 0zM33 0v757h234v-90h-146v-238h144v-86h-144v-249h145v-94h-233zM122 789l-93 169v4h74l46 -91h7l46 91h73v-4l-92 -169h-61z" />
    <glyph glyph-name="ecaron" unicode="&#x11b;" horiz-adv-x="294" 
d="M29 0zM33 0v757h234v-90h-146v-238h144v-86h-144v-249h145v-94h-233zM122 789l-93 169v4h74l46 -91h7l46 91h73v-4l-92 -169h-61z" />
    <glyph glyph-name="Gbreve" unicode="&#x11e;" horiz-adv-x="331" 
d="M24 0zM150 334v86h157q1 -19 1.5 -49t0.5 -75q0 -62 -1.5 -103t-5 -68t-8 -44t-10.5 -32q-14 -35 -40 -48.5t-77 -13.5t-77 13.5t-40 48.5q-7 17 -12 37.5t-8 56.5t-4.5 93t-1.5 149q0 88 1.5 143t4.5 89.5t8 53.5t11 34q15 38 41.5 51.5t76.5 13.5q56 0 82 -17t37 -48
q13 -34 16 -70t3 -70v-23t-1 -16h-84q1 7 1 15.5v23.5q0 19 -1.5 38.5t-6.5 42.5q-4 17 -13.5 26.5t-32.5 9.5q-20 0 -30 -8t-15 -29q-3 -10 -5 -23.5t-3.5 -41.5t-2.5 -74t-1 -120q0 -78 1 -126t3 -76.5t4.5 -43t5.5 -26.5q5 -19 13.5 -26.5t31.5 -7.5q20 0 30 7.5t15 25.5
q3 11 5.5 24.5t4 32t2.5 44.5t1 62v36t-1 22h-76zM281 962q0 -38 -1 -62t-4 -39t-7.5 -25t-11.5 -19q-12 -16 -31 -21.5t-60 -6.5q-41 1 -60 6.5t-31 21.5q-7 9 -11.5 19t-7.5 25t-4 39t-1 62h61q0 -31 0.5 -49.5t1.5 -29t3 -15.5t5 -9q6 -9 13.5 -11.5t30.5 -2.5t30.5 2.5
t13.5 11.5q3 4 5 9t3 15.5t1.5 29t0.5 49.5h61z" />
    <glyph glyph-name="gbreve" unicode="&#x11f;" horiz-adv-x="331" 
d="M24 0zM150 334v86h157q1 -19 1.5 -49t0.5 -75q0 -62 -1.5 -103t-5 -68t-8 -44t-10.5 -32q-14 -35 -40 -48.5t-77 -13.5t-77 13.5t-40 48.5q-7 17 -12 37.5t-8 56.5t-4.5 93t-1.5 149q0 88 1.5 143t4.5 89.5t8 53.5t11 34q15 38 41.5 51.5t76.5 13.5q56 0 82 -17t37 -48
q13 -34 16 -70t3 -70v-23t-1 -16h-84q1 7 1 15.5v23.5q0 19 -1.5 38.5t-6.5 42.5q-4 17 -13.5 26.5t-32.5 9.5q-20 0 -30 -8t-15 -29q-3 -10 -5 -23.5t-3.5 -41.5t-2.5 -74t-1 -120q0 -78 1 -126t3 -76.5t4.5 -43t5.5 -26.5q5 -19 13.5 -26.5t31.5 -7.5q20 0 30 7.5t15 25.5
q3 11 5.5 24.5t4 32t2.5 44.5t1 62v36t-1 22h-76zM281 962q0 -38 -1 -62t-4 -39t-7.5 -25t-11.5 -19q-12 -16 -31 -21.5t-60 -6.5q-41 1 -60 6.5t-31 21.5q-7 9 -11.5 19t-7.5 25t-4 39t-1 62h61q0 -31 0.5 -49.5t1.5 -29t3 -15.5t5 -9q6 -9 13.5 -11.5t30.5 -2.5t30.5 2.5
t13.5 11.5q3 4 5 9t3 15.5t1.5 29t0.5 49.5h61z" />
    <glyph glyph-name="Gdotaccent" unicode="&#x120;" horiz-adv-x="331" 
d="M24 0zM150 334v86h157q1 -19 1.5 -49t0.5 -75q0 -62 -1.5 -103t-5 -68t-8 -44t-10.5 -32q-14 -35 -40 -48.5t-77 -13.5t-77 13.5t-40 48.5q-7 17 -12 37.5t-8 56.5t-4.5 93t-1.5 149q0 88 1.5 143t4.5 89.5t8 53.5t11 34q15 38 41.5 51.5t76.5 13.5q56 0 82 -17t37 -48
q13 -34 16 -70t3 -70v-23t-1 -16h-84q1 7 1 15.5v23.5q0 19 -1.5 38.5t-6.5 42.5q-4 17 -13.5 26.5t-32.5 9.5q-20 0 -30 -8t-15 -29q-3 -10 -5 -23.5t-3.5 -41.5t-2.5 -74t-1 -120q0 -78 1 -126t3 -76.5t4.5 -43t5.5 -26.5q5 -19 13.5 -26.5t31.5 -7.5q20 0 30 7.5t15 25.5
q3 11 5.5 24.5t4 32t2.5 44.5t1 62v36t-1 22h-76zM129 815v112h77v-112h-77z" />
    <glyph glyph-name="gdotaccent" unicode="&#x121;" horiz-adv-x="331" 
d="M24 0zM150 334v86h157q1 -19 1.5 -49t0.5 -75q0 -62 -1.5 -103t-5 -68t-8 -44t-10.5 -32q-14 -35 -40 -48.5t-77 -13.5t-77 13.5t-40 48.5q-7 17 -12 37.5t-8 56.5t-4.5 93t-1.5 149q0 88 1.5 143t4.5 89.5t8 53.5t11 34q15 38 41.5 51.5t76.5 13.5q56 0 82 -17t37 -48
q13 -34 16 -70t3 -70v-23t-1 -16h-84q1 7 1 15.5v23.5q0 19 -1.5 38.5t-6.5 42.5q-4 17 -13.5 26.5t-32.5 9.5q-20 0 -30 -8t-15 -29q-3 -10 -5 -23.5t-3.5 -41.5t-2.5 -74t-1 -120q0 -78 1 -126t3 -76.5t4.5 -43t5.5 -26.5q5 -19 13.5 -26.5t31.5 -7.5q20 0 30 7.5t15 25.5
q3 11 5.5 24.5t4 32t2.5 44.5t1 62v36t-1 22h-76zM129 815v112h77v-112h-77z" />
    <glyph glyph-name="Gcommaaccent" unicode="&#x122;" horiz-adv-x="331" 
d="M24 0zM150 334v86h157q1 -19 1.5 -49t0.5 -75q0 -62 -1.5 -103t-5 -68t-8 -44t-10.5 -32q-14 -35 -40 -48.5t-77 -13.5t-77 13.5t-40 48.5q-7 17 -12 37.5t-8 56.5t-4.5 93t-1.5 149q0 88 1.5 143t4.5 89.5t8 53.5t11 34q15 38 41.5 51.5t76.5 13.5q56 0 82 -17t37 -48
q13 -34 16 -70t3 -70v-23t-1 -16h-84q1 7 1 15.5v23.5q0 19 -1.5 38.5t-6.5 42.5q-4 17 -13.5 26.5t-32.5 9.5q-20 0 -30 -8t-15 -29q-3 -10 -5 -23.5t-3.5 -41.5t-2.5 -74t-1 -120q0 -78 1 -126t3 -76.5t4.5 -43t5.5 -26.5q5 -19 13.5 -26.5t31.5 -7.5q20 0 30 7.5t15 25.5
q3 11 5.5 24.5t4 32t2.5 44.5t1 62v36t-1 22h-76zM74 -238v5l56 192h79v-5l-71 -192h-64z" />
    <glyph glyph-name="gcommaaccent" unicode="&#x123;" horiz-adv-x="331" 
d="M24 0zM150 334v86h157q1 -19 1.5 -49t0.5 -75q0 -62 -1.5 -103t-5 -68t-8 -44t-10.5 -32q-14 -35 -40 -48.5t-77 -13.5t-77 13.5t-40 48.5q-7 17 -12 37.5t-8 56.5t-4.5 93t-1.5 149q0 88 1.5 143t4.5 89.5t8 53.5t11 34q15 38 41.5 51.5t76.5 13.5q56 0 82 -17t37 -48
q13 -34 16 -70t3 -70v-23t-1 -16h-84q1 7 1 15.5v23.5q0 19 -1.5 38.5t-6.5 42.5q-4 17 -13.5 26.5t-32.5 9.5q-20 0 -30 -8t-15 -29q-3 -10 -5 -23.5t-3.5 -41.5t-2.5 -74t-1 -120q0 -78 1 -126t3 -76.5t4.5 -43t5.5 -26.5q5 -19 13.5 -26.5t31.5 -7.5q20 0 30 7.5t15 25.5
q3 11 5.5 24.5t4 32t2.5 44.5t1 62v36t-1 22h-76zM74 -238v5l56 192h79v-5l-71 -192h-64z" />
    <glyph glyph-name="Hbar" unicode="&#x126;" horiz-adv-x="357" 
d="M235 0v335h-113v-335h-91v757h91v-138h113v138h90v-757h-90zM235 556h-113v-135h113v135z" />
    <glyph glyph-name="hbar" unicode="&#x127;" horiz-adv-x="357" 
d="M31 0zM235 0v335h-113v-335h-91v757h91v-138h113v138h90v-757h-90zM235 556h-113v-135h113v135z" />
    <glyph glyph-name="Imacron" unicode="&#x12a;" horiz-adv-x="159" 
d="M0 0zM34 0v757h91v-757h-91zM-60 845v63h280v-63h-280z" />
    <glyph glyph-name="imacron" unicode="&#x12b;" horiz-adv-x="159" 
d="M0 0zM34 0v757h91v-757h-91zM-60 845v63h280v-63h-280z" />
    <glyph glyph-name="Ibreve" unicode="&#x12c;" horiz-adv-x="183" 
d="M0 0zM46 0v757h91v-757h-91zM207 962q0 -38 -1 -62t-4 -39t-7.5 -25t-11.5 -19q-12 -16 -31 -21.5t-60 -6.5q-41 1 -60 6.5t-31 21.5q-7 9 -11.5 19t-7.5 25t-4 39t-1 62h61q0 -31 0.5 -49.5t1.5 -29t3 -15.5t5 -9q6 -9 13.5 -11.5t30.5 -2.5t30.5 2.5t13.5 11.5q3 4 5 9
t3 15.5t1.5 29t0.5 49.5h61z" />
    <glyph glyph-name="ibreve" unicode="&#x12d;" horiz-adv-x="183" 
d="M0 0zM46 0v757h91v-757h-91zM207 962q0 -38 -1 -62t-4 -39t-7.5 -25t-11.5 -19q-12 -16 -31 -21.5t-60 -6.5q-41 1 -60 6.5t-31 21.5q-7 9 -11.5 19t-7.5 25t-4 39t-1 62h61q0 -31 0.5 -49.5t1.5 -29t3 -15.5t5 -9q6 -9 13.5 -11.5t30.5 -2.5t30.5 2.5t13.5 11.5q3 4 5 9
t3 15.5t1.5 29t0.5 49.5h61z" />
    <glyph glyph-name="Iogonek" unicode="&#x12e;" horiz-adv-x="159" 
d="M124 -212q-6 -8 -27 -17t-56 -9q-49 0 -73 25t-24 83q0 40 21 70.5t69 47.5v769h91v-757q-26 -10 -45 -19t-31.5 -20t-19 -25.5t-6.5 -35.5q0 -67 55 -67q15 0 24.5 2.5t17.5 7.5h4v-55z" />
    <glyph glyph-name="iogonek" unicode="&#x12f;" horiz-adv-x="159" 
d="M0 0zM124 -212q-6 -8 -27 -17t-56 -9q-49 0 -73 25t-24 83q0 40 21 70.5t69 47.5v769h91v-757q-26 -10 -45 -19t-31.5 -20t-19 -25.5t-6.5 -35.5q0 -67 55 -67q15 0 24.5 2.5t17.5 7.5h4v-55z" />
    <glyph glyph-name="Idotaccent" unicode="&#x130;" horiz-adv-x="159" 
d="M34 0zM34 0v757h91v-757h-91zM41 815v112h77v-112h-77z" />
    <glyph glyph-name="dotlessi" unicode="&#x131;" horiz-adv-x="159" 
d="M34 0zM34 0v757h91v-757h-91z" />
    <glyph glyph-name="IJ" unicode="&#x132;" horiz-adv-x="485" 
d="M34 0zM34 0v757h91v-757h-91zM367 757h91v-367q0 -86 -1.5 -143t-4.5 -94t-8 -59.5t-12 -40.5q-7 -17 -15.5 -29.5t-22 -20.5t-33 -12t-49.5 -4q-58 0 -85 20.5t-40 68.5q-3 13 -5.5 26t-4 29.5t-2 38.5t-0.5 52q0 26 0.5 40t2.5 28h80q-1 -8 -1 -21v-47q0 -32 3 -63.5
t9 -49.5q5 -14 12.5 -21t28.5 -7q23 0 31 7.5t13 24.5q3 12 5.5 29t4 47t2.5 77.5t1 121.5v369z" />
    <glyph glyph-name="ij" unicode="&#x133;" horiz-adv-x="485" 
d="M34 0zM34 0v757h91v-757h-91zM367 757h91v-367q0 -86 -1.5 -143t-4.5 -94t-8 -59.5t-12 -40.5q-7 -17 -15.5 -29.5t-22 -20.5t-33 -12t-49.5 -4q-58 0 -85 20.5t-40 68.5q-3 13 -5.5 26t-4 29.5t-2 38.5t-0.5 52q0 26 0.5 40t2.5 28h80q-1 -8 -1 -21v-47q0 -32 3 -63.5
t9 -49.5q5 -14 12.5 -21t28.5 -7q23 0 31 7.5t13 24.5q3 12 5.5 29t4 47t2.5 77.5t1 121.5v369z" />
    <glyph glyph-name="Kcommaaccent" unicode="&#x136;" horiz-adv-x="356" 
d="M33 0zM246 0q-27 85 -46 144.5t-32 100t-20.5 64.5t-11 37.5t-5 19t-2.5 9.5h-7q1 -12 1 -25v-41v-309h-90v757h90v-264v-40t-1 -24h7q1 5 4.5 14.5t14.5 41.5t33.5 95.5t63.5 176.5h92v-5l-126 -342l132 -406v-4h-97zM89 -238v5l56 192h79v-5l-71 -192h-64z" />
    <glyph glyph-name="kcommaaccent" unicode="&#x137;" horiz-adv-x="356" 
d="M33 0zM246 0q-27 85 -46 144.5t-32 100t-20.5 64.5t-11 37.5t-5 19t-2.5 9.5h-7q1 -12 1 -25v-41v-309h-90v757h90v-264v-40t-1 -24h7q1 5 4.5 14.5t14.5 41.5t33.5 95.5t63.5 176.5h92v-5l-126 -342l132 -406v-4h-97zM89 -238v5l56 192h79v-5l-71 -192h-64z" />
    <glyph glyph-name="Lacute" unicode="&#x139;" horiz-adv-x="268" 
d="M33 0zM33 0v757h88v-663h135v-94h-223zM93 789v4l80 169h81v-5l-95 -168h-66z" />
    <glyph glyph-name="lacute" unicode="&#x13a;" horiz-adv-x="268" 
d="M33 0zM33 0v757h88v-663h135v-94h-223zM93 789v4l80 169h81v-5l-95 -168h-66z" />
    <glyph glyph-name="Lcommaaccent" unicode="&#x13b;" horiz-adv-x="268" 
d="M33 0zM33 0v757h88v-663h135v-94h-223zM45 -238v5l56 192h79v-5l-71 -192h-64z" />
    <glyph glyph-name="lcommaaccent" unicode="&#x13c;" horiz-adv-x="268" 
d="M33 0zM33 0v757h88v-663h135v-94h-223zM45 -238v5l56 192h79v-5l-71 -192h-64z" />
    <glyph glyph-name="Lcaron" unicode="&#x13d;" horiz-adv-x="271" 
d="M33 0zM33 0v757h88v-663h135v-94h-223zM151 591v5l56 192h79v-5l-71 -192h-64z" />
    <glyph glyph-name="lcaron" unicode="&#x13e;" horiz-adv-x="271" 
d="M33 0zM33 0v757h88v-663h135v-94h-223zM151 591v5l56 192h79v-5l-71 -192h-64z" />
    <glyph glyph-name="Ldot" unicode="&#x13f;" horiz-adv-x="293" 
d="M33 0zM33 0v757h88v-663h135v-94h-223zM181 347v112h77v-112h-77z" />
    <glyph glyph-name="ldot" unicode="&#x140;" horiz-adv-x="293" 
d="M33 0zM33 0v757h88v-663h135v-94h-223zM181 347v112h77v-112h-77z" />
    <glyph glyph-name="Lslash" unicode="&#x141;" horiz-adv-x="272" 
d="M31 0v417l-19 -12h-5v94l24 16v242h89v-184l91 60h4v-93l-95 -63v-383h134v-94h-223z" />
    <glyph glyph-name="lslash" unicode="&#x142;" horiz-adv-x="272" 
d="M7 0zM31 0v417l-19 -12h-5v94l24 16v242h89v-184l91 60h4v-93l-95 -63v-383h134v-94h-223z" />
    <glyph glyph-name="Nacute" unicode="&#x143;" horiz-adv-x="350" 
d="M32 0zM273 0q-33 110 -57 189t-40.5 134t-26.5 90t-16.5 57t-10 34.5t-5.5 22.5h-5q1 -32 1 -67v-77v-383h-81v757h102q22 -84 38 -143.5t26.5 -100t17 -65t10 -39t5 -22t2.5 -13.5h5q-1 19 -1 39v54v290h82v-757h-46zM136 789v4l80 169h81v-5l-95 -168h-66z" />
    <glyph glyph-name="nacute" unicode="&#x144;" horiz-adv-x="350" 
d="M32 0zM273 0q-33 110 -57 189t-40.5 134t-26.5 90t-16.5 57t-10 34.5t-5.5 22.5h-5q1 -32 1 -67v-77v-383h-81v757h102q22 -84 38 -143.5t26.5 -100t17 -65t10 -39t5 -22t2.5 -13.5h5q-1 19 -1 39v54v290h82v-757h-46zM136 789v4l80 169h81v-5l-95 -168h-66z" />
    <glyph glyph-name="Ncommaaccent" unicode="&#x145;" horiz-adv-x="350" 
d="M32 0zM273 0q-33 110 -57 189t-40.5 134t-26.5 90t-16.5 57t-10 34.5t-5.5 22.5h-5q1 -32 1 -67v-77v-383h-81v757h102q22 -84 38 -143.5t26.5 -100t17 -65t10 -39t5 -22t2.5 -13.5h5q-1 19 -1 39v54v290h82v-757h-46zM91 -238v5l56 192h79v-5l-71 -192h-64z" />
    <glyph glyph-name="ncommaaccent" unicode="&#x146;" horiz-adv-x="350" 
d="M32 0zM273 0q-33 110 -57 189t-40.5 134t-26.5 90t-16.5 57t-10 34.5t-5.5 22.5h-5q1 -32 1 -67v-77v-383h-81v757h102q22 -84 38 -143.5t26.5 -100t17 -65t10 -39t5 -22t2.5 -13.5h5q-1 19 -1 39v54v290h82v-757h-46zM91 -238v5l56 192h79v-5l-71 -192h-64z" />
    <glyph glyph-name="Ncaron" unicode="&#x147;" horiz-adv-x="350" 
d="M32 0zM273 0q-33 110 -57 189t-40.5 134t-26.5 90t-16.5 57t-10 34.5t-5.5 22.5h-5q1 -32 1 -67v-77v-383h-81v757h102q22 -84 38 -143.5t26.5 -100t17 -65t10 -39t5 -22t2.5 -13.5h5q-1 19 -1 39v54v290h82v-757h-46zM145 789l-93 169v4h74l46 -91h7l46 91h73v-4
l-92 -169h-61z" />
    <glyph glyph-name="ncaron" unicode="&#x148;" horiz-adv-x="350" 
d="M32 0zM273 0q-33 110 -57 189t-40.5 134t-26.5 90t-16.5 57t-10 34.5t-5.5 22.5h-5q1 -32 1 -67v-77v-383h-81v757h102q22 -84 38 -143.5t26.5 -100t17 -65t10 -39t5 -22t2.5 -13.5h5q-1 19 -1 39v54v290h82v-757h-46zM145 789l-93 169v4h74l46 -91h7l46 91h73v-4
l-92 -169h-61z" />
    <glyph glyph-name="Eng" unicode="&#x14a;" horiz-adv-x="350" 
d="M137 -157h6q15 -6 36 -6q38 0 48 19t10 57v205l-83 273q-11 37 -20 71t-17 65h-5q1 -32 1 -67v-77v-383h-81v757h102l78 -295q8 -31 13 -50.5t8 -37.5h5q-1 19 -1 39v54v290h82v-845q0 -36 -4.5 -64t-18.5 -47t-39 -29t-65 -10q-6 0 -14 0.5t-16 2t-15 3.5t-10 5v70z" />
    <glyph glyph-name="eng" unicode="&#x14b;" horiz-adv-x="350" 
d="M32 0zM137 -157h6q15 -6 36 -6q38 0 48 19t10 57v205l-83 273q-11 37 -20 71t-17 65h-5q1 -32 1 -67v-77v-383h-81v757h102l78 -295q8 -31 13 -50.5t8 -37.5h5q-1 19 -1 39v54v290h82v-845q0 -36 -4.5 -64t-18.5 -47t-39 -29t-65 -10q-6 0 -14 0.5t-16 2t-15 3.5t-10 5
v70z" />
    <glyph glyph-name="Omacron" unicode="&#x14c;" 
d="M24 0zM50 49q-7 17 -12 37.5t-8 55.5t-4.5 91.5t-1.5 145.5t1.5 145t4.5 91t8 55t12 38q14 35 40 48.5t77 13.5t77 -13.5t40 -48.5q7 -18 12 -38t8 -55t4.5 -91t1.5 -145t-1.5 -145.5t-4.5 -91.5t-8 -55.5t-12 -37.5q-14 -35 -40 -48.5t-77 -13.5t-77 13.5t-40 48.5z
M210 113q3 12 5 26t3.5 41.5t2.5 74.5t1 126t-0.5 126.5t-2 75t-3.5 41t-5 25.5q-5 18 -14.5 25.5t-29.5 7.5t-29 -7.5t-14 -24.5q-3 -12 -5.5 -26t-4 -41.5t-2 -75t-0.5 -126.5t0.5 -126t2 -74.5t4 -41.5t5.5 -26q5 -18 14 -25t29 -7t29 7t14 25zM27 845v63h280v-63h-280z
" />
    <glyph glyph-name="omacron" unicode="&#x14d;" 
d="M24 0zM50 49q-7 17 -12 37.5t-8 55.5t-4.5 91.5t-1.5 145.5t1.5 145t4.5 91t8 55t12 38q14 35 40 48.5t77 13.5t77 -13.5t40 -48.5q7 -18 12 -38t8 -55t4.5 -91t1.5 -145t-1.5 -145.5t-4.5 -91.5t-8 -55.5t-12 -37.5q-14 -35 -40 -48.5t-77 -13.5t-77 13.5t-40 48.5z
M210 113q3 12 5 26t3.5 41.5t2.5 74.5t1 126t-0.5 126.5t-2 75t-3.5 41t-5 25.5q-5 18 -14.5 25.5t-29.5 7.5t-29 -7.5t-14 -24.5q-3 -12 -5.5 -26t-4 -41.5t-2 -75t-0.5 -126.5t0.5 -126t2 -74.5t4 -41.5t5.5 -26q5 -18 14 -25t29 -7t29 7t14 25zM27 845v63h280v-63h-280z
" />
    <glyph glyph-name="Obreve" unicode="&#x14e;" 
d="M24 0zM50 49q-7 17 -12 37.5t-8 55.5t-4.5 91.5t-1.5 145.5t1.5 145t4.5 91t8 55t12 38q14 35 40 48.5t77 13.5t77 -13.5t40 -48.5q7 -18 12 -38t8 -55t4.5 -91t1.5 -145t-1.5 -145.5t-4.5 -91.5t-8 -55.5t-12 -37.5q-14 -35 -40 -48.5t-77 -13.5t-77 13.5t-40 48.5z
M210 113q3 12 5 26t3.5 41.5t2.5 74.5t1 126t-0.5 126.5t-2 75t-3.5 41t-5 25.5q-5 18 -14.5 25.5t-29.5 7.5t-29 -7.5t-14 -24.5q-3 -12 -5.5 -26t-4 -41.5t-2 -75t-0.5 -126.5t0.5 -126t2 -74.5t4 -41.5t5.5 -26q5 -18 14 -25t29 -7t29 7t14 25zM282 962q0 -38 -1 -62
t-4 -39t-7.5 -25t-11.5 -19q-12 -16 -31 -21.5t-60 -6.5q-41 1 -60 6.5t-31 21.5q-7 9 -11.5 19t-7.5 25t-4 39t-1 62h61q0 -31 0.5 -49.5t1.5 -29t3 -15.5t5 -9q6 -9 13.5 -11.5t30.5 -2.5t30.5 2.5t13.5 11.5q3 4 5 9t3 15.5t1.5 29t0.5 49.5h61z" />
    <glyph glyph-name="obreve" unicode="&#x14f;" 
d="M24 0zM50 49q-7 17 -12 37.5t-8 55.5t-4.5 91.5t-1.5 145.5t1.5 145t4.5 91t8 55t12 38q14 35 40 48.5t77 13.5t77 -13.5t40 -48.5q7 -18 12 -38t8 -55t4.5 -91t1.5 -145t-1.5 -145.5t-4.5 -91.5t-8 -55.5t-12 -37.5q-14 -35 -40 -48.5t-77 -13.5t-77 13.5t-40 48.5z
M210 113q3 12 5 26t3.5 41.5t2.5 74.5t1 126t-0.5 126.5t-2 75t-3.5 41t-5 25.5q-5 18 -14.5 25.5t-29.5 7.5t-29 -7.5t-14 -24.5q-3 -12 -5.5 -26t-4 -41.5t-2 -75t-0.5 -126.5t0.5 -126t2 -74.5t4 -41.5t5.5 -26q5 -18 14 -25t29 -7t29 7t14 25zM282 962q0 -38 -1 -62
t-4 -39t-7.5 -25t-11.5 -19q-12 -16 -31 -21.5t-60 -6.5q-41 1 -60 6.5t-31 21.5q-7 9 -11.5 19t-7.5 25t-4 39t-1 62h61q0 -31 0.5 -49.5t1.5 -29t3 -15.5t5 -9q6 -9 13.5 -11.5t30.5 -2.5t30.5 2.5t13.5 11.5q3 4 5 9t3 15.5t1.5 29t0.5 49.5h61z" />
    <glyph glyph-name="Ohungarumlaut" unicode="&#x150;" 
d="M24 0zM50 49q-7 17 -12 37.5t-8 55.5t-4.5 91.5t-1.5 145.5t1.5 145t4.5 91t8 55t12 38q14 35 40 48.5t77 13.5t77 -13.5t40 -48.5q7 -18 12 -38t8 -55t4.5 -91t1.5 -145t-1.5 -145.5t-4.5 -91.5t-8 -55.5t-12 -37.5q-14 -35 -40 -48.5t-77 -13.5t-77 13.5t-40 48.5z
M210 113q3 12 5 26t3.5 41.5t2.5 74.5t1 126t-0.5 126.5t-2 75t-3.5 41t-5 25.5q-5 18 -14.5 25.5t-29.5 7.5t-29 -7.5t-14 -24.5q-3 -12 -5.5 -26t-4 -41.5t-2 -75t-0.5 -126.5t0.5 -126t2 -74.5t4 -41.5t5.5 -26q5 -18 14 -25t29 -7t29 7t14 25zM194 789v4l81 169h81v-5
l-95 -168h-67zM58 789v4l80 169h81v-5l-95 -168h-66z" />
    <glyph glyph-name="ohungarumlaut" unicode="&#x151;" 
d="M24 0zM50 49q-7 17 -12 37.5t-8 55.5t-4.5 91.5t-1.5 145.5t1.5 145t4.5 91t8 55t12 38q14 35 40 48.5t77 13.5t77 -13.5t40 -48.5q7 -18 12 -38t8 -55t4.5 -91t1.5 -145t-1.5 -145.5t-4.5 -91.5t-8 -55.5t-12 -37.5q-14 -35 -40 -48.5t-77 -13.5t-77 13.5t-40 48.5z
M210 113q3 12 5 26t3.5 41.5t2.5 74.5t1 126t-0.5 126.5t-2 75t-3.5 41t-5 25.5q-5 18 -14.5 25.5t-29.5 7.5t-29 -7.5t-14 -24.5q-3 -12 -5.5 -26t-4 -41.5t-2 -75t-0.5 -126.5t0.5 -126t2 -74.5t4 -41.5t5.5 -26q5 -18 14 -25t29 -7t29 7t14 25zM194 789v4l81 169h81v-5
l-95 -168h-67zM58 789v4l80 169h81v-5l-95 -168h-66z" />
    <glyph glyph-name="OE" unicode="&#x152;" horiz-adv-x="490" 
d="M167 0q-53 0 -79 12t-39 47q-6 17 -11 35.5t-8 52t-4.5 88.5t-1.5 144q0 86 1 140t4 87.5t8 53.5t13 37q14 34 40.5 47t76.5 13h294v-90h-147v-238h144v-86h-144v-249h146v-94h-293zM226 667h-57q-20 0 -29 -7t-14 -24q-4 -11 -6 -25.5t-3.5 -41.5t-2 -72t-0.5 -117
q0 -74 0.5 -119t2 -72t4 -40.5t5.5 -25.5q5 -17 14 -23.5t29 -6.5h57v574z" />
    <glyph glyph-name="oe" unicode="&#x153;" horiz-adv-x="490" 
d="M24 0zM167 0q-53 0 -79 12t-39 47q-6 17 -11 35.5t-8 52t-4.5 88.5t-1.5 144q0 86 1 140t4 87.5t8 53.5t13 37q14 34 40.5 47t76.5 13h294v-90h-147v-238h144v-86h-144v-249h146v-94h-293zM226 667h-57q-20 0 -29 -7t-14 -24q-4 -11 -6 -25.5t-3.5 -41.5t-2 -72
t-0.5 -117q0 -74 0.5 -119t2 -72t4 -40.5t5.5 -25.5q5 -17 14 -23.5t29 -6.5h57v574z" />
    <glyph glyph-name="Racute" unicode="&#x154;" horiz-adv-x="341" 
d="M33 0zM232 0q-3 6 -5 12.5t-3.5 18.5t-3 32.5t-3.5 54.5q-2 38 -4.5 76.5t-7.5 76.5q-5 31 -13.5 40t-28.5 9h-42v-320h-88v757h160q35 0 54 -8.5t33 -26.5q9 -12 15.5 -26.5t10.5 -34.5t5.5 -46.5t1.5 -61.5q0 -36 -1 -60.5t-3.5 -42t-5.5 -29.5t-7 -22
q-7 -17 -16.5 -26t-20.5 -14v-5q10 -5 19.5 -18.5t13.5 -44.5q7 -52 11.5 -105.5t7.5 -111.5q2 -23 4.5 -39t7.5 -31v-4h-91zM161 401q18 0 30 5t20 22q4 8 6 16t3.5 21.5t2 34t0.5 53.5q0 25 -0.5 41.5t-1.5 27t-3.5 17t-5.5 11.5q-12 19 -35 19h-56v-268h40zM127 789v4
l80 169h81v-5l-95 -168h-66z" />
    <glyph glyph-name="racute" unicode="&#x155;" horiz-adv-x="341" 
d="M33 0zM232 0q-3 6 -5 12.5t-3.5 18.5t-3 32.5t-3.5 54.5q-2 38 -4.5 76.5t-7.5 76.5q-5 31 -13.5 40t-28.5 9h-42v-320h-88v757h160q35 0 54 -8.5t33 -26.5q9 -12 15.5 -26.5t10.5 -34.5t5.5 -46.5t1.5 -61.5q0 -36 -1 -60.5t-3.5 -42t-5.5 -29.5t-7 -22
q-7 -17 -16.5 -26t-20.5 -14v-5q10 -5 19.5 -18.5t13.5 -44.5q7 -52 11.5 -105.5t7.5 -111.5q2 -23 4.5 -39t7.5 -31v-4h-91zM161 401q18 0 30 5t20 22q4 8 6 16t3.5 21.5t2 34t0.5 53.5q0 25 -0.5 41.5t-1.5 27t-3.5 17t-5.5 11.5q-12 19 -35 19h-56v-268h40zM127 789v4
l80 169h81v-5l-95 -168h-66z" />
    <glyph glyph-name="Rcommaaccent" unicode="&#x156;" horiz-adv-x="341" 
d="M33 0zM232 0q-3 6 -5 12.5t-3.5 18.5t-3 32.5t-3.5 54.5q-2 38 -4.5 76.5t-7.5 76.5q-5 31 -13.5 40t-28.5 9h-42v-320h-88v757h160q35 0 54 -8.5t33 -26.5q9 -12 15.5 -26.5t10.5 -34.5t5.5 -46.5t1.5 -61.5q0 -36 -1 -60.5t-3.5 -42t-5.5 -29.5t-7 -22
q-7 -17 -16.5 -26t-20.5 -14v-5q10 -5 19.5 -18.5t13.5 -44.5q7 -52 11.5 -105.5t7.5 -111.5q2 -23 4.5 -39t7.5 -31v-4h-91zM161 401q18 0 30 5t20 22q4 8 6 16t3.5 21.5t2 34t0.5 53.5q0 25 -0.5 41.5t-1.5 27t-3.5 17t-5.5 11.5q-12 19 -35 19h-56v-268h40zM85 -238v5
l56 192h79v-5l-71 -192h-64z" />
    <glyph glyph-name="rcommaaccent" unicode="&#x157;" horiz-adv-x="341" 
d="M33 0zM232 0q-3 6 -5 12.5t-3.5 18.5t-3 32.5t-3.5 54.5q-2 38 -4.5 76.5t-7.5 76.5q-5 31 -13.5 40t-28.5 9h-42v-320h-88v757h160q35 0 54 -8.5t33 -26.5q9 -12 15.5 -26.5t10.5 -34.5t5.5 -46.5t1.5 -61.5q0 -36 -1 -60.5t-3.5 -42t-5.5 -29.5t-7 -22
q-7 -17 -16.5 -26t-20.5 -14v-5q10 -5 19.5 -18.5t13.5 -44.5q7 -52 11.5 -105.5t7.5 -111.5q2 -23 4.5 -39t7.5 -31v-4h-91zM161 401q18 0 30 5t20 22q4 8 6 16t3.5 21.5t2 34t0.5 53.5q0 25 -0.5 41.5t-1.5 27t-3.5 17t-5.5 11.5q-12 19 -35 19h-56v-268h40zM85 -238v5
l56 192h79v-5l-71 -192h-64z" />
    <glyph glyph-name="Rcaron" unicode="&#x158;" horiz-adv-x="341" 
d="M33 0zM232 0q-3 6 -5 12.5t-3.5 18.5t-3 32.5t-3.5 54.5q-2 38 -4.5 76.5t-7.5 76.5q-5 31 -13.5 40t-28.5 9h-42v-320h-88v757h160q35 0 54 -8.5t33 -26.5q9 -12 15.5 -26.5t10.5 -34.5t5.5 -46.5t1.5 -61.5q0 -36 -1 -60.5t-3.5 -42t-5.5 -29.5t-7 -22
q-7 -17 -16.5 -26t-20.5 -14v-5q10 -5 19.5 -18.5t13.5 -44.5q7 -52 11.5 -105.5t7.5 -111.5q2 -23 4.5 -39t7.5 -31v-4h-91zM161 401q18 0 30 5t20 22q4 8 6 16t3.5 21.5t2 34t0.5 53.5q0 25 -0.5 41.5t-1.5 27t-3.5 17t-5.5 11.5q-12 19 -35 19h-56v-268h40zM137 789
l-93 169v4h74l46 -91h7l46 91h73v-4l-92 -169h-61z" />
    <glyph glyph-name="rcaron" unicode="&#x159;" horiz-adv-x="341" 
d="M33 0zM232 0q-3 6 -5 12.5t-3.5 18.5t-3 32.5t-3.5 54.5q-2 38 -4.5 76.5t-7.5 76.5q-5 31 -13.5 40t-28.5 9h-42v-320h-88v757h160q35 0 54 -8.5t33 -26.5q9 -12 15.5 -26.5t10.5 -34.5t5.5 -46.5t1.5 -61.5q0 -36 -1 -60.5t-3.5 -42t-5.5 -29.5t-7 -22
q-7 -17 -16.5 -26t-20.5 -14v-5q10 -5 19.5 -18.5t13.5 -44.5q7 -52 11.5 -105.5t7.5 -111.5q2 -23 4.5 -39t7.5 -31v-4h-91zM161 401q18 0 30 5t20 22q4 8 6 16t3.5 21.5t2 34t0.5 53.5q0 25 -0.5 41.5t-1.5 27t-3.5 17t-5.5 11.5q-12 19 -35 19h-56v-268h40zM137 789
l-93 169v4h74l46 -91h7l46 91h73v-4l-92 -169h-61z" />
    <glyph glyph-name="Sacute" unicode="&#x15a;" horiz-adv-x="311" 
d="M21 0zM103 253q-2 -11 -2.5 -25t-0.5 -35q0 -44 2 -63.5t9 -32.5q6 -11 14 -15.5t25 -4.5q20 0 28.5 4.5t15.5 17.5q7 14 9 36t2 72v32t-1 21.5t-2 15t-3 14.5q-4 14 -10.5 21t-21.5 18q-12 9 -27 18.5t-30 19.5t-29 20.5t-24 20.5t-17 22.5t-11 32.5t-6 51t-2 79
q0 63 7.5 94.5t25.5 51.5q16 17 37 24t60 7q46 0 69.5 -10t36.5 -27q14 -19 19 -46.5t5 -78.5q0 -32 -1.5 -52.5t-4.5 -33.5h-75q2 10 2.5 24.5t0.5 37.5q0 38 -3 56.5t-11 29.5q-6 8 -14 10.5t-24 2.5t-23.5 -3t-13.5 -12q-7 -11 -9.5 -29t-2.5 -58v-37.5t0.5 -24t2 -16
t3.5 -13.5q5 -13 10 -19.5t21 -18.5q18 -14 43.5 -28t48.5 -31q18 -13 26.5 -21.5t16.5 -24.5q4 -9 7 -18t4.5 -24t2 -38.5t0.5 -60.5q0 -39 -2 -66.5t-5.5 -47t-8.5 -33t-11 -25.5q-12 -23 -38 -35t-74 -12q-41 0 -64.5 9t-37.5 35q-6 11 -11 23t-8 28t-4.5 38t-1.5 54
q0 26 1.5 45.5t3.5 33.5h76zM113 789v4l80 169h81v-5l-95 -168h-66z" />
    <glyph glyph-name="sacute" unicode="&#x15b;" horiz-adv-x="311" 
d="M21 0zM103 253q-2 -11 -2.5 -25t-0.5 -35q0 -44 2 -63.5t9 -32.5q6 -11 14 -15.5t25 -4.5q20 0 28.5 4.5t15.5 17.5q7 14 9 36t2 72v32t-1 21.5t-2 15t-3 14.5q-4 14 -10.5 21t-21.5 18q-12 9 -27 18.5t-30 19.5t-29 20.5t-24 20.5t-17 22.5t-11 32.5t-6 51t-2 79
q0 63 7.5 94.5t25.5 51.5q16 17 37 24t60 7q46 0 69.5 -10t36.5 -27q14 -19 19 -46.5t5 -78.5q0 -32 -1.5 -52.5t-4.5 -33.5h-75q2 10 2.5 24.5t0.5 37.5q0 38 -3 56.5t-11 29.5q-6 8 -14 10.5t-24 2.5t-23.5 -3t-13.5 -12q-7 -11 -9.5 -29t-2.5 -58v-37.5t0.5 -24t2 -16
t3.5 -13.5q5 -13 10 -19.5t21 -18.5q18 -14 43.5 -28t48.5 -31q18 -13 26.5 -21.5t16.5 -24.5q4 -9 7 -18t4.5 -24t2 -38.5t0.5 -60.5q0 -39 -2 -66.5t-5.5 -47t-8.5 -33t-11 -25.5q-12 -23 -38 -35t-74 -12q-41 0 -64.5 9t-37.5 35q-6 11 -11 23t-8 28t-4.5 38t-1.5 54
q0 26 1.5 45.5t3.5 33.5h76zM113 789v4l80 169h81v-5l-95 -168h-66z" />
    <glyph glyph-name="Scedilla" unicode="&#x15e;" horiz-adv-x="311" 
d="M21 0zM103 253q-2 -11 -2.5 -25t-0.5 -35q0 -44 2 -63.5t9 -32.5q6 -11 14 -15.5t25 -4.5q20 0 28.5 4.5t15.5 17.5q7 14 9 36t2 72v32t-1 21.5t-2 15t-3 14.5q-4 14 -10.5 21t-21.5 18q-12 9 -27 18.5t-30 19.5t-29 20.5t-24 20.5t-17 22.5t-11 32.5t-6 51t-2 79
q0 63 7.5 94.5t25.5 51.5q16 17 37 24t60 7q46 0 69.5 -10t36.5 -27q14 -19 19 -46.5t5 -78.5q0 -32 -1.5 -52.5t-4.5 -33.5h-75q2 10 2.5 24.5t0.5 37.5q0 38 -3 56.5t-11 29.5q-6 8 -14 10.5t-24 2.5t-23.5 -3t-13.5 -12q-7 -11 -9.5 -29t-2.5 -58v-37.5t0.5 -24t2 -16
t3.5 -13.5q5 -13 10 -19.5t21 -18.5q18 -14 43.5 -28t48.5 -31q18 -13 26.5 -21.5t16.5 -24.5q4 -9 7 -18t4.5 -24t2 -38.5t0.5 -60.5q0 -39 -2 -66.5t-5.5 -47t-8.5 -33t-11 -25.5q-12 -23 -38 -35t-74 -12q-41 0 -64.5 9t-37.5 35q-6 11 -11 23t-8 28t-4.5 38t-1.5 54
q0 26 1.5 45.5t3.5 33.5h76zM52 -238v5l56 192h79v-5l-71 -192h-64z" />
    <glyph glyph-name="scedilla" unicode="&#x15f;" horiz-adv-x="311" 
d="M21 0zM103 253q-2 -11 -2.5 -25t-0.5 -35q0 -44 2 -63.5t9 -32.5q6 -11 14 -15.5t25 -4.5q20 0 28.5 4.5t15.5 17.5q7 14 9 36t2 72v32t-1 21.5t-2 15t-3 14.5q-4 14 -10.5 21t-21.5 18q-12 9 -27 18.5t-30 19.5t-29 20.5t-24 20.5t-17 22.5t-11 32.5t-6 51t-2 79
q0 63 7.5 94.5t25.5 51.5q16 17 37 24t60 7q46 0 69.5 -10t36.5 -27q14 -19 19 -46.5t5 -78.5q0 -32 -1.5 -52.5t-4.5 -33.5h-75q2 10 2.5 24.5t0.5 37.5q0 38 -3 56.5t-11 29.5q-6 8 -14 10.5t-24 2.5t-23.5 -3t-13.5 -12q-7 -11 -9.5 -29t-2.5 -58v-37.5t0.5 -24t2 -16
t3.5 -13.5q5 -13 10 -19.5t21 -18.5q18 -14 43.5 -28t48.5 -31q18 -13 26.5 -21.5t16.5 -24.5q4 -9 7 -18t4.5 -24t2 -38.5t0.5 -60.5q0 -39 -2 -66.5t-5.5 -47t-8.5 -33t-11 -25.5q-12 -23 -38 -35t-74 -12q-41 0 -64.5 9t-37.5 35q-6 11 -11 23t-8 28t-4.5 38t-1.5 54
q0 26 1.5 45.5t3.5 33.5h76zM52 -238v5l56 192h79v-5l-71 -192h-64z" />
    <glyph glyph-name="Scaron" unicode="&#x160;" horiz-adv-x="311" 
d="M21 0zM103 253q-2 -11 -2.5 -25t-0.5 -35q0 -44 2 -63.5t9 -32.5q6 -11 14 -15.5t25 -4.5q20 0 28.5 4.5t15.5 17.5q7 14 9 36t2 72v32t-1 21.5t-2 15t-3 14.5q-4 14 -10.5 21t-21.5 18q-12 9 -27 18.5t-30 19.5t-29 20.5t-24 20.5t-17 22.5t-11 32.5t-6 51t-2 79
q0 63 7.5 94.5t25.5 51.5q16 17 37 24t60 7q46 0 69.5 -10t36.5 -27q14 -19 19 -46.5t5 -78.5q0 -32 -1.5 -52.5t-4.5 -33.5h-75q2 10 2.5 24.5t0.5 37.5q0 38 -3 56.5t-11 29.5q-6 8 -14 10.5t-24 2.5t-23.5 -3t-13.5 -12q-7 -11 -9.5 -29t-2.5 -58v-37.5t0.5 -24t2 -16
t3.5 -13.5q5 -13 10 -19.5t21 -18.5q18 -14 43.5 -28t48.5 -31q18 -13 26.5 -21.5t16.5 -24.5q4 -9 7 -18t4.5 -24t2 -38.5t0.5 -60.5q0 -39 -2 -66.5t-5.5 -47t-8.5 -33t-11 -25.5q-12 -23 -38 -35t-74 -12q-41 0 -64.5 9t-37.5 35q-6 11 -11 23t-8 28t-4.5 38t-1.5 54
q0 26 1.5 45.5t3.5 33.5h76zM124 789l-93 169v4h74l46 -91h7l46 91h73v-4l-92 -169h-61z" />
    <glyph glyph-name="scaron" unicode="&#x161;" horiz-adv-x="311" 
d="M21 0zM103 253q-2 -11 -2.5 -25t-0.5 -35q0 -44 2 -63.5t9 -32.5q6 -11 14 -15.5t25 -4.5q20 0 28.5 4.5t15.5 17.5q7 14 9 36t2 72v32t-1 21.5t-2 15t-3 14.5q-4 14 -10.5 21t-21.5 18q-12 9 -27 18.5t-30 19.5t-29 20.5t-24 20.5t-17 22.5t-11 32.5t-6 51t-2 79
q0 63 7.5 94.5t25.5 51.5q16 17 37 24t60 7q46 0 69.5 -10t36.5 -27q14 -19 19 -46.5t5 -78.5q0 -32 -1.5 -52.5t-4.5 -33.5h-75q2 10 2.5 24.5t0.5 37.5q0 38 -3 56.5t-11 29.5q-6 8 -14 10.5t-24 2.5t-23.5 -3t-13.5 -12q-7 -11 -9.5 -29t-2.5 -58v-37.5t0.5 -24t2 -16
t3.5 -13.5q5 -13 10 -19.5t21 -18.5q18 -14 43.5 -28t48.5 -31q18 -13 26.5 -21.5t16.5 -24.5q4 -9 7 -18t4.5 -24t2 -38.5t0.5 -60.5q0 -39 -2 -66.5t-5.5 -47t-8.5 -33t-11 -25.5q-12 -23 -38 -35t-74 -12q-41 0 -64.5 9t-37.5 35q-6 11 -11 23t-8 28t-4.5 38t-1.5 54
q0 26 1.5 45.5t3.5 33.5h76zM124 789l-93 169v4h74l46 -91h7l46 91h73v-4l-92 -169h-61z" />
    <glyph glyph-name="uni0162" unicode="&#x162;" horiz-adv-x="300" 
d="M12 0zM106 0v667h-94v90h276v-90h-93v-667h-89zM54 -238v5l56 192h79v-5l-71 -192h-64z" />
    <glyph glyph-name="uni0163" unicode="&#x163;" horiz-adv-x="300" 
d="M12 0zM106 0v667h-94v90h276v-90h-93v-667h-89zM54 -238v5l56 192h79v-5l-71 -192h-64z" />
    <glyph glyph-name="Tcaron" unicode="&#x164;" horiz-adv-x="300" 
d="M12 0zM106 0v667h-94v90h276v-90h-93v-667h-89zM120 789l-93 169v4h74l46 -91h7l46 91h73v-4l-92 -169h-61z" />
    <glyph glyph-name="tcaron" unicode="&#x165;" horiz-adv-x="300" 
d="M12 0zM106 0v667h-94v90h276v-90h-93v-667h-89zM120 789l-93 169v4h74l46 -91h7l46 91h73v-4l-92 -169h-61z" />
    <glyph glyph-name="Tbar" unicode="&#x166;" horiz-adv-x="300" 
d="M106 0v443h-70v72h70v152h-94v90h276v-90h-93v-152h68v-72h-68v-443h-89z" />
    <glyph glyph-name="tbar" unicode="&#x167;" horiz-adv-x="300" 
d="M12 0zM106 0v443h-70v72h70v152h-94v90h276v-90h-93v-152h68v-72h-68v-443h-89z" />
    <glyph glyph-name="Utilde" unicode="&#x168;" horiz-adv-x="341" 
d="M27 0zM225 757h88v-547q0 -38 -0.5 -64t-2 -45t-5.5 -33t-11 -28q-15 -30 -42.5 -41.5t-80.5 -11.5q-54 0 -81.5 11.5t-42.5 41.5q-7 14 -11 28t-6 33t-2.5 45t-0.5 64v547h91v-547q0 -30 0.5 -48.5t1.5 -30.5t3.5 -19t6.5 -14q6 -10 15.5 -13.5t26.5 -3.5t26 3.5
t15 13.5q4 7 6.5 14t3.5 19t1.5 30.5t0.5 48.5v547zM311 860q-14 -23 -33.5 -32.5t-44.5 -9.5q-20 0 -39.5 7.5t-36.5 20.5q-14 11 -25.5 14.5t-29.5 3.5q-20 0 -36.5 -12t-30.5 -32h-4v68q10 18 29 29.5t43 11.5q39 0 71 -21q21 -14 33 -19.5t31 -5.5t36.5 10.5t31.5 33.5
h5v-67z" />
    <glyph glyph-name="utilde" unicode="&#x169;" horiz-adv-x="341" 
d="M27 0zM225 757h88v-547q0 -38 -0.5 -64t-2 -45t-5.5 -33t-11 -28q-15 -30 -42.5 -41.5t-80.5 -11.5q-54 0 -81.5 11.5t-42.5 41.5q-7 14 -11 28t-6 33t-2.5 45t-0.5 64v547h91v-547q0 -30 0.5 -48.5t1.5 -30.5t3.5 -19t6.5 -14q6 -10 15.5 -13.5t26.5 -3.5t26 3.5
t15 13.5q4 7 6.5 14t3.5 19t1.5 30.5t0.5 48.5v547zM311 860q-14 -23 -33.5 -32.5t-44.5 -9.5q-20 0 -39.5 7.5t-36.5 20.5q-14 11 -25.5 14.5t-29.5 3.5q-20 0 -36.5 -12t-30.5 -32h-4v68q10 18 29 29.5t43 11.5q39 0 71 -21q21 -14 33 -19.5t31 -5.5t36.5 10.5t31.5 33.5
h5v-67z" />
    <glyph glyph-name="Umacron" unicode="&#x16a;" horiz-adv-x="341" 
d="M27 0zM225 757h88v-547q0 -38 -0.5 -64t-2 -45t-5.5 -33t-11 -28q-15 -30 -42.5 -41.5t-80.5 -11.5q-54 0 -81.5 11.5t-42.5 41.5q-7 14 -11 28t-6 33t-2.5 45t-0.5 64v547h91v-547q0 -30 0.5 -48.5t1.5 -30.5t3.5 -19t6.5 -14q6 -10 15.5 -13.5t26.5 -3.5t26 3.5
t15 13.5q4 7 6.5 14t3.5 19t1.5 30.5t0.5 48.5v547zM31 845v63h280v-63h-280z" />
    <glyph glyph-name="umacron" unicode="&#x16b;" horiz-adv-x="341" 
d="M27 0zM225 757h88v-547q0 -38 -0.5 -64t-2 -45t-5.5 -33t-11 -28q-15 -30 -42.5 -41.5t-80.5 -11.5q-54 0 -81.5 11.5t-42.5 41.5q-7 14 -11 28t-6 33t-2.5 45t-0.5 64v547h91v-547q0 -30 0.5 -48.5t1.5 -30.5t3.5 -19t6.5 -14q6 -10 15.5 -13.5t26.5 -3.5t26 3.5
t15 13.5q4 7 6.5 14t3.5 19t1.5 30.5t0.5 48.5v547zM31 845v63h280v-63h-280z" />
    <glyph glyph-name="Ubreve" unicode="&#x16c;" horiz-adv-x="341" 
d="M27 0zM225 757h88v-547q0 -38 -0.5 -64t-2 -45t-5.5 -33t-11 -28q-15 -30 -42.5 -41.5t-80.5 -11.5q-54 0 -81.5 11.5t-42.5 41.5q-7 14 -11 28t-6 33t-2.5 45t-0.5 64v547h91v-547q0 -30 0.5 -48.5t1.5 -30.5t3.5 -19t6.5 -14q6 -10 15.5 -13.5t26.5 -3.5t26 3.5
t15 13.5q4 7 6.5 14t3.5 19t1.5 30.5t0.5 48.5v547zM285 962q0 -38 -1 -62t-4 -39t-7.5 -25t-11.5 -19q-12 -16 -31 -21.5t-60 -6.5q-41 1 -60 6.5t-31 21.5q-7 9 -11.5 19t-7.5 25t-4 39t-1 62h61q0 -31 0.5 -49.5t1.5 -29t3 -15.5t5 -9q6 -9 13.5 -11.5t30.5 -2.5
t30.5 2.5t13.5 11.5q3 4 5 9t3 15.5t1.5 29t0.5 49.5h61z" />
    <glyph glyph-name="ubreve" unicode="&#x16d;" horiz-adv-x="341" 
d="M27 0zM225 757h88v-547q0 -38 -0.5 -64t-2 -45t-5.5 -33t-11 -28q-15 -30 -42.5 -41.5t-80.5 -11.5q-54 0 -81.5 11.5t-42.5 41.5q-7 14 -11 28t-6 33t-2.5 45t-0.5 64v547h91v-547q0 -30 0.5 -48.5t1.5 -30.5t3.5 -19t6.5 -14q6 -10 15.5 -13.5t26.5 -3.5t26 3.5
t15 13.5q4 7 6.5 14t3.5 19t1.5 30.5t0.5 48.5v547zM285 962q0 -38 -1 -62t-4 -39t-7.5 -25t-11.5 -19q-12 -16 -31 -21.5t-60 -6.5q-41 1 -60 6.5t-31 21.5q-7 9 -11.5 19t-7.5 25t-4 39t-1 62h61q0 -31 0.5 -49.5t1.5 -29t3 -15.5t5 -9q6 -9 13.5 -11.5t30.5 -2.5
t30.5 2.5t13.5 11.5q3 4 5 9t3 15.5t1.5 29t0.5 49.5h61z" />
    <glyph glyph-name="Uring" unicode="&#x16e;" horiz-adv-x="341" 
d="M27 0zM225 757h88v-547q0 -38 -0.5 -64t-2 -45t-5.5 -33t-11 -28q-15 -30 -42.5 -41.5t-80.5 -11.5q-54 0 -81.5 11.5t-42.5 41.5q-7 14 -11 28t-6 33t-2.5 45t-0.5 64v547h91v-547q0 -30 0.5 -48.5t1.5 -30.5t3.5 -19t6.5 -14q6 -10 15.5 -13.5t26.5 -3.5t26 3.5
t15 13.5q4 7 6.5 14t3.5 19t1.5 30.5t0.5 48.5v547zM230 790q-8 -9 -21 -12t-39 -3t-39 3t-21 12q-3 4 -5.5 8.5t-4 13t-2.5 22t-1 34.5t0.5 34.5t2 22t4 13.5t6.5 9q7 8 20.5 11.5t39.5 3.5t39.5 -3.5t20.5 -11.5q4 -4 6.5 -9t4 -13.5t2.5 -22t1 -34.5t-1 -34.5t-2.5 -22
t-4.5 -13t-6 -8.5zM194 820q3 3 4.5 10.5t1.5 38.5q0 16 -0.5 25t-1 14t-2 7t-2.5 4q-2 2 -7 3.5t-17 1.5t-17 -1t-8 -4q-2 -2 -2.5 -4t-1.5 -7t-1 -14v-25q0 -31 1 -38.5t4 -10.5t8 -4t17 -1t17 1t7 4z" />
    <glyph glyph-name="uring" unicode="&#x16f;" horiz-adv-x="341" 
d="M27 0zM225 757h88v-547q0 -38 -0.5 -64t-2 -45t-5.5 -33t-11 -28q-15 -30 -42.5 -41.5t-80.5 -11.5q-54 0 -81.5 11.5t-42.5 41.5q-7 14 -11 28t-6 33t-2.5 45t-0.5 64v547h91v-547q0 -30 0.5 -48.5t1.5 -30.5t3.5 -19t6.5 -14q6 -10 15.5 -13.5t26.5 -3.5t26 3.5
t15 13.5q4 7 6.5 14t3.5 19t1.5 30.5t0.5 48.5v547zM230 790q-8 -9 -21 -12t-39 -3t-39 3t-21 12q-3 4 -5.5 8.5t-4 13t-2.5 22t-1 34.5t0.5 34.5t2 22t4 13.5t6.5 9q7 8 20.5 11.5t39.5 3.5t39.5 -3.5t20.5 -11.5q4 -4 6.5 -9t4 -13.5t2.5 -22t1 -34.5t-1 -34.5t-2.5 -22
t-4.5 -13t-6 -8.5zM194 820q3 3 4.5 10.5t1.5 38.5q0 16 -0.5 25t-1 14t-2 7t-2.5 4q-2 2 -7 3.5t-17 1.5t-17 -1t-8 -4q-2 -2 -2.5 -4t-1.5 -7t-1 -14v-25q0 -31 1 -38.5t4 -10.5t8 -4t17 -1t17 1t7 4z" />
    <glyph glyph-name="Uhungarumlaut" unicode="&#x170;" horiz-adv-x="341" 
d="M27 0zM225 757h88v-547q0 -38 -0.5 -64t-2 -45t-5.5 -33t-11 -28q-15 -30 -42.5 -41.5t-80.5 -11.5q-54 0 -81.5 11.5t-42.5 41.5q-7 14 -11 28t-6 33t-2.5 45t-0.5 64v547h91v-547q0 -30 0.5 -48.5t1.5 -30.5t3.5 -19t6.5 -14q6 -10 15.5 -13.5t26.5 -3.5t26 3.5
t15 13.5q4 7 6.5 14t3.5 19t1.5 30.5t0.5 48.5v547zM197 789v4l81 169h81v-5l-95 -168h-67zM61 789v4l80 169h81v-5l-95 -168h-66z" />
    <glyph glyph-name="uhungarumlaut" unicode="&#x171;" horiz-adv-x="341" 
d="M27 0zM225 757h88v-547q0 -38 -0.5 -64t-2 -45t-5.5 -33t-11 -28q-15 -30 -42.5 -41.5t-80.5 -11.5q-54 0 -81.5 11.5t-42.5 41.5q-7 14 -11 28t-6 33t-2.5 45t-0.5 64v547h91v-547q0 -30 0.5 -48.5t1.5 -30.5t3.5 -19t6.5 -14q6 -10 15.5 -13.5t26.5 -3.5t26 3.5
t15 13.5q4 7 6.5 14t3.5 19t1.5 30.5t0.5 48.5v547zM197 789v4l81 169h81v-5l-95 -168h-67zM61 789v4l80 169h81v-5l-95 -168h-66z" />
    <glyph glyph-name="Uogonek" unicode="&#x172;" horiz-adv-x="341" 
d="M254 -212q-6 -8 -27 -17t-56 -9q-49 0 -73 25t-24 83q0 40 20.5 70t68.5 47q-50 1 -76 12.5t-40 40.5q-7 14 -11 28t-6 33t-2.5 45t-0.5 64v547h91v-547q0 -30 0.5 -48.5t1.5 -30.5t3.5 -19t6.5 -14q6 -10 15.5 -13.5t26.5 -3.5t26 3.5t15 13.5q4 7 6.5 14t3.5 19
t1.5 30.5t0.5 48.5v547h88v-547q0 -58 -3.5 -95.5t-12.5 -61.5t-25.5 -38t-41.5 -25q-37 -16 -57 -34t-20 -56q0 -67 55 -67q15 0 24.5 2.5t17.5 7.5h4v-55z" />
    <glyph glyph-name="uogonek" unicode="&#x173;" horiz-adv-x="341" 
d="M27 0zM254 -212q-6 -8 -27 -17t-56 -9q-49 0 -73 25t-24 83q0 40 20.5 70t68.5 47q-50 1 -76 12.5t-40 40.5q-7 14 -11 28t-6 33t-2.5 45t-0.5 64v547h91v-547q0 -30 0.5 -48.5t1.5 -30.5t3.5 -19t6.5 -14q6 -10 15.5 -13.5t26.5 -3.5t26 3.5t15 13.5q4 7 6.5 14t3.5 19
t1.5 30.5t0.5 48.5v547h88v-547q0 -58 -3.5 -95.5t-12.5 -61.5t-25.5 -38t-41.5 -25q-37 -16 -57 -34t-20 -56q0 -67 55 -67q15 0 24.5 2.5t17.5 7.5h4v-55z" />
    <glyph glyph-name="Wcircumflex" unicode="&#x174;" horiz-adv-x="522" 
d="M18 0zM316 0q-11 119 -19 204t-13.5 144t-8.5 96t-5 60t-3 36t-1 24h-7q0 -11 -1 -24t-3 -36t-5.5 -60t-9 -96t-14 -144t-19.5 -204h-129l-60 757h89q9 -137 15 -234.5t10.5 -164.5t7 -108t4 -65.5t2.5 -37.5t1 -23h8q0 10 1 23t3.5 37.5t7 65.5t11 108t17 164t24.5 235
h88q14 -137 24.5 -234.5t17.5 -164.5t11.5 -108t7 -65.5t3 -37.5t1.5 -23h8q0 10 0.5 23t2 37.5t4 65.5t6.5 108t10.5 164t15.5 235h85l-59 -757h-129zM312 789l-46 91h-7l-46 -91h-73v4l92 169h61l93 -169v-4h-74z" />
    <glyph glyph-name="wcircumflex" unicode="&#x175;" horiz-adv-x="522" 
d="M18 0zM316 0q-11 119 -19 204t-13.5 144t-8.5 96t-5 60t-3 36t-1 24h-7q0 -11 -1 -24t-3 -36t-5.5 -60t-9 -96t-14 -144t-19.5 -204h-129l-60 757h89q9 -137 15 -234.5t10.5 -164.5t7 -108t4 -65.5t2.5 -37.5t1 -23h8q0 10 1 23t3.5 37.5t7 65.5t11 108t17 164t24.5 235
h88q14 -137 24.5 -234.5t17.5 -164.5t11.5 -108t7 -65.5t3 -37.5t1.5 -23h8q0 10 0.5 23t2 37.5t4 65.5t6.5 108t10.5 164t15.5 235h85l-59 -757h-129zM312 789l-46 91h-7l-46 -91h-73v4l92 169h61l93 -169v-4h-74z" />
    <glyph glyph-name="Ycircumflex" unicode="&#x176;" horiz-adv-x="325" 
d="M9 0zM116 0v330l-107 422v5h89q19 -88 30.5 -141t17.5 -83.5t8.5 -44t4.5 -22.5h7q1 9 4 22.5t9.5 44t18 83.5t31.5 141h87v-5l-105 -421v-331h-95zM211 789l-46 91h-7l-46 -91h-73v4l92 169h61l93 -169v-4h-74z" />
    <glyph glyph-name="ycircumflex" unicode="&#x177;" horiz-adv-x="325" 
d="M9 0zM116 0v330l-107 422v5h89q19 -88 30.5 -141t17.5 -83.5t8.5 -44t4.5 -22.5h7q1 9 4 22.5t9.5 44t18 83.5t31.5 141h87v-5l-105 -421v-331h-95zM211 789l-46 91h-7l-46 -91h-73v4l92 169h61l93 -169v-4h-74z" />
    <glyph glyph-name="Ydieresis" unicode="&#x178;" horiz-adv-x="325" 
d="M9 0zM116 0v330l-107 422v5h89q19 -88 30.5 -141t17.5 -83.5t8.5 -44t4.5 -22.5h7q1 9 4 22.5t9.5 44t18 83.5t31.5 141h87v-5l-105 -421v-331h-95zM198 815v112h77v-112h-77zM50 815v112h77v-112h-77z" />
    <glyph glyph-name="Zacute" unicode="&#x179;" horiz-adv-x="335" 
d="M23 0zM23 0v104l186 556l-3 6h-177v91h287v-49l-204 -608l3 -6h196v-94h-288zM136 789v4l80 169h81v-5l-95 -168h-66z" />
    <glyph glyph-name="zacute" unicode="&#x17a;" horiz-adv-x="335" 
d="M23 0zM23 0v104l186 556l-3 6h-177v91h287v-49l-204 -608l3 -6h196v-94h-288zM136 789v4l80 169h81v-5l-95 -168h-66z" />
    <glyph glyph-name="Zdotaccent" unicode="&#x17b;" horiz-adv-x="335" 
d="M23 0zM23 0v104l186 556l-3 6h-177v91h287v-49l-204 -608l3 -6h196v-94h-288zM134 815v112h77v-112h-77z" />
    <glyph glyph-name="zdotaccent" unicode="&#x17c;" horiz-adv-x="335" 
d="M23 0zM23 0v104l186 556l-3 6h-177v91h287v-49l-204 -608l3 -6h196v-94h-288zM134 815v112h77v-112h-77z" />
    <glyph glyph-name="Zcaron" unicode="&#x17d;" horiz-adv-x="335" 
d="M23 0zM23 0v104l186 556l-3 6h-177v91h287v-49l-204 -608l3 -6h196v-94h-288zM141 789l-93 169v4h74l46 -91h7l46 91h73v-4l-92 -169h-61z" />
    <glyph glyph-name="zcaron" unicode="&#x17e;" horiz-adv-x="335" 
d="M23 0zM23 0v104l186 556l-3 6h-177v91h287v-49l-204 -608l3 -6h196v-94h-288zM141 789l-93 169v4h74l46 -91h7l46 91h73v-4l-92 -169h-61z" />
    <glyph glyph-name="florin" unicode="&#x192;" 
d="M11 -156h5q8 -3 17 -5t22 -2q17 0 28 3.5t17 12.5t8.5 24t2.5 38v573h-45v72h45v99q0 36 4.5 62.5t19 44t40.5 26.5t69 9q12 0 30.5 -3t25.5 -8v-71h-5q-8 3 -17 5t-22 2q-17 0 -28 -3.5t-17 -12.5t-8.5 -24t-2.5 -38v-88h97v-72h-97v-584q0 -36 -4.5 -62.5t-19 -44
t-40.5 -26.5t-69 -9q-12 0 -30.5 3t-25.5 8v71z" />
    <glyph glyph-name="Scommaaccent" unicode="&#x218;" horiz-adv-x="311" 
d="M21 0zM103 253q-2 -11 -2.5 -25t-0.5 -35q0 -44 2 -63.5t9 -32.5q6 -11 14 -15.5t25 -4.5q20 0 28.5 4.5t15.5 17.5q7 14 9 36t2 72v32t-1 21.5t-2 15t-3 14.5q-4 14 -10.5 21t-21.5 18q-12 9 -27 18.5t-30 19.5t-29 20.5t-24 20.5t-17 22.5t-11 32.5t-6 51t-2 79
q0 63 7.5 94.5t25.5 51.5q16 17 37 24t60 7q46 0 69.5 -10t36.5 -27q14 -19 19 -46.5t5 -78.5q0 -32 -1.5 -52.5t-4.5 -33.5h-75q2 10 2.5 24.5t0.5 37.5q0 38 -3 56.5t-11 29.5q-6 8 -14 10.5t-24 2.5t-23.5 -3t-13.5 -12q-7 -11 -9.5 -29t-2.5 -58v-37.5t0.5 -24t2 -16
t3.5 -13.5q5 -13 10 -19.5t21 -18.5q18 -14 43.5 -28t48.5 -31q18 -13 26.5 -21.5t16.5 -24.5q4 -9 7 -18t4.5 -24t2 -38.5t0.5 -60.5q0 -39 -2 -66.5t-5.5 -47t-8.5 -33t-11 -25.5q-12 -23 -38 -35t-74 -12q-41 0 -64.5 9t-37.5 35q-6 11 -11 23t-8 28t-4.5 38t-1.5 54
q0 26 1.5 45.5t3.5 33.5h76zM52 -238v5l56 192h79v-5l-71 -192h-64z" />
    <glyph glyph-name="scommaaccent" unicode="&#x219;" horiz-adv-x="311" 
d="M21 0zM103 253q-2 -11 -2.5 -25t-0.5 -35q0 -44 2 -63.5t9 -32.5q6 -11 14 -15.5t25 -4.5q20 0 28.5 4.5t15.5 17.5q7 14 9 36t2 72v32t-1 21.5t-2 15t-3 14.5q-4 14 -10.5 21t-21.5 18q-12 9 -27 18.5t-30 19.5t-29 20.5t-24 20.5t-17 22.5t-11 32.5t-6 51t-2 79
q0 63 7.5 94.5t25.5 51.5q16 17 37 24t60 7q46 0 69.5 -10t36.5 -27q14 -19 19 -46.5t5 -78.5q0 -32 -1.5 -52.5t-4.5 -33.5h-75q2 10 2.5 24.5t0.5 37.5q0 38 -3 56.5t-11 29.5q-6 8 -14 10.5t-24 2.5t-23.5 -3t-13.5 -12q-7 -11 -9.5 -29t-2.5 -58v-37.5t0.5 -24t2 -16
t3.5 -13.5q5 -13 10 -19.5t21 -18.5q18 -14 43.5 -28t48.5 -31q18 -13 26.5 -21.5t16.5 -24.5q4 -9 7 -18t4.5 -24t2 -38.5t0.5 -60.5q0 -39 -2 -66.5t-5.5 -47t-8.5 -33t-11 -25.5q-12 -23 -38 -35t-74 -12q-41 0 -64.5 9t-37.5 35q-6 11 -11 23t-8 28t-4.5 38t-1.5 54
q0 26 1.5 45.5t3.5 33.5h76zM52 -238v5l56 192h79v-5l-71 -192h-64z" />
    <glyph glyph-name="uni021A" unicode="&#x21a;" horiz-adv-x="300" 
d="M12 0zM106 0v667h-94v90h276v-90h-93v-667h-89zM54 -238v5l56 192h79v-5l-71 -192h-64z" />
    <glyph glyph-name="uni021B" unicode="&#x21b;" horiz-adv-x="300" 
d="M12 0zM106 0v667h-94v90h276v-90h-93v-667h-89zM54 -238v5l56 192h79v-5l-71 -192h-64z" />
    <glyph glyph-name="circumflex" unicode="&#x2c6;" horiz-adv-x="312" 
d="M205 592l-46 91h-7l-46 -91h-73v4l92 169h61l93 -169v-4h-74z" />
    <glyph glyph-name="caron" unicode="&#x2c7;" horiz-adv-x="312" 
d="M126 592l-93 169v4h74l46 -91h7l46 91h73v-4l-92 -169h-61z" />
    <glyph glyph-name="breve" unicode="&#x2d8;" horiz-adv-x="296" 
d="M263 765q0 -38 -1 -62t-4 -39t-7.5 -25t-11.5 -19q-12 -16 -31 -21.5t-60 -6.5q-41 1 -60 6.5t-31 21.5q-7 9 -11.5 19t-7.5 25t-4 39t-1 62h61q0 -31 0.5 -49.5t1.5 -29t3 -15.5t5 -9q6 -9 13.5 -11.5t30.5 -2.5t30.5 2.5t13.5 11.5q3 4 5 9t3 15.5t1.5 29t0.5 49.5h61z
" />
    <glyph glyph-name="dotaccent" unicode="&#x2d9;" horiz-adv-x="143" 
d="M33 618v112h77v-112h-77z" />
    <glyph glyph-name="ring" unicode="&#x2da;" horiz-adv-x="213" 
d="M166 593q-8 -9 -21 -12t-39 -3t-39 3t-21 12q-3 4 -5.5 8.5t-4 13t-2.5 22t-1 34.5t0.5 34.5t2 22t4 13.5t6.5 9q7 8 20.5 11.5t39.5 3.5t39.5 -3.5t20.5 -11.5q4 -4 6.5 -9t4 -13.5t2.5 -22t1 -34.5t-1 -34.5t-2.5 -22t-4.5 -13t-6 -8.5zM130 623q3 3 4.5 10.5t1.5 38.5
q0 16 -0.5 25t-1 14t-2 7t-2.5 4q-2 2 -7 3.5t-17 1.5t-17 -1t-8 -4q-2 -2 -2.5 -4t-1.5 -7t-1 -14v-25q0 -31 1 -38.5t4 -10.5t8 -4t17 -1t17 1t7 4z" />
    <glyph glyph-name="ogonek" unicode="&#x2db;" horiz-adv-x="247" 
d="M213 -212q-6 -8 -27 -17t-56 -9q-49 0 -73 25t-24 83q0 49 32 83t109 47h40q-26 -10 -45 -19t-31.5 -20t-19 -25.5t-6.5 -35.5q0 -67 55 -67q15 0 24.5 2.5t17.5 7.5h4v-55z" />
    <glyph glyph-name="tilde" unicode="&#x2dc;" horiz-adv-x="346" 
d="M313 663q-14 -23 -33.5 -32.5t-44.5 -9.5q-20 0 -39.5 7.5t-36.5 20.5q-14 11 -25.5 14.5t-29.5 3.5q-20 0 -36.5 -12t-30.5 -32h-4v68q10 18 29 29.5t43 11.5q39 0 71 -21q21 -14 33 -19.5t31 -5.5t36.5 10.5t31.5 33.5h5v-67z" />
    <glyph glyph-name="hungarumlaut" unicode="&#x2dd;" horiz-adv-x="364" 
d="M172 592v4l81 169h81v-5l-95 -168h-67zM36 592v4l80 169h81v-5l-95 -168h-66z" />
    <glyph glyph-name="Delta" unicode="&#x394;" 
d="M16 0l114 757h79l108 -757h-301zM162 563h-7l-60 -469h119z" />
    <glyph glyph-name="Omega" unicode="&#x3a9;" 
d="M183 0v97q13 24 22 53t15 73.5t8.5 111.5t2.5 168q0 40 -0.5 65.5t-1.5 42t-2.5 25.5t-3.5 17q-5 18 -18 23.5t-39 5.5t-38.5 -5.5t-17.5 -23.5q-2 -8 -3.5 -17t-2.5 -25.5t-1.5 -42t-0.5 -65.5q0 -101 2.5 -168t8.5 -111.5t15 -73.5t22 -53v-97h-124v94h55l2 5
q-15 23 -27 49.5t-19.5 72.5t-11.5 118t-4 186q0 49 1 84t3.5 59.5t6.5 40t11 25.5q14 20 41.5 28t81.5 8t82 -8t42 -28q7 -10 11 -25.5t6.5 -40t3.5 -59.5t1 -84q0 -114 -4 -186t-11.5 -118t-19.5 -72.5t-27 -49.5l2 -5h55v-94h-124z" />
    <glyph glyph-name="mu" unicode="&#x3bc;" 
d="M31 -238v798h88v-422q0 -41 9.5 -59t35.5 -18q19 0 31.5 11t18.5 25v463h89v-560h-81l-1 26l-4 2q-10 -15 -26 -24.5t-40 -9.5q-9 0 -16.5 2t-15.5 4v-238h-88z" />
    <glyph glyph-name="pi" unicode="&#x3c0;" horiz-adv-x="408" 
d="M384 14q-6 -8 -26.5 -17.5t-60.5 -9.5q-45 0 -69.5 23.5t-24.5 87.5v390h-81v-488h-89v560h259v-447q0 -30 8.5 -43t35.5 -13q17 0 26.5 4t16.5 10h5v-57z" />
    <glyph glyph-name="Wgrave" unicode="&#x1e80;" horiz-adv-x="522" 
d="M18 0zM316 0q-11 119 -19 204t-13.5 144t-8.5 96t-5 60t-3 36t-1 24h-7q0 -11 -1 -24t-3 -36t-5.5 -60t-9 -96t-14 -144t-19.5 -204h-129l-60 757h89q9 -137 15 -234.5t10.5 -164.5t7 -108t4 -65.5t2.5 -37.5t1 -23h8q0 10 1 23t3.5 37.5t7 65.5t11 108t17 164t24.5 235
h88q14 -137 24.5 -234.5t17.5 -164.5t11.5 -108t7 -65.5t3 -37.5t1.5 -23h8q0 10 0.5 23t2 37.5t4 65.5t6.5 108t10.5 164t15.5 235h85l-59 -757h-129zM238 789l-96 168v5h81l81 -169v-4h-66z" />
    <glyph glyph-name="wgrave" unicode="&#x1e81;" horiz-adv-x="522" 
d="M18 0zM316 0q-11 119 -19 204t-13.5 144t-8.5 96t-5 60t-3 36t-1 24h-7q0 -11 -1 -24t-3 -36t-5.5 -60t-9 -96t-14 -144t-19.5 -204h-129l-60 757h89q9 -137 15 -234.5t10.5 -164.5t7 -108t4 -65.5t2.5 -37.5t1 -23h8q0 10 1 23t3.5 37.5t7 65.5t11 108t17 164t24.5 235
h88q14 -137 24.5 -234.5t17.5 -164.5t11.5 -108t7 -65.5t3 -37.5t1.5 -23h8q0 10 0.5 23t2 37.5t4 65.5t6.5 108t10.5 164t15.5 235h85l-59 -757h-129zM238 789l-96 168v5h81l81 -169v-4h-66z" />
    <glyph glyph-name="Wacute" unicode="&#x1e82;" horiz-adv-x="522" 
d="M18 0zM316 0q-11 119 -19 204t-13.5 144t-8.5 96t-5 60t-3 36t-1 24h-7q0 -11 -1 -24t-3 -36t-5.5 -60t-9 -96t-14 -144t-19.5 -204h-129l-60 757h89q9 -137 15 -234.5t10.5 -164.5t7 -108t4 -65.5t2.5 -37.5t1 -23h8q0 10 1 23t3.5 37.5t7 65.5t11 108t17 164t24.5 235
h88q14 -137 24.5 -234.5t17.5 -164.5t11.5 -108t7 -65.5t3 -37.5t1.5 -23h8q0 10 0.5 23t2 37.5t4 65.5t6.5 108t10.5 164t15.5 235h85l-59 -757h-129zM223 789v4l80 169h81v-5l-95 -168h-66z" />
    <glyph glyph-name="wacute" unicode="&#x1e83;" horiz-adv-x="522" 
d="M18 0zM316 0q-11 119 -19 204t-13.5 144t-8.5 96t-5 60t-3 36t-1 24h-7q0 -11 -1 -24t-3 -36t-5.5 -60t-9 -96t-14 -144t-19.5 -204h-129l-60 757h89q9 -137 15 -234.5t10.5 -164.5t7 -108t4 -65.5t2.5 -37.5t1 -23h8q0 10 1 23t3.5 37.5t7 65.5t11 108t17 164t24.5 235
h88q14 -137 24.5 -234.5t17.5 -164.5t11.5 -108t7 -65.5t3 -37.5t1.5 -23h8q0 10 0.5 23t2 37.5t4 65.5t6.5 108t10.5 164t15.5 235h85l-59 -757h-129zM223 789v4l80 169h81v-5l-95 -168h-66z" />
    <glyph glyph-name="Wdieresis" unicode="&#x1e84;" horiz-adv-x="522" 
d="M18 0zM316 0q-11 119 -19 204t-13.5 144t-8.5 96t-5 60t-3 36t-1 24h-7q0 -11 -1 -24t-3 -36t-5.5 -60t-9 -96t-14 -144t-19.5 -204h-129l-60 757h89q9 -137 15 -234.5t10.5 -164.5t7 -108t4 -65.5t2.5 -37.5t1 -23h8q0 10 1 23t3.5 37.5t7 65.5t11 108t17 164t24.5 235
h88q14 -137 24.5 -234.5t17.5 -164.5t11.5 -108t7 -65.5t3 -37.5t1.5 -23h8q0 10 0.5 23t2 37.5t4 65.5t6.5 108t10.5 164t15.5 235h85l-59 -757h-129zM298 815v112h77v-112h-77zM150 815v112h77v-112h-77z" />
    <glyph glyph-name="wdieresis" unicode="&#x1e85;" horiz-adv-x="522" 
d="M18 0zM316 0q-11 119 -19 204t-13.5 144t-8.5 96t-5 60t-3 36t-1 24h-7q0 -11 -1 -24t-3 -36t-5.5 -60t-9 -96t-14 -144t-19.5 -204h-129l-60 757h89q9 -137 15 -234.5t10.5 -164.5t7 -108t4 -65.5t2.5 -37.5t1 -23h8q0 10 1 23t3.5 37.5t7 65.5t11 108t17 164t24.5 235
h88q14 -137 24.5 -234.5t17.5 -164.5t11.5 -108t7 -65.5t3 -37.5t1.5 -23h8q0 10 0.5 23t2 37.5t4 65.5t6.5 108t10.5 164t15.5 235h85l-59 -757h-129zM298 815v112h77v-112h-77zM150 815v112h77v-112h-77z" />
    <glyph glyph-name="Ygrave" unicode="&#x1ef2;" horiz-adv-x="325" 
d="M9 0zM116 0v330l-107 422v5h89q19 -88 30.5 -141t17.5 -83.5t8.5 -44t4.5 -22.5h7q1 9 4 22.5t9.5 44t18 83.5t31.5 141h87v-5l-105 -421v-331h-95zM137 789l-96 168v5h81l81 -169v-4h-66z" />
    <glyph glyph-name="ygrave" unicode="&#x1ef3;" horiz-adv-x="325" 
d="M9 0zM116 0v330l-107 422v5h89q19 -88 30.5 -141t17.5 -83.5t8.5 -44t4.5 -22.5h7q1 9 4 22.5t9.5 44t18 83.5t31.5 141h87v-5l-105 -421v-331h-95zM137 789l-96 168v5h81l81 -169v-4h-66z" />
    <glyph glyph-name="endash" unicode="&#x2013;" horiz-adv-x="402" 
d="M22 345v72h357v-72h-357z" />
    <glyph glyph-name="emdash" unicode="&#x2014;" horiz-adv-x="553" 
d="M22 345v72h508v-72h-508z" />
    <glyph glyph-name="quoteleft" unicode="&#x2018;" horiz-adv-x="156" 
d="M33 520v122l45 146h42v-5l-29 -141l2 -6h30v-116h-90z" />
    <glyph glyph-name="quoteright" unicode="&#x2019;" horiz-adv-x="156" 
d="M36 520v5l29 141l-2 6h-30v116h90v-122l-45 -146h-42z" />
    <glyph glyph-name="quotesinglbase" unicode="&#x201a;" horiz-adv-x="156" 
d="M36 -142v5l29 141l-2 6h-30v116h90v-122l-45 -146h-42z" />
    <glyph glyph-name="quotedblleft" unicode="&#x201c;" horiz-adv-x="312" 
d="M33 520zM33 520v122l45 146h42v-5l-29 -141l2 -6h30v-116h-90zM189 520v122l45 146h42v-5l-29 -141l2 -6h30v-116h-90z" />
    <glyph glyph-name="quotedblright" unicode="&#x201d;" horiz-adv-x="312" 
d="M33 520zM36 520v5l29 141l-2 6h-30v116h90v-122l-45 -146h-42zM192 520v5l29 141l-2 6h-30v116h90v-122l-45 -146h-42z" />
    <glyph glyph-name="quotedblbase" unicode="&#x201e;" horiz-adv-x="312" 
d="M33 0zM36 -142v5l29 141l-2 6h-30v116h90v-122l-45 -146h-42zM192 -142v5l29 141l-2 6h-30v116h90v-122l-45 -146h-42z" />
    <glyph glyph-name="dagger" unicode="&#x2020;" horiz-adv-x="369" 
d="M179 0l-21 147v397h-125v52h125v161h52v-161h126v-52h-126v-397l-21 -147h-10z" />
    <glyph glyph-name="daggerdbl" unicode="&#x2021;" horiz-adv-x="369" 
d="M158 0v160h-125v52h125v76l18 90l-18 91v75h-125v52h125v161h52v-161h126v-52h-126v-75l-18 -91l18 -90v-76h126v-52h-126v-160h-52z" />
    <glyph glyph-name="bullet" unicode="&#x2022;" horiz-adv-x="252" 
d="M203 285q-9 -9 -26.5 -13t-50.5 -4q-32 0 -50 4t-27 13q-4 4 -7 9.5t-5 15.5t-3 25t-1 39t1 39t2.5 25t4.5 15.5t8 10.5q9 9 27 12.5t50 3.5q33 0 50.5 -3.5t26.5 -12.5q4 -5 7.5 -10.5t5 -15.5t2.5 -25t1 -39t-1 -39t-2.5 -24.5t-5 -15t-7.5 -10.5z" />
    <glyph glyph-name="ellipsis" unicode="&#x2026;" horiz-adv-x="529" 
d="M42 0zM42 0v126h88v-126h-88zM220 0v126h88v-126h-88zM398 0v126h88v-126h-88z" />
    <glyph glyph-name="perthousand" unicode="&#x2030;" horiz-adv-x="609" 
d="M14 0zM166 366q-4 -7 -8 -12t-11 -8t-19 -4t-31 -1q-20 0 -31.5 1t-19 4t-11.5 8t-7 12q-4 8 -7 20.5t-4.5 34t-2 54.5t-0.5 83t0.5 83t2 54t4.5 33t7 21q7 16 19 21t50 5q19 0 31 -1.5t19 -4.5t11 -8t8 -12q4 -9 6.5 -21t4 -33t2 -54t0.5 -83t-0.5 -83t-2 -54.5t-4 -34
t-6.5 -20.5zM115 413q1 4 2.5 10.5t2 21.5t1 41.5t0.5 71.5q0 46 -0.5 73.5t-1 42t-2 20.5t-2.5 11q-5 10 -18 10q-10 0 -13 -1.5t-5 -8.5q-2 -5 -2.5 -10.5t-1.5 -20t-1 -41.5v-75v-71.5t1 -41.5t1.5 -21.5t2.5 -10.5q2 -6 5.5 -7.5t12.5 -1.5q8 0 12 1.5t6 7.5zM27 0v4
l312 753h58v-5l-313 -752h-57zM397 8q-4 -7 -8 -12t-11 -8t-19 -4t-31 -1q-20 0 -31.5 1t-19 4t-11.5 8t-7 12q-4 8 -7 20.5t-4.5 34t-2 54.5t-0.5 83t0.5 83t2 54t4.5 33t7 21q7 16 19 21t50 5q19 0 31 -1.5t19 -4.5t11 -8t8 -12q4 -9 6.5 -21t4 -33t2 -54t0.5 -83
t-0.5 -83t-2 -54.5t-4 -34t-6.5 -20.5zM346 55q1 4 2.5 10.5t2 21.5t1 41.5t0.5 71.5q0 46 -0.5 73.5t-1 42t-2 20.5t-2.5 11q-5 10 -18 10q-10 0 -13 -1.5t-5 -8.5q-2 -5 -2.5 -10.5t-1.5 -20t-1 -41.5v-75v-71.5t1 -41.5t1.5 -21.5t2.5 -10.5q2 -6 5.5 -7.5t12.5 -1.5
q8 0 12 1.5t6 7.5zM579 8q-4 -7 -8 -12t-11 -8t-19 -4t-31 -1q-20 0 -31.5 1t-19 4t-11.5 8t-7 12q-4 8 -7 20.5t-4.5 34t-2 54.5t-0.5 83t0.5 83t2 54t4.5 33t7 21q7 16 19 21t50 5q19 0 31 -1.5t19 -4.5t11 -8t8 -12q4 -9 6.5 -21t4 -33t2 -54t0.5 -83t-0.5 -83t-2 -54.5
t-4 -34t-6.5 -20.5zM528 55q1 4 2.5 10.5t2 21.5t1 41.5t0.5 71.5q0 46 -0.5 73.5t-1 42t-2 20.5t-2.5 11q-5 10 -18 10q-10 0 -13 -1.5t-5 -8.5q-2 -5 -2.5 -10.5t-1.5 -20t-1 -41.5v-75v-71.5t1 -41.5t1.5 -21.5t2.5 -10.5q2 -6 5.5 -7.5t12.5 -1.5q8 0 12 1.5t6 7.5z" />
    <glyph glyph-name="minute" unicode="&#x2032;" horiz-adv-x="191" 
d="M15 484l76 304h84l-98 -304h-62z" />
    <glyph glyph-name="second" unicode="&#x2033;" horiz-adv-x="341" 
d="M165 484l76 304h84l-98 -304h-62zM15 484l76 304h84l-98 -304h-62z" />
    <glyph glyph-name="guilsinglleft" unicode="&#x2039;" horiz-adv-x="191" 
d="M163 208l-141 143v58l141 144h4v-84l-91 -86v-7l91 -85v-83h-4z" />
    <glyph glyph-name="guilsinglright" unicode="&#x203a;" horiz-adv-x="191" 
d="M22 208v84l91 86v7l-91 85v83h4l141 -143v-58l-141 -144h-4z" />
    <glyph glyph-name="fraction" unicode="&#x2044;" horiz-adv-x="126" 
d="M-122 0v4l312 753h58v-5l-313 -752h-57z" />
    <glyph glyph-name="zerosuperior" unicode="&#x2070;" horiz-adv-x="214" 
d="M23 341zM175 366q-4 -7 -8 -12t-11 -8t-19 -4t-31 -1q-20 0 -31.5 1t-19 4t-11.5 8t-7 12q-4 8 -7 20.5t-4.5 34t-2 54.5t-0.5 83t0.5 83t2 54t4.5 33t7 21q7 16 19 21t50 5q19 0 31 -1.5t19 -4.5t11 -8t8 -12q4 -9 6.5 -21t4 -33t2 -54t0.5 -83t-0.5 -83t-2 -54.5
t-4 -34t-6.5 -20.5zM124 413q1 4 2.5 10.5t2 21.5t1 41.5t0.5 71.5q0 46 -0.5 73.5t-1 42t-2 20.5t-2.5 11q-5 10 -18 10q-10 0 -13 -1.5t-5 -8.5q-2 -5 -2.5 -10.5t-1.5 -20t-1 -41.5v-75v-71.5t1 -41.5t1.5 -21.5t2.5 -10.5q2 -6 5.5 -7.5t12.5 -1.5q8 0 12 1.5t6 7.5z
" />
    <glyph glyph-name="foursuperior" unicode="&#x2074;" horiz-adv-x="214" 
d="M19 348zM111 348v82h-92v55l91 282h61v-282h21v-55h-21v-82h-60zM113 593h-4l-33 -108h37v108z" />
    <glyph glyph-name="fivesuperior" unicode="&#x2075;" horiz-adv-x="214" 
d="M24 341zM31 580l8 187h145v-61h-96l-4 -74l3 -1q6 4 15 7t23 3q19 0 31.5 -4.5t19.5 -17.5t9.5 -37t2.5 -64q0 -60 -3.5 -95t-13.5 -53t-26.5 -23.5t-41.5 -5.5q-23 0 -38 6.5t-24 21.5t-13 40.5t-4 63.5v25.5t1 16.5h57q-1 -8 -1 -15.5v-17.5q0 -27 1 -42.5t3.5 -23.5
t7.5 -10t14 -2q7 0 11.5 2.5t7 14t3.5 34t1 62.5q0 25 -1 39t-3.5 21t-7 8.5t-10.5 1.5q-10 0 -17 -6.5t-12 -14.5z" />
    <glyph glyph-name="sixsuperior" unicode="&#x2076;" horiz-adv-x="214" 
d="M23 341zM129 644q1 6 1 10.5v11.5q0 18 -0.5 27.5t-3 14.5t-7.5 6t-13 1t-12 -1.5t-6.5 -8.5t-3 -20t-0.5 -35v-45q16 7 33 7q18 0 31.5 -2.5t22 -14.5t13 -36.5t4.5 -68.5q0 -49 -3.5 -78.5t-12.5 -45t-25 -20.5t-41 -5q-29 0 -43 5t-24 24q-6 10 -9 21.5t-4.5 31.5
t-2 52t-0.5 83q0 76 2 119.5t10 65.5t24.5 27t46.5 5q22 0 37 -2.5t24.5 -13t13.5 -32t4 -60.5v-11.5t-1 -11.5h-55zM125 554q-4 6 -19 6q-16 0 -23 -8v-46q0 -36 0.5 -56.5t3 -30.5t7.5 -12.5t14 -2.5q6 0 10.5 2.5t7 11.5t3.5 27.5t1 51.5q0 30 -1.5 40t-4.5 17h1z" />
    <glyph glyph-name="sevensuperior" unicode="&#x2077;" horiz-adv-x="214" 
d="M24 348zM42 348l83 353l-3 5h-98v61h163v-41l-81 -378h-64z" />
    <glyph glyph-name="eightsuperior" unicode="&#x2078;" horiz-adv-x="214" 
d="M22 341zM44 565q-14 11 -16 29.5t-2 61.5q0 42 2 66t10.5 35.5t24.5 14.5t43 3t43 -3t24.5 -14.5t10.5 -35.5t2 -66q0 -43 -2 -61.5t-16 -29.5q6 -3 10.5 -8.5t7 -16.5t3.5 -29t1 -47q0 -44 -3 -68.5t-12 -36.5t-25.5 -15t-43.5 -3t-43.5 3t-25.5 15t-12 36.5t-3 68.5
q0 29 1 47t3.5 29t7 16.5t10.5 8.5zM106 403q9 0 14 1.5t8 8.5t3.5 20t0.5 36q0 24 -1 38t-3.5 20.5t-7.5 8t-14 1.5t-14 -1.5t-7.5 -8t-3.5 -20.5t-1 -38q0 -23 0.5 -36t3.5 -20t8 -8.5t14 -1.5zM106 590q8 0 12.5 1.5t7 7.5t3.5 18t1 34q0 23 -0.5 36.5t-3 20t-7.5 8
t-13 1.5t-13 -1.5t-7.5 -8t-3 -20t-0.5 -36.5q0 -22 1 -34t3.5 -18t7 -7.5t12.5 -1.5z" />
    <glyph glyph-name="ninesuperior" unicode="&#x2079;" horiz-adv-x="214" 
d="M23 348zM56 348v4q20 38 36.5 80t25.5 77l-2 2q-12 -7 -32 -7t-31 5.5t-17 19.5q-4 9 -6.5 17.5t-4 20t-2 28.5t-0.5 44q0 52 3.5 80t13 40.5t25.5 14t40 1.5q34 0 48.5 -5t23.5 -22q4 -7 6 -15.5t3 -21t1.5 -30.5t0.5 -45q0 -78 -17 -147t-49 -141h-66zM103 559
q20 0 23.5 17t3.5 63q0 27 -1 42.5t-3.5 23t-7 9.5t-11.5 2q-8 0 -12.5 -1.5t-7 -9t-3.5 -22.5t-1 -41q0 -30 1 -46.5t3 -24.5t6 -10t10 -2z" />
    <glyph glyph-name="zeroinferior" unicode="&#x2080;" horiz-adv-x="214" 
d="M175 8q-4 -7 -8 -12t-11 -8t-19 -4t-31 -1q-20 0 -31.5 1t-19 4t-11.5 8t-7 12q-4 8 -7 20.5t-4.5 34t-2 54.5t-0.5 83t0.5 83t2 54t4.5 33t7 21q7 16 19 21t50 5q19 0 31 -1.5t19 -4.5t11 -8t8 -12q4 -9 6.5 -21t4 -33t2 -54t0.5 -83t-0.5 -83t-2 -54.5t-4 -34
t-6.5 -20.5zM124 55q1 4 2.5 10.5t2 21.5t1 41.5t0.5 71.5q0 46 -0.5 73.5t-1 42t-2 20.5t-2.5 11q-5 10 -18 10q-10 0 -13 -1.5t-5 -8.5q-2 -5 -2.5 -10.5t-1.5 -20t-1 -41.5v-75v-71.5t1 -41.5t1.5 -21.5t2.5 -10.5q2 -6 5.5 -7.5t12.5 -1.5q8 0 12 1.5t6 7.5z" />
    <glyph glyph-name="oneinferior" unicode="&#x2081;" horiz-adv-x="214" 
d="M30 -10v63h47v237h-48v54h32q11 0 17 4.5t6 19.5v41h53v-356h45v-63h-152z" />
    <glyph glyph-name="twoinferior" unicode="&#x2082;" horiz-adv-x="214" 
d="M26 -10v62l61 89q15 21 23.5 36.5t13 30t5.5 30.5t1 40q0 22 -0.5 35.5t-1 20.5t-2 10.5t-3.5 6.5q-2 6 -18 6q-14 0 -18 -6q-2 -5 -3 -15.5t-1 -44.5v-23t1 -24h-58q-1 8 -1 18v29q0 39 3 63.5t12 38.5t24.5 19t40.5 5q26 0 42.5 -4t25.5 -18t12 -41.5t3 -75.5
q0 -38 -1 -59t-5.5 -36t-14.5 -29t-27 -38l-46 -65h92v-61h-160z" />
    <glyph glyph-name="threeinferior" unicode="&#x2083;" horiz-adv-x="214" 
d="M66 175v60h39q8 0 12.5 1.5t7 7t3.5 17t1 31.5q0 24 -1 37t-3.5 19.5t-7 8t-12.5 1.5t-12.5 -1.5t-7 -7t-3.5 -16.5t-1 -31v-17t1 -18h-57q-1 9 -1 17.5v17.5q0 33 2.5 55.5t11 35.5t24.5 18.5t43 5.5q25 0 40.5 -4t24.5 -17t12 -36t3 -62q0 -23 -1 -38.5t-3 -26
t-6.5 -17t-10.5 -10.5q6 -4 10.5 -9.5t8 -16t5 -28.5t1.5 -46q0 -44 -3.5 -69t-13 -37t-26 -14.5t-41.5 -2.5q-26 0 -42 5t-25 19t-12 39t-3 65q0 12 0.5 18.5t1.5 13.5h56q-1 -8 -1 -16v-16q0 -23 1 -36t3.5 -19.5t7.5 -8t13 -1.5t13 1.5t8 8t4 20t1 36.5t-1 35.5
t-3.5 18.5t-7.5 7.5t-14 1.5h-39z" />
    <glyph glyph-name="fourinferior" unicode="&#x2084;" horiz-adv-x="214" 
d="M111 -10v82h-92v55l91 282h61v-282h21v-55h-21v-82h-60zM113 235h-4l-33 -108h37v108z" />
    <glyph glyph-name="fiveinferior" unicode="&#x2085;" horiz-adv-x="214" 
d="M31 222l8 187h145v-61h-96l-4 -74l3 -1q6 4 15 7t23 3q19 0 31.5 -4.5t19.5 -17.5t9.5 -37t2.5 -64q0 -60 -3.5 -95t-13.5 -53t-26.5 -23.5t-41.5 -5.5q-23 0 -38 6.5t-24 21.5t-13 40.5t-4 63.5v25.5t1 16.5h57q-1 -8 -1 -15.5v-17.5q0 -27 1 -42.5t3.5 -23.5t7.5 -10
t14 -2q7 0 11.5 2.5t7 14t3.5 34t1 62.5q0 25 -1 39t-3.5 21t-7 8.5t-10.5 1.5q-10 0 -17 -6.5t-12 -14.5z" />
    <glyph glyph-name="sixinferior" unicode="&#x2086;" horiz-adv-x="214" 
d="M129 286q1 6 1 10.5v11.5q0 18 -0.5 27.5t-3 14.5t-7.5 6t-13 1t-12 -1.5t-6.5 -8.5t-3 -20t-0.5 -35v-45q16 7 33 7q18 0 31.5 -2.5t22 -14.5t13 -36.5t4.5 -68.5q0 -49 -3.5 -78.5t-12.5 -45t-25 -20.5t-41 -5q-29 0 -43 5t-24 24q-6 10 -9 21.5t-4.5 31.5t-2 52
t-0.5 83q0 76 2 119.5t10 65.5t24.5 27t46.5 5q22 0 37 -2.5t24.5 -13t13.5 -32t4 -60.5v-11.5t-1 -11.5h-55zM125 196q-4 6 -19 6q-16 0 -23 -8v-46q0 -36 0.5 -56.5t3 -30.5t7.5 -12.5t14 -2.5q6 0 10.5 2.5t7 11.5t3.5 27.5t1 51.5q0 30 -1.5 40t-4.5 17h1z" />
    <glyph glyph-name="seveninferior" unicode="&#x2087;" horiz-adv-x="214" 
d="M42 -10l83 353l-3 5h-98v61h163v-41l-81 -378h-64z" />
    <glyph glyph-name="eightinferior" unicode="&#x2088;" horiz-adv-x="214" 
d="M44 207q-14 11 -16 29.5t-2 61.5q0 42 2 66t10.5 35.5t24.5 14.5t43 3t43 -3t24.5 -14.5t10.5 -35.5t2 -66q0 -43 -2 -61.5t-16 -29.5q6 -3 10.5 -8.5t7 -16.5t3.5 -29t1 -47q0 -44 -3 -68.5t-12 -36.5t-25.5 -15t-43.5 -3t-43.5 3t-25.5 15t-12 36.5t-3 68.5q0 29 1 47
t3.5 29t7 16.5t10.5 8.5zM106 45q9 0 14 1.5t8 8.5t3.5 20t0.5 36q0 24 -1 38t-3.5 20.5t-7.5 8t-14 1.5t-14 -1.5t-7.5 -8t-3.5 -20.5t-1 -38q0 -23 0.5 -36t3.5 -20t8 -8.5t14 -1.5zM106 232q8 0 12.5 1.5t7 7.5t3.5 18t1 34q0 23 -0.5 36.5t-3 20t-7.5 8t-13 1.5
t-13 -1.5t-7.5 -8t-3 -20t-0.5 -36.5q0 -22 1 -34t3.5 -18t7 -7.5t12.5 -1.5z" />
    <glyph glyph-name="nineinferior" unicode="&#x2089;" horiz-adv-x="214" 
d="M56 -10v4q20 38 36.5 80t25.5 77l-2 2q-12 -7 -32 -7t-31 5.5t-17 19.5q-4 9 -6.5 17.5t-4 20t-2 28.5t-0.5 44q0 52 3.5 80t13 40.5t25.5 14t40 1.5q34 0 48.5 -5t23.5 -22q4 -7 6 -15.5t3 -21t1.5 -30.5t0.5 -45q0 -78 -17 -147t-49 -141h-66zM103 201q20 0 23.5 17
t3.5 63q0 27 -1 42.5t-3.5 23t-7 9.5t-11.5 2q-8 0 -12.5 -1.5t-7 -9t-3.5 -22.5t-1 -41q0 -30 1 -46.5t3 -24.5t6 -10t10 -2z" />
    <glyph glyph-name="Euro" unicode="&#x20ac;" 
d="M312 207q2 -18 2.5 -31.5t0.5 -38.5q0 -38 -5 -66t-19 -46.5t-38.5 -28t-63.5 -9.5q-45 0 -73 8.5t-43 39t-20.5 89.5t-5.5 159h-33l9 62h24v78h-33l9 62h24q0 66 1 105.5t4 64t8.5 39.5t14.5 30q17 28 41.5 37t66.5 9q28 0 47.5 -4.5t33 -11.5t21 -15t11.5 -15l-19 -86
h-5q-10 20 -25.5 33t-44.5 13q-28 0 -40 -3.5t-20 -17.5q-4 -6 -6.5 -15t-4 -27.5t-2 -50.5t-0.5 -85h127l-9 -62h-118v-78h104l-8 -62h-96q0 -49 0.5 -80t1.5 -51t3 -31.5t5 -21.5q4 -13 12.5 -17t35.5 -4q32 0 39 13q5 8 6 17t1 29q0 25 -0.5 38.5t-2.5 31.5h82z" />
    <glyph glyph-name="uni20B9" unicode="&#x20b9;" 
d="M188 0q-3 10 -5 20.5t-4.5 26t-4 38.5t-2.5 59q-1 41 -4 66t-8.5 39t-15 18.5t-24.5 4.5h-91l15 72h87q26 0 37.5 25t12.5 88h-157l11 61h147q0 34 -0.5 54.5t-1 33t-2 19.5t-3.5 13q-5 15 -13.5 19.5t-25.5 4.5h-110l26 95h235v-5l-35 -83q5 -7 8.5 -16.5t6 -26
t3.5 -42.5t1 -66h35l-10 -61h-26q-1 -40 -5.5 -67t-11.5 -45t-17 -27.5t-23 -15.5v-5q14 -5 23 -14t15 -24t9 -37t5 -55q3 -46 5 -74.5t4 -45.5t4 -26t4 -17v-4h-94z" />
    <glyph glyph-name="uni20BA" unicode="&#x20ba;" 
d="M42 0v314l-23 -11h-2v65l25 12v75l-23 -11h-2v66l25 12v235h89v-192l154 75h2v-66l-156 -76v-75l154 75h2v-66l-156 -75v-264h41q21 0 29.5 4.5t13.5 18.5q4 12 6 22.5t3 25.5t1.5 36.5t0.5 54.5h90q-1 -48 -3 -80t-5 -53.5t-7 -35.5t-9 -27q-14 -34 -40 -46.5t-78 -12.5
h-132z" />
    <glyph glyph-name="trademark" unicode="&#x2122;" horiz-adv-x="533" 
d="M78 398v306h-57v53h174v-53h-57v-306h-60zM444 398v263h-7l-61 -263h-33l-61 263h-7v-263h-56v359h91l44 -227h8l49 227h89v-359h-56z" />
    <glyph glyph-name="onethird" unicode="&#x2153;" horiz-adv-x="454" 
d="M11 0zM12 348v63h47v237h-48v54h32q11 0 17 4.5t6 19.5v41h53v-356h45v-63h-152zM40 0v4l312 753h58v-5l-313 -752h-57zM319 175v60h39q8 0 12.5 1.5t7 7t3.5 17t1 31.5q0 24 -1 37t-3.5 19.5t-7 8t-12.5 1.5t-12.5 -1.5t-7 -7t-3.5 -16.5t-1 -31v-17t1 -18h-57
q-1 9 -1 17.5v17.5q0 33 2.5 55.5t11 35.5t24.5 18.5t43 5.5q25 0 40.5 -4t24.5 -17t12 -36t3 -62q0 -23 -1 -38.5t-3 -26t-6.5 -17t-10.5 -10.5q6 -4 10.5 -9.5t8 -16t5 -28.5t1.5 -46q0 -44 -3.5 -69t-13 -37t-26 -14.5t-41.5 -2.5q-26 0 -42 5t-25 19t-12 39t-3 65
q0 12 0.5 18.5t1.5 13.5h56q-1 -8 -1 -16v-16q0 -23 1 -36t3.5 -19.5t7.5 -8t13 -1.5t13 1.5t8 8t4 20t1 36.5t-1 35.5t-3.5 18.5t-7.5 7.5t-14 1.5h-39z" />
    <glyph glyph-name="twothirds" unicode="&#x2154;" horiz-adv-x="454" 
d="M9 0zM10 348v62l61 89q15 21 23.5 36.5t13 30t5.5 30.5t1 40q0 22 -0.5 35.5t-1 20.5t-2 10.5t-3.5 6.5q-2 6 -18 6q-14 0 -18 -6q-2 -5 -3 -15.5t-1 -44.5v-23t1 -24h-58q-1 8 -1 18v29q0 39 3 63.5t12 38.5t24.5 19t40.5 5q26 0 42.5 -4t25.5 -18t12 -41.5t3 -75.5
q0 -38 -1 -59t-5.5 -36t-14.5 -29t-27 -38l-46 -65h92v-61h-160zM42 0v4l312 753h58v-5l-313 -752h-57zM321 175v60h39q8 0 12.5 1.5t7 7t3.5 17t1 31.5q0 24 -1 37t-3.5 19.5t-7 8t-12.5 1.5t-12.5 -1.5t-7 -7t-3.5 -16.5t-1 -31v-17t1 -18h-57q-1 9 -1 17.5v17.5
q0 33 2.5 55.5t11 35.5t24.5 18.5t43 5.5q25 0 40.5 -4t24.5 -17t12 -36t3 -62q0 -23 -1 -38.5t-3 -26t-6.5 -17t-10.5 -10.5q6 -4 10.5 -9.5t8 -16t5 -28.5t1.5 -46q0 -44 -3.5 -69t-13 -37t-26 -14.5t-41.5 -2.5q-26 0 -42 5t-25 19t-12 39t-3 65q0 12 0.5 18.5t1.5 13.5
h56q-1 -8 -1 -16v-16q0 -23 1 -36t3.5 -19.5t7.5 -8t13 -1.5t13 1.5t8 8t4 20t1 36.5t-1 35.5t-3.5 18.5t-7.5 7.5t-14 1.5h-39z" />
    <glyph glyph-name="oneeighth" unicode="&#x215b;" horiz-adv-x="454" 
d="M11 0zM12 348v63h47v237h-48v54h32q11 0 17 4.5t6 19.5v41h53v-356h45v-63h-152zM39 0v4l312 753h58v-5l-313 -752h-57zM296 207q-14 11 -16 29.5t-2 61.5q0 42 2 66t10.5 35.5t24.5 14.5t43 3t43 -3t24.5 -14.5t10.5 -35.5t2 -66q0 -43 -2 -61.5t-16 -29.5
q6 -3 10.5 -8.5t7 -16.5t3.5 -29t1 -47q0 -44 -3 -68.5t-12 -36.5t-25.5 -15t-43.5 -3t-43.5 3t-25.5 15t-12 36.5t-3 68.5q0 29 1 47t3.5 29t7 16.5t10.5 8.5zM358 45q9 0 14 1.5t8 8.5t3.5 20t0.5 36q0 24 -1 38t-3.5 20.5t-7.5 8t-14 1.5t-14 -1.5t-7.5 -8t-3.5 -20.5
t-1 -38q0 -23 0.5 -36t3.5 -20t8 -8.5t14 -1.5zM358 232q8 0 12.5 1.5t7 7.5t3.5 18t1 34q0 23 -0.5 36.5t-3 20t-7.5 8t-13 1.5t-13 -1.5t-7.5 -8t-3 -20t-0.5 -36.5q0 -22 1 -34t3.5 -18t7 -7.5t12.5 -1.5z" />
    <glyph glyph-name="threeeighths" unicode="&#x215c;" horiz-adv-x="454" 
d="M8 0zM51 533v60h39q8 0 12.5 1.5t7 7t3.5 17t1 31.5q0 24 -1 37t-3.5 19.5t-7 8t-12.5 1.5t-12.5 -1.5t-7 -7t-3.5 -16.5t-1 -31v-17t1 -18h-57q-1 9 -1 17.5v17.5q0 33 2.5 55.5t11 35.5t24.5 18.5t43 5.5q25 0 40.5 -4t24.5 -17t12 -36t3 -62q0 -23 -1 -38.5t-3 -26
t-6.5 -17t-10.5 -10.5q6 -4 10.5 -9.5t8 -16t5 -28.5t1.5 -46q0 -44 -3.5 -69t-13 -37t-26 -14.5t-41.5 -2.5q-26 0 -42 5t-25 19t-12 39t-3 65q0 12 0.5 18.5t1.5 13.5h56q-1 -8 -1 -16v-16q0 -23 1 -36t3.5 -19.5t7.5 -8t13 -1.5t13 1.5t8 8t4 20t1 36.5t-1 35.5
t-3.5 18.5t-7.5 7.5t-14 1.5h-39zM37 0v4l312 753h58v-5l-313 -752h-57zM299 207q-14 11 -16 29.5t-2 61.5q0 42 2 66t10.5 35.5t24.5 14.5t43 3t43 -3t24.5 -14.5t10.5 -35.5t2 -66q0 -43 -2 -61.5t-16 -29.5q6 -3 10.5 -8.5t7 -16.5t3.5 -29t1 -47q0 -44 -3 -68.5
t-12 -36.5t-25.5 -15t-43.5 -3t-43.5 3t-25.5 15t-12 36.5t-3 68.5q0 29 1 47t3.5 29t7 16.5t10.5 8.5zM361 45q9 0 14 1.5t8 8.5t3.5 20t0.5 36q0 24 -1 38t-3.5 20.5t-7.5 8t-14 1.5t-14 -1.5t-7.5 -8t-3.5 -20.5t-1 -38q0 -23 0.5 -36t3.5 -20t8 -8.5t14 -1.5zM361 232
q8 0 12.5 1.5t7 7.5t3.5 18t1 34q0 23 -0.5 36.5t-3 20t-7.5 8t-13 1.5t-13 -1.5t-7.5 -8t-3 -20t-0.5 -36.5q0 -22 1 -34t3.5 -18t7 -7.5t12.5 -1.5z" />
    <glyph glyph-name="fiveeighths" unicode="&#x215d;" horiz-adv-x="454" 
d="M11 0zM18 580l8 187h145v-61h-96l-4 -74l3 -1q6 4 15 7t23 3q19 0 31.5 -4.5t19.5 -17.5t9.5 -37t2.5 -64q0 -60 -3.5 -95t-13.5 -53t-26.5 -23.5t-41.5 -5.5q-23 0 -38 6.5t-24 21.5t-13 40.5t-4 63.5v25.5t1 16.5h57q-1 -8 -1 -15.5v-17.5q0 -27 1 -42.5t3.5 -23.5
t7.5 -10t14 -2q7 0 11.5 2.5t7 14t3.5 34t1 62.5q0 25 -1 39t-3.5 21t-7 8.5t-10.5 1.5q-10 0 -17 -6.5t-12 -14.5zM35 0v4l312 753h58v-5l-313 -752h-57zM296 207q-14 11 -16 29.5t-2 61.5q0 42 2 66t10.5 35.5t24.5 14.5t43 3t43 -3t24.5 -14.5t10.5 -35.5t2 -66
q0 -43 -2 -61.5t-16 -29.5q6 -3 10.5 -8.5t7 -16.5t3.5 -29t1 -47q0 -44 -3 -68.5t-12 -36.5t-25.5 -15t-43.5 -3t-43.5 3t-25.5 15t-12 36.5t-3 68.5q0 29 1 47t3.5 29t7 16.5t10.5 8.5zM358 45q9 0 14 1.5t8 8.5t3.5 20t0.5 36q0 24 -1 38t-3.5 20.5t-7.5 8t-14 1.5
t-14 -1.5t-7.5 -8t-3.5 -20.5t-1 -38q0 -23 0.5 -36t3.5 -20t8 -8.5t14 -1.5zM358 232q8 0 12.5 1.5t7 7.5t3.5 18t1 34q0 23 -0.5 36.5t-3 20t-7.5 8t-13 1.5t-13 -1.5t-7.5 -8t-3 -20t-0.5 -36.5q0 -22 1 -34t3.5 -18t7 -7.5t12.5 -1.5z" />
    <glyph glyph-name="seveneighths" unicode="&#x215e;" horiz-adv-x="454" 
d="M20 0zM38 348l83 353l-3 5h-98v61h163v-41l-81 -378h-64zM26 0v4l312 753h58v-5l-313 -752h-57zM288 207q-14 11 -16 29.5t-2 61.5q0 42 2 66t10.5 35.5t24.5 14.5t43 3t43 -3t24.5 -14.5t10.5 -35.5t2 -66q0 -43 -2 -61.5t-16 -29.5q6 -3 10.5 -8.5t7 -16.5t3.5 -29
t1 -47q0 -44 -3 -68.5t-12 -36.5t-25.5 -15t-43.5 -3t-43.5 3t-25.5 15t-12 36.5t-3 68.5q0 29 1 47t3.5 29t7 16.5t10.5 8.5zM350 45q9 0 14 1.5t8 8.5t3.5 20t0.5 36q0 24 -1 38t-3.5 20.5t-7.5 8t-14 1.5t-14 -1.5t-7.5 -8t-3.5 -20.5t-1 -38q0 -23 0.5 -36t3.5 -20
t8 -8.5t14 -1.5zM350 232q8 0 12.5 1.5t7 7.5t3.5 18t1 34q0 23 -0.5 36.5t-3 20t-7.5 8t-13 1.5t-13 -1.5t-7.5 -8t-3 -20t-0.5 -36.5q0 -22 1 -34t3.5 -18t7 -7.5t12.5 -1.5z" />
    <glyph glyph-name="partialdiff" unicode="&#x2202;" 
d="M247 419q1 12 1 24v23q0 68 -8.5 112t-21 69.5t-28.5 35t-31 9.5q-5 0 -10 -0.5t-10 -1.5l-3 74q8 2 16.5 4t19.5 2q18 0 42.5 -12.5t46 -49t36.5 -104t15 -177.5q0 -93 -7.5 -173.5t-26 -140t-50.5 -94t-80 -34.5q-62 0 -94.5 56.5t-32.5 184.5q0 74 9.5 124.5t27 82
t42 45.5t54.5 14q32 0 53.5 -17t32.5 -56h7zM238 331q-11 43 -29 64t-51 21q-32 0 -50 -44.5t-18 -146.5q0 -90 17 -128t46 -38q20 0 35 19.5t25.5 55t16.5 85.5t8 112z" />
    <glyph glyph-name="product" unicode="&#x220f;" 
d="M242 -238v1131h-151v-1131h-69v1200h289v-1200h-69z" />
    <glyph glyph-name="summation" unicode="&#x2211;" 
d="M24 -238v18l159 479l-159 482v16h285v-77h-181l128 -421l-128 -421h181v-76h-285z" />
    <glyph glyph-name="minus" unicode="&#x2212;" 
d="M19 345v68h296v-68h-296z" />
    <glyph glyph-name="radical" unicode="&#x221a;" 
d="M119 0l-59 345h-49v68h103l43 -305h7l89 649h69v-8l-120 -749h-83z" />
    <glyph glyph-name="infinity" unicode="&#x221e;" horiz-adv-x="575" 
d="M286 312q-51 -94 -146 -94q-51 0 -81 39t-30 121q0 84 30 122t81 38q49 0 83 -23.5t63 -71.5q31 48 65.5 71.5t84.5 23.5q51 0 80.5 -38t29.5 -122q0 -82 -29.5 -121t-80.5 -39t-86 23t-64 71zM319 375q21 -35 47 -57t59 -22q32 0 42.5 20t10.5 62q0 39 -11 58.5
t-42 19.5q-32 0 -57.5 -20.5t-48.5 -60.5zM256 375q-24 40 -49 60.5t-57 20.5q-30 0 -41 -19.5t-11 -58.5q0 -42 10.5 -62t41.5 -20q34 0 60 22t46 57z" />
    <glyph glyph-name="integral" unicode="&#x222b;" 
d="M31 -238v69h52q29 0 39 14t10 51v932q0 40 6 66t19.5 41t36 21t54.5 6h54v-69h-52q-28 0 -38.5 -14t-10.5 -51v-931q0 -74 -26 -104.5t-90 -30.5h-54z" />
    <glyph glyph-name="approxequal" unicode="&#x2248;" 
d="M19 204zM315 489q-29 -45 -79 -45q-23 0 -42.5 7t-36.5 18q-20 13 -33 17.5t-30 4.5q-41 0 -69 -47h-6v71q11 19 29 32t43 13t45.5 -7.5t37.5 -18.5q21 -14 34 -18t30 -4q20 0 38.5 11.5t32.5 34.5h6v-69zM315 249q-29 -45 -79 -45q-23 0 -42.5 7t-36.5 18
q-20 13 -33 17.5t-30 4.5q-41 0 -69 -47h-6v71q11 19 29 32t43 13t45.5 -7.5t37.5 -18.5q21 -14 34 -18t30 -4q20 0 38.5 11.5t32.5 34.5h6v-69z" />
    <glyph glyph-name="notequal" unicode="&#x2260;" 
d="M142 230l-85 -230h-57v4l83 226h-64v68h89l59 162h-148v68h173l84 229h58v-5l-83 -224h64v-68h-89l-59 -162h148v-68h-173z" />
    <glyph glyph-name="lessequal" unicode="&#x2264;" 
d="M19 0zM310 162l-291 184v67l291 184h5v-81l-227 -133v-8l227 -132v-81h-5zM19 0v68h296v-68h-296z" />
    <glyph glyph-name="greaterequal" unicode="&#x2265;" 
d="M19 0zM24 162h-5v81l227 132v8l-227 133v81h5l291 -184v-67zM19 0v68h296v-68h-296z" />
    <glyph glyph-name="lozenge" unicode="&#x25ca;" 
d="M134 0l-105 378l105 379h66l104 -379l-104 -378h-66zM235 378l-64 273h-7l-66 -273l65 -272h7z" />
    <glyph glyph-name=".null" horiz-adv-x="0" 
 />
    <glyph glyph-name="nonmarkingreturn" horiz-adv-x="148" 
 />
    <glyph glyph-name=".ttfautohint" horiz-adv-x="148" 
d="M0 0z" />
    </font>
</defs>
</svg>
